<svg id="Layer_2" data-name="Layer 2" xmlns="http://www.w3.org/2000/svg" viewBox="0 0 224.61 322.71"><defs><style>.cls-1{fill:#f5b65f;}</style></defs><title>logo</title><path class="cls-1" d="M178.36,116.66a2.47,2.47,0,0,1-1.23-.33l-54.69-31a2.53,2.53,0,0,1-1.27-2.18v-64a2.5,2.5,0,0,1,3.75-2.17L234.58,80.26a2.47,2.47,0,0,1,1.25,2.16,2.5,2.5,0,0,1-1.25,2.17l-55,31.73A2.42,2.42,0,0,1,178.36,116.66Zm-52.19-35,52.18,29.59,50-28.86-102.16-59Z" transform="translate(-11.22 -16.61)"/><path class="cls-1" d="M68.7,181.16a2.52,2.52,0,0,1-1.25-.34l-55-31.74a2.51,2.51,0,0,1-1.25-2.16V82.66a2.51,2.51,0,0,1,1.25-2.17l110-63.55a2.53,2.53,0,0,1,2.5,0,2.49,2.49,0,0,1,1.25,2.17v64a2.49,2.49,0,0,1-1.27,2.18l-53.7,30.3v63A2.51,2.51,0,0,1,70,180.82,2.55,2.55,0,0,1,68.7,181.16ZM16.22,145.47l50,28.86V114.16A2.49,2.49,0,0,1,67.47,112l53.7-30.3V23.44L16.22,84.1Z" transform="translate(-11.22 -16.61)"/><path class="cls-1" d="M123.67,339.32a2.59,2.59,0,0,1-1.26-.34L12.46,274.91a2.5,2.5,0,0,1-1.24-2.16V146.92a2.51,2.51,0,0,1,1.25-2.17,2.48,2.48,0,0,1,2.5,0l55,31.74a2.51,2.51,0,0,1,1.25,2.17v60.81l53.72,31.11a2.49,2.49,0,0,1,1.25,2.17v64.07a2.5,2.5,0,0,1-1.25,2.16A2.45,2.45,0,0,1,123.67,339.32Zm-107.45-68,105,61.16V274.19L67.44,243.07a2.49,2.49,0,0,1-1.24-2.16V180.1l-50-28.85Z" transform="translate(-11.22 -16.61)"/><path class="cls-1" d="M178.5,243.86a2.54,2.54,0,0,1-1.25-.33l-54.83-31.66a2.5,2.5,0,0,1,0-4.34l54.83-31.05a2.53,2.53,0,0,1,2.47,0l54.83,31.05a2.5,2.5,0,0,1,0,4.34l-54.83,31.66A2.51,2.51,0,0,1,178.5,243.86Zm-49.79-34.13,49.79,28.75,49.8-28.75-49.8-28.2Z" transform="translate(-11.22 -16.61)"/><path class="cls-1" d="M123.67,339.32a2.39,2.39,0,0,1-1.24-.34,2.48,2.48,0,0,1-1.26-2.16V272.75a2.49,2.49,0,0,1,1.26-2.17l109.66-63a2.53,2.53,0,0,1,2.5,0,2.5,2.5,0,0,1,1.24,2.17v63a2.48,2.48,0,0,1-1.24,2.15L124.93,339A2.47,2.47,0,0,1,123.67,339.32Zm2.5-65.13v58.27l104.66-61.15V214Z" transform="translate(-11.22 -16.61)"/></svg>