<svg xmlns="http://www.w3.org/2000/svg" width="102" height="102" viewBox="0 0 102 102"><defs><clipPath id="a"><path fill="none" d="M-8.8-9h120v120h-120z"/></clipPath></defs><g fill="#231f20" clip-path="url(#a)"><path d="M51.2 1a50 50 0 1 0 50 50 50 50 0 0 0-50-50M79 75.3a4 4 0 0 1-4.1 4H27.3a4.1 4.1 0 0 1-4.1-4V27.2a4.1 4.1 0 0 1 4.1-4h47.6a4 4 0 0 1 4.1 4z"/><path d="M60.8 44.2a8.4 8.4 0 0 0-7.6 4.2v-3.6h-8.4c.1 2.4 0 25.4 0 25.4h8.4V56a5.6 5.6 0 0 1 .3-2 4.5 4.5 0 0 1 4.3-3.1c3.1 0 4.3 2.3 4.3 5.7v13.6h8.4V55.6c0-7.8-4.2-11.4-9.7-11.4M36 32.6c-2.9 0-4.8 1.9-4.8 4.4a4.4 4.4 0 0 0 4.6 4.4h.1a4.4 4.4 0 1 0 .1-8.8m-4.3 12.2h8.4v25.35h-8.4z"/></g></svg>