<svg xmlns="http://www.w3.org/2000/svg" width="5in" height="5in" viewBox="0 0 360 360"><path fill="#f5b65f" d="M270.8 158.1c-1.6-26.5-11.4-50.3-26.4-68-16.5-19.3-39.3-31.3-64.4-31.3h-.5c-47.8.3-86.9 44-90.3 99.3-.1 2.5-.2 5.1-.2 7.7v122.5l-2.2.4a145.9 145.9 0 1 1 185.7 0l-1.5-1.1V165.8c0-2.6-.1-5.1-.2-7.7z"/><path fill="#933f11" d="M271 287.6l1.5 1.1q-6 4.8-12.3 9l-.4-.6a96.4 96.4 0 0 0-59.7-40.4 21.4 21.4 0 0 0 1.4-7.6v-15.3h-.1a59.7 59.7 0 0 0 37.8-55.5v-29a101 101 0 0 0 31.5 8.8c.1 2.6.2 5.1.2 7.7z"/><path fill="#8d7689" d="M259.8 297.1l.4.6a145.7 145.7 0 0 1-161.1 0 96.8 96.8 0 0 1 60.1-41 22.2 22.2 0 0 0 5 7.8 21.6 21.6 0 0 0 15.4 6.4 21.9 21.9 0 0 0 20.5-14.2 96.4 96.4 0 0 1 59.7 40.4z"/><path fill="#933f11" d="M244.4 90.1c15 17.7 24.8 41.5 26.4 68a101 101 0 0 1-31.5-8.8A102.6 102.6 0 0 1 179.8 63c.1-1.4.1-2.8.2-4.2 25.1 0 47.9 12 64.4 31.3z"/><path fill="#f2ddc0" d="M239.3 149.3v28.9a59.7 59.7 0 0 1-37.8 55.5 60.4 60.4 0 0 1-21.8 4.1 60 60 0 0 1-42.1-17.5 59.7 59.7 0 0 1-17.4-42.1v-26.7l-.8-1.7 1.1-.6A103 103 0 0 0 179.8 63a102.6 102.6 0 0 0 59.5 86.3zm-21.1 17.4a7.9 7.9 0 1 0-7.9 7.8 7.9 7.9 0 0 0 7.9-7.8zm-61.4 0a7.9 7.9 0 1 0-7.8 7.8 7.8 7.8 0 0 0 7.8-7.8z"/><path fill="#4f3b49" d="M210.3 158.8a7.9 7.9 0 1 1-7.8 7.9 7.9 7.9 0 0 1 7.8-7.9z"/><path fill="#f2ddc0" d="M201.5 233.8v15.3a21.4 21.4 0 0 1-1.4 7.6 21.9 21.9 0 0 1-20.5 14.2 21.6 21.6 0 0 1-15.4-6.4 22.2 22.2 0 0 1-5-7.8 21.4 21.4 0 0 1-1.4-7.6v-15.5a58.7 58.7 0 0 0 21.8 4.2 60.4 60.4 0 0 0 21.8-4.1z"/><path fill="#933f11" d="M179.5 58.8l.3 4.2a103 103 0 0 1-59.4 86.2l-1.1.6a104.9 104.9 0 0 1-30.1 8.3c3.4-55.3 42.5-99 90.3-99.3z"/><path fill="#933f11" d="M157.8 249.1a21.4 21.4 0 0 0 1.4 7.6 96.8 96.8 0 0 0-60.1 41q-6.3-4.2-12.3-9l2.2-.4V165.8c0-2.6.1-5.2.2-7.7a104.9 104.9 0 0 0 30.1-8.3l.8 1.7v26.7a59.7 59.7 0 0 0 17.4 42.1 59.2 59.2 0 0 0 20.3 13.3z"/><path fill="#4f3b49" d="M149 158.8a7.9 7.9 0 1 1-7.9 7.9 7.8 7.8 0 0 1 7.9-7.9z"/><path fill="none" stroke="#4f3b49" stroke-linecap="round" stroke-miterlimit="10" stroke-width="6" d="M86.8 288.7a145.9 145.9 0 1 1 185.7 0q-6 4.8-12.3 9a145.7 145.7 0 0 1-161.1 0q-6.3-4.2-12.3-9z"/><path fill="none" stroke="#4f3b49" stroke-linecap="round" stroke-miterlimit="10" stroke-width="6" d="M239.2 149.6v28.6a59.7 59.7 0 0 1-37.8 55.5 60.4 60.4 0 0 1-21.8 4.1 60 60 0 0 1-42.1-17.5 59.7 59.7 0 0 1-17.4-42.1v-26.7m20-2c4.9-2.5 12.8-2.5 17.6 0"/><path fill="none" stroke="#4f3b49" stroke-linecap="round" stroke-miterlimit="10" stroke-width="5.05" d="M187.6 187.9a11.2 11.2 0 0 1-15.9 0"/><path fill="none" stroke="#4f3b49" stroke-linecap="round" stroke-miterlimit="10" stroke-width="6" d="M202.6 149.5c4.8-2.5 12.7-2.5 17.6 0"/><path fill="none" stroke="#4f3b49" stroke-linecap="round" stroke-miterlimit="10" stroke-width="7.3" d="M200.9 210.1a29.9 29.9 0 0 1-42.5 0"/><path fill="none" stroke="#4f3b49" stroke-linecap="round" stroke-miterlimit="10" stroke-width="6" d="M201.5 233.8v15.3a21.4 21.4 0 0 1-1.4 7.6 21.9 21.9 0 0 1-20.5 14.2 21.6 21.6 0 0 1-15.4-6.4 22.2 22.2 0 0 1-5-7.8 21.4 21.4 0 0 1-1.4-7.6v-15.5m42.3 23.1a96.4 96.4 0 0 1 59.7 40.4m-160.7.6a96.8 96.8 0 0 1 60.1-41"/><path fill="none" stroke="#4f3b49" stroke-linecap="round" stroke-miterlimit="10" stroke-width="6" d="M89 288.3V165.8c0-2.6.1-5.2.2-7.7 3.4-55.3 42.5-99 90.3-99.3h.5c25.1 0 47.9 12 64.4 31.3 15 17.7 24.8 41.5 26.4 68 .1 2.6.2 5.1.2 7.7v121.8"/><path fill="none" stroke="#4f3b49" stroke-linecap="round" stroke-miterlimit="10" stroke-width="6" d="M120.4 149.2l-1.1.6a104.9 104.9 0 0 1-30.1 8.3H89m31.4-8.9A103 103 0 0 0 179.8 63c.1-1.4.1-2.8.2-4.2"/><path fill="none" stroke="#4f3b49" stroke-linecap="round" stroke-miterlimit="10" stroke-width="6" d="M179.5 58.8l.3 4.2a102.6 102.6 0 0 0 59.5 86.3 101 101 0 0 0 31.5 8.8h.2"/><path d="M179.5 73.8h-3.6l-1.7 9.9L166 104l-19 24.5-26.6 20.7-.2 15.1c.1 0 .2 0 .2-.1A103 103 0 0 0 179.8 78zm22.2 161.4l-18.6 4.7-23.1-3-2.2 12.2c.1 0 2 3.2 2 3.2 23.7 6.1 40.3-10 41-14.7a9.3 9.3 0 0 0 .9-2.4z" opacity=".1"/></svg>