<svg xmlns="http://www.w3.org/2000/svg" width="5in" height="5in" viewBox="0 0 360 360"><title>avatar-background</title><g id="Layer_1" data-name="Layer 1"><path d="M270.8,158.1c-1.6-26.5-11.4-50.3-26.4-68C227.9,70.8,205.1,58.8,180,58.8h-.5c-47.8.3-86.9,44-90.3,99.3-.1,2.5-.2,5.1-.2,7.7V288.3l-2.2.4a145.9,145.9,0,1,1,185.7,0l-1.5-1.1V165.8C271,163.2,270.9,160.7,270.8,158.1Z" fill="#f5b65f"/><path d="M271,287.6l1.5,1.1q-6,4.8-12.3,9l-.4-.6a96.4,96.4,0,0,0-59.7-40.4,21.4,21.4,0,0,0,1.4-7.6V233.8h-.1a59.7,59.7,0,0,0,37.8-55.5V149.3a101,101,0,0,0,31.5,8.8c.1,2.6.2,5.1.2,7.7Z" fill="#933f11"/><path d="M259.8,297.1l.4.6a145.7,145.7,0,0,1-161.1,0,96.8,96.8,0,0,1,60.1-41,22.2,22.2,0,0,0,5,7.8,21.6,21.6,0,0,0,15.4,6.4,21.9,21.9,0,0,0,20.5-14.2A96.4,96.4,0,0,1,259.8,297.1Z" fill="#8d7689"/><path d="M201.4,236.2h0v12.9a21.4,21.4,0,0,1-1.4,7.6,21.9,21.9,0,0,1-20.5,14.2,21.6,21.6,0,0,1-15.4-6.4,22.2,22.2,0,0,1-5-7.8,21.4,21.4,0,0,1-1.4-7.6V236.7" fill="#f2ddc0"/><path d="M157.8,233.6a58.7,58.7,0,0,0,21.8,4.2,60.4,60.4,0,0,0,21.8-4.1" fill="#f2ddc0"/><path d="M157.8,249.1a21.4,21.4,0,0,0,1.4,7.6,96.8,96.8,0,0,0-60.1,41q-6.3-4.2-12.3-9l2.2-.4V165.8c0-2.6.1-5.2.2-7.7a104.9,104.9,0,0,0,30.1-8.3l.8,1.7v26.7a59.7,59.7,0,0,0,17.4,42.1,59.2,59.2,0,0,0,20.3,13.3Z" fill="#933f11"/><path d="M179.8,63a103,103,0,0,1-59.4,86.2l-1.1.6.8,1.7v26.7a59.7,59.7,0,0,0,17.4,42.1,60,60,0,0,0,42.1,17.5,60.4,60.4,0,0,0,21.8-4.1,59.7,59.7,0,0,0,37.8-55.5V149.3A102.6,102.6,0,0,1,179.8,63Z" fill="#f2ddc0"/><path d="M179.6,325a148.4,148.4,0,0,1-82.2-24.8A154.1,154.1,0,0,1,84.9,291h0A148.8,148.8,0,0,1,30.7,176.1C30.7,94,97.5,27.2,179.6,27.2S328.5,94,328.5,176.1A148.7,148.7,0,0,1,274.4,291a155.6,155.6,0,0,1-12.6,9.2A147.9,147.9,0,0,1,179.6,325ZM88.7,286.3a129.7,129.7,0,0,0,12.1,8.9,142.5,142.5,0,0,0,157.7,0,128.3,128.3,0,0,0,12-8.9,142.1,142.1,0,0,0,52-110.2c0-78.8-64.1-142.9-142.9-142.9S36.7,97.3,36.7,176.1a142.4,142.4,0,0,0,52,110.2Z" fill="#4f3b49"/><path d="M140.1,149.5c4.9-2.5,12.8-2.5,17.6,0" fill="none" stroke="#4f3b49" stroke-linecap="round" stroke-miterlimit="10" stroke-width="6"/><path d="M187.6,187.9a11.2,11.2,0,0,1-15.9,0" fill="none" stroke="#4f3b49" stroke-linecap="round" stroke-miterlimit="10" stroke-width="5.05"/><g opacity="0.1"><path d="M179.5,73.8h-3.6l-1.7,9.9L166,104l-19,24.5-26.6,20.7-.2,15.1c.1,0,.2,0,.2-.1A103,103,0,0,0,179.8,78Z"/></g><path d="M202.6,149.5c4.8-2.5,12.7-2.5,17.6,0" fill="none" stroke="#4f3b49" stroke-linecap="round" stroke-miterlimit="10" stroke-width="6"/><path d="M200.9,210.1a29.9,29.9,0,0,1-42.5,0" fill="none" stroke="#4f3b49" stroke-linecap="round" stroke-miterlimit="10" stroke-width="7.3"/><path d="M259.9,300.1a2.8,2.8,0,0,1-2.3-1.3c-12.9-20.1-32.3-34-54.6-39.1a3.1,3.1,0,0,1-2.2-3.6,2.9,2.9,0,0,1,3.4-2.3c23.8,5.4,44.4,20.2,58.1,41.6a3.1,3.1,0,0,1-.8,4.2A3,3,0,0,1,259.9,300.1Z" fill="#4f3b49"/><path d="M244.4,90.1c15,17.7,24.8,41.5,26.4,68a101,101,0,0,1-31.5-8.8A102.6,102.6,0,0,1,179.8,63c.1-1.4.1-2.8.2-4.2h0C205.1,58.8,227.9,70.8,244.4,90.1Z" fill="#933f11"/><path d="M98.9,300.7a2.1,2.1,0,0,1-1.5-.5,3,3,0,0,1-.8-4.1c13.7-21.8,34.4-36.8,58.5-42.3a3,3,0,0,1,3.4,2.3,3.1,3.1,0,0,1-2.2,3.6c-22.6,5.1-42.1,19.2-55,39.7A2.6,2.6,0,0,1,98.9,300.7Z" fill="#4f3b49"/><path d="M179.5,58.8l.3,4.2a103,103,0,0,1-59.4,86.2l-1.1.6a104.9,104.9,0,0,1-30.1,8.3C92.6,102.8,131.7,59.1,179.5,58.8Z" fill="#933f11"/><path d="M89,288.3V165.8c0-2.6.1-5.2.2-7.7,3.4-55.3,42.5-99,90.3-99.3h.5c25.1,0,47.9,12,64.4,31.3,15,17.7,24.8,41.5,26.4,68,.1,2.6.2,5.1.2,7.7V287.6" fill="none" stroke="#4f3b49" stroke-linecap="round" stroke-miterlimit="10" stroke-width="6"/><path d="M179.6,273.9a25.7,25.7,0,0,1-17.5-6.6,21.4,21.4,0,0,1-5.7-8,19.6,19.6,0,0,1-1.6-7.9V237.5a2.9,2.9,0,0,1,3-2.7,2.8,2.8,0,0,1,3,2.7v13.9a15.3,15.3,0,0,0,1.2,6,16.2,16.2,0,0,0,4.3,6.1,19.9,19.9,0,0,0,13.3,5c7.9,0,15-4.5,17.7-11.1a15.3,15.3,0,0,0,1.2-6V237.7a2.9,2.9,0,0,1,3-2.8,3,3,0,0,1,3,2.8v13.7a19.6,19.6,0,0,1-1.6,7.9C199.3,268,190,273.9,179.6,273.9Z" fill="#4f3b49"/><path d="M120.4,149.2l-1.1.6a104.9,104.9,0,0,1-30.1,8.3H89" fill="none" stroke="#4f3b49" stroke-linecap="round" stroke-miterlimit="10" stroke-width="6"/><path d="M120.4,149.2A103,103,0,0,0,179.8,63c.1-1.4.1-2.8.2-4.2" fill="none" stroke="#4f3b49" stroke-linecap="round" stroke-miterlimit="10" stroke-width="6"/><path d="M179.5,58.8l.3,4.2a102.6,102.6,0,0,0,59.5,86.3,101,101,0,0,0,31.5,8.8h.2" fill="none" stroke="#4f3b49" stroke-linecap="round" stroke-miterlimit="10" stroke-width="6"/><path d="M201.7,235.2l-18.6,4.7-23.1-3-2.2,12.2c.1,0,2,3.2,2,3.2,23.7,6.1,40.3-10,41-14.7A9.3,9.3,0,0,0,201.7,235.2Z" opacity="0.1"/><path d="M211.4,156.5a7.9,7.9,0,1,1-7.9,7.8A7.8,7.8,0,0,1,211.4,156.5Z" fill="#4f3b49"/><path d="M148.9,156.5a7.9,7.9,0,1,1-7.8,7.8A7.8,7.8,0,0,1,148.9,156.5Z" fill="#4f3b49"/></g><g id="Layer_2" data-name="Layer 2"><path d="M179.6,243.3a61.8,61.8,0,0,1-22.9-4.4,62.7,62.7,0,0,1-21.3-14.4,64.7,64.7,0,0,1-18.3-45.4V151.7a3,3,0,0,1,3-3.1,3.1,3.1,0,0,1,3,3.1v27.4a58.5,58.5,0,0,0,16.5,41,56.7,56.7,0,0,0,19.3,13,55.6,55.6,0,0,0,41.4,0c21.8-8.8,35.9-30,35.9-54V149.7a3.1,3.1,0,0,1,3-3.1,3,3,0,0,1,3,3.1v29.4c0,26.6-15.6,50-39.7,59.8A61.8,61.8,0,0,1,179.6,243.3Z" fill="#4f3b49"/></g></svg>