<svg xmlns="http://www.w3.org/2000/svg" width="3.7in" height="3.7in" viewBox="0 0 263.6 263.6"><title>avatar-background</title><g id="Layer_1" data-name="Layer 1"><path d="M208.9,116.6C207.6,94.2,199.3,74,186.6,59s-33.2-26.5-54.5-26.5h-.4c-40.5.2-73.6,37.2-76.4,84.1-.2,2.1-.2,4.3-.2,6.5V226.8l-1.9.3a123.5,123.5,0,1,1,157.2,0l-1.2-.9V123.1C209.2,120.9,209.1,118.7,208.9,116.6Z" fill="#f5b65f"/><path d="M209.2,226.2l1.2.9a111.7,111.7,0,0,1-10.4,7.7l-.4-.5A82,82,0,0,0,149.1,200a16.9,16.9,0,0,0,1.2-6.4V180.7h-.1a50.5,50.5,0,0,0,32-47V109.2a88.3,88.3,0,0,0,26.6,7.4c.2,2.1.3,4.3.3,6.5Z" fill="#933f11"/><path d="M199.6,234.3l.4.5a123.7,123.7,0,0,1-136.4,0A82.3,82.3,0,0,1,114.5,200a18.6,18.6,0,0,0,4.2,6.7,18.8,18.8,0,0,0,13.1,5.4A18.4,18.4,0,0,0,149.1,200,82,82,0,0,1,199.6,234.3Z" fill="#8d7689"/><path d="M150.2,182.7h0v10.9a16.9,16.9,0,0,1-1.2,6.4,18.4,18.4,0,0,1-17.3,12.1,18.8,18.8,0,0,1-13.1-5.4,18.6,18.6,0,0,1-4.2-6.7,16.9,16.9,0,0,1-1.2-6.4V183.1" fill="#f2ddc0"/><path d="M113.3,180.5a49.5,49.5,0,0,0,18.5,3.5,51,51,0,0,0,18.4-3.4" fill="#f2ddc0"/><path d="M113.3,193.6a16.9,16.9,0,0,0,1.2,6.4,82.3,82.3,0,0,0-50.9,34.8,111.7,111.7,0,0,1-10.4-7.7l1.9-.3V123.1c0-2.2,0-4.4.2-6.5a87.1,87.1,0,0,0,25.4-7.1l.7,1.5v22.6a50,50,0,0,0,31.9,46.9Z" fill="#933f11"/><path d="M131.9,36a87.3,87.3,0,0,1-50.2,73.1l-1,.4.7,1.5v22.6a50,50,0,0,0,31.9,46.9,49.5,49.5,0,0,0,18.5,3.5,50.2,50.2,0,0,0,50.4-50.4V109.2A87.2,87.2,0,0,1,131.9,36Z" fill="#f2ddc0"/><path d="M131.8,257.9a125.6,125.6,0,0,1-69.6-21,131.1,131.1,0,0,1-10.6-7.8h0A126,126,0,0,1,5.7,131.8C5.7,62.3,62.3,5.7,131.8,5.7S257.9,62.3,257.9,131.8A125.7,125.7,0,0,1,212,229.1a110.8,110.8,0,0,1-10.6,7.8A125.4,125.4,0,0,1,131.8,257.9Zm-77-32.7a121,121,0,1,0-44-93.4,121.3,121.3,0,0,0,44,93.4Z" fill="#4f3b49"/><path d="M98.3,109.3a18.6,18.6,0,0,1,15,0" fill="none" stroke="#4f3b49" stroke-linecap="round" stroke-miterlimit="10" stroke-width="5.08"/><path d="M138.5,141.8a9.5,9.5,0,0,1-13.4,0" fill="none" stroke="#4f3b49" stroke-linecap="round" stroke-miterlimit="10" stroke-width="4.28"/><g opacity="0.1"><path d="M131.7,45.2h-3.1l-1.4,8.3-6.9,17.2L104.2,91.5,81.7,109.1l-.2,12.7h.2a87.3,87.3,0,0,0,50.2-73.1C131.8,47.6,131.7,46.4,131.7,45.2Z"/></g><path d="M151.2,109.3a18.4,18.4,0,0,1,14.9,0" fill="none" stroke="#4f3b49" stroke-linecap="round" stroke-miterlimit="10" stroke-width="5.08"/><path d="M147.8,160.6c-8.9,10-23.1,10-31.9,0" fill="none" stroke="#4f3b49" stroke-linecap="round" stroke-miterlimit="10" stroke-width="5.82"/><path d="M199.8,236.8a2.4,2.4,0,0,1-2-1.1c-10.9-17-27.3-28.8-46.2-33.1a2.7,2.7,0,0,1-1.9-3,2.5,2.5,0,0,1,2.9-2c20.1,4.6,37.6,17.1,49.2,35.3a2.7,2.7,0,0,1-.7,3.5A2.2,2.2,0,0,1,199.8,236.8Z" fill="#4f3b49"/><path d="M186.6,59c12.7,15,21,35.2,22.3,57.6a88.3,88.3,0,0,1-26.6-7.4A87.2,87.2,0,0,1,131.9,36c.1-1.1.1-2.3.2-3.5h0C153.4,32.5,172.6,42.6,186.6,59Z" fill="#933f11"/><path d="M63.5,237.4a2.7,2.7,0,0,1-1.4-.5,2.5,2.5,0,0,1-.6-3.5C73.1,215,90.7,202.3,111,197.6a2.5,2.5,0,0,1,2.9,2,2.6,2.6,0,0,1-1.9,3c-19.1,4.3-35.6,16.3-46.5,33.6A2.4,2.4,0,0,1,63.5,237.4Z" fill="#4f3b49"/><path d="M131.7,32.5c0,1.2.1,2.4.2,3.5a87.3,87.3,0,0,1-50.2,73.1l-1,.4a87.1,87.1,0,0,1-25.4,7.1C58.1,69.7,91.2,32.7,131.7,32.5Z" fill="#933f11"/><path d="M55.1,226.8V123.1c0-2.2,0-4.4.2-6.5,2.8-46.9,35.9-83.9,76.4-84.1h.4c21.3,0,40.5,10.1,54.5,26.5s21,35.2,22.3,57.6c.2,2.1.3,4.3.3,6.5V226.2" fill="none" stroke="#4f3b49" stroke-linecap="round" stroke-miterlimit="10" stroke-width="5.08"/><path d="M131.8,214.6a22.1,22.1,0,0,1-14.9-5.5,18.3,18.3,0,0,1-4.8-6.9,16.5,16.5,0,0,1-1.3-6.6V183.8a2.4,2.4,0,0,1,2.5-2.3,2.5,2.5,0,0,1,2.6,2.3v11.8a14.3,14.3,0,0,0,.9,5,13.8,13.8,0,0,0,3.7,5.2,16.8,16.8,0,0,0,11.3,4.2c6.6,0,12.6-3.7,15-9.4a14.4,14.4,0,0,0,1-5V183.9a2.5,2.5,0,0,1,5,0v11.7a16.5,16.5,0,0,1-1.3,6.6C148.5,209.7,140.5,214.6,131.8,214.6Z" fill="#4f3b49"/><path d="M81.7,109.1l-1,.4a73.4,73.4,0,0,1-23.8,6.8c0,.1.1,0,0,0" fill="none" stroke="#4f3b49" stroke-linecap="round" stroke-miterlimit="10" stroke-width="5.08"/><path d="M81.7,109.1A87.3,87.3,0,0,0,131.9,36c.1-1.1.1-2.3.2-3.5" fill="none" stroke="#4f3b49" stroke-linecap="round" stroke-miterlimit="10" stroke-width="5.08"/><path d="M131.7,32.5c0,1.2.1,2.4.2,3.5a87.2,87.2,0,0,0,50.4,73.2,77.2,77.2,0,0,0,24.8,7.2h0" fill="none" stroke="#4f3b49" stroke-linecap="round" stroke-miterlimit="10" stroke-width="5.08"/><path d="M150.5,181.9l-15.8,4-19.5-2.6-1.9,10.3c.1,0,1.7,2.7,1.7,2.7,20.1,5.2,34.1-8.4,34.7-12.4A9.8,9.8,0,0,0,150.5,181.9Z" opacity="0.1"/><path d="M158.7,115.2a6.7,6.7,0,1,1-6.7,6.6A6.7,6.7,0,0,1,158.7,115.2Z" fill="#4f3b49"/><path d="M105.8,115.2a6.7,6.7,0,0,1,0,13.3,6.7,6.7,0,1,1,0-13.3Z" fill="#4f3b49"/></g><g id="Layer_2" data-name="Layer 2"><path d="M131.8,188.7a51.5,51.5,0,0,1-19.4-3.7,54.1,54.1,0,0,1-18.1-12.2,54.8,54.8,0,0,1-15.5-38.5V111.1a2.6,2.6,0,0,1,2.6-2.6,2.6,2.6,0,0,1,2.5,2.6v23.2a49.7,49.7,0,0,0,14,34.8,48.4,48.4,0,0,0,16.3,11,47,47,0,0,0,35.1,0c18.5-7.4,30.4-25.4,30.4-45.8V109.4a2.6,2.6,0,0,1,2.5-2.6,2.6,2.6,0,0,1,2.6,2.6v24.9c0,22.6-13.2,42.4-33.6,50.7A51.5,51.5,0,0,1,131.8,188.7Z" fill="#4f3b49"/></g></svg>