<svg xmlns="http://www.w3.org/2000/svg" width="26.3in" height="1200" viewBox="0 0 1893.8 900"><defs><linearGradient id="a" x1="515.3" x2="1892.31" y1="450.49" y2="450.49" gradientUnits="userSpaceOnUse"><stop offset="0" stop-color="#e8e7e8"/><stop offset=".16" stop-color="#e8e5e4"/><stop offset=".33" stop-color="#eae1d6"/><stop offset=".51" stop-color="#ecd9c0"/><stop offset=".7" stop-color="#efcea2"/><stop offset=".89" stop-color="#f2c07b"/><stop offset="1" stop-color="#f5b65f"/></linearGradient></defs><path fill="url(#a)" d="M1892.3 319.4v-55.5h-.1c0-.1-.1-.2-.1-.3h-.1c-.1-.1-.1-.1-.1-.2l-.3-.2h-.1l-91.4-52.8h-1l-.5.2-91 52.6-90.1-52v-52c-.1 0-.1-.1-.1-.2a.3.3 0 0 1-.1-.2v-.2h-.3l-.2-.2-43.4-24.5 43.4-23.9a1.3 1.3 0 0 0 .8-1.3V53.3c0-.2 0-.3-.1-.4v-.2c-.1 0-.1-.1-.1-.2a.1.1 0 0 1-.1-.1l-.2-.2-.2-.2h-.1L1525.3-.8h-1l-.5.2-91.7 53a1.4 1.4 0 0 0-.8 1.3v158.1l-90.6 52.4-90-51.9v-52c0-.1-.1-.1-.1-.2v-.2h-.1c0-.1-.1-.1-.1-.2h-.3l-43.4-24.6L1250 111a1.7 1.7 0 0 0 .7-1.3V54.2c0-.1-.1-.1-.1-.2s0-.1-.1-.2v-.2h-.1c-.1-.1-.2-.1-.2-.2h-.1L1158.5.5l-.3-.2h-.6l-.6.2-91 52.6L975.4.8h-1.5l-91.7 53a1.7 1.7 0 0 0-.7 1.3v158.5l-90.3 52.2-89.1-51.4a1.9 1.9 0 0 0 .2-.8v-53.3h-.3v-.3h-.3l-43.4-24.6 43.3-23.8a1.6 1.6 0 0 0 .8-1.3V54.5a.1.1 0 0 1-.1-.1c0-.1 0-.2-.1-.2s-.1-.1-.1-.2a.1.1 0 0 1-.1-.1l-.3-.2L610.1.8h-.1a1.4 1.4 0 0 0-1.1-.1h-.3l-91.7 53a1.7 1.7 0 0 0-.7 1.3v158.6a1.4 1.4 0 0 0 .7 1.3l89.8 52.4a4.3 4.3 0 0 0-.1.5v158.5L516 478.7a1.7 1.7 0 0 0-.7 1.3v158.5a1.4 1.4 0 0 0 .7 1.3l91.7 53.5h1.5l91.5-53.5a1.3 1.3 0 0 0 .7-1.3v-52.9c0-.1-.1-.1-.1-.2a.3.3 0 0 0-.1-.2.1.1 0 0 0-.1-.1c0-.1-.1-.1-.1-.2h-.3l-43.4-24.6 43.4-23.8a1.7 1.7 0 0 0 .7-1.3v-54.7l89.9-52.4 90.7 52.8h.2c.1 0 .1 0 .1.1h.8a.1.1 0 0 1 .1-.1h.3l91.4-53.4a1.6 1.6 0 0 0 .8-1.3v-52.6c0-.1-.1-.1-.1-.2v-.4l-.2-.2v-.2a.1.1 0 0 1-.1-.1h-.2l-43.4-24.6 43.4-23.8a1.3 1.3 0 0 0 .8-1.3v-54.7l90.7-53 89.9 52.5v157.2a1.7 1.7 0 0 0 .7 1.3l91.1 53.1v156.4a1.4 1.4 0 0 0 .7 1.3l91.7 53.5h1.5l91.2-53.3 90 52.4v157.6a1.5 1.5 0 0 0 .7 1.3l91.7 53.4h1.5l91.4-53.4a1.6 1.6 0 0 0 .8-1.3v-53.2c-.1 0-.1-.1-.1-.2h-.1c-.1-.1-.1-.1-.1-.2h-.4l-43.4-24.6 43.4-23.8a1.6 1.6 0 0 0 .8-1.3v-54l90.7-53a1.3 1.3 0 0 0 .7-1.3v-53.2c0-.1-.1-.1-.1-.2a.3.3 0 0 0-.1-.2.1.1 0 0 0-.1-.1c0-.1-.1-.1-.1-.2h-.2a.1.1 0 0 0-.1-.1l-43.4-24.6L1800 533a1.7 1.7 0 0 0 .7-1.3v-54.3l90.9-53.1a1.7 1.7 0 0 0 .7-1.3v-53a.1.1 0 0 1-.1-.1v-.2c0-.1-.1-.1-.1-.2h-.3c0-.1-.1-.1-.1-.2h-.1l-43.3-24.5 43.3-23.9a1.3 1.3 0 0 0 .7-1.5zM881.2 477l-88.4-51.5v-51.8h-.1v-.3a.1.1 0 0 0-.1-.1v-.3a.1.1 0 0 1-.1-.1v-49.1l42.9 24.8v51a1.3 1.3 0 0 0 .7 1.3l45.1 26.1zm232.2-339.6l40.9 23.1-40.9 23.2zm19.3-66.3l25.1-14.2 18.8 10.6 23.8 13.6-42.6 25.5-42.9-25.5zm26.6 87v-47.2l41.2 23.9zm-1.9 4.1l42.7 24.7-42.2 24.2-42.9-24.9zm-1.1-4.1l-41.3-23.3 41.3-23.9zm251.5 123.8l25.2-14.2 19.4 11.1 23.2 13.1-42.6 25.6-42.9-25.6zm69.5-96a1.5 1.5 0 0 0 .7 1.2l45 26v49.7l-88.7-51.7V109.7l42.9 24.7v51a.7.7 0 0 0 .1.5zm22.1-116.1l25.1-14.2 19.4 11 23.3 13.2-42.7 25.5-42.8-25.5zm159.5 221.3l-42.7 25.5-42.8-25.5 17.7-10 25.1-14.2 18.8 10.6zm-412.4 28.8l-41.4 23.8v-48.5zm279.5-163v-47.2l41.2 23.8zm-1.4 4.6l42.3 24.4-42.4 24.4-42.5-24.7zm88.7 156.8l-41.4 23.9v-48.5zm138.7 78.2v.2a.1.1 0 0 1 .1.1.4.4 0 0 0 .1.3c.1.1.1.2.2.2s0 .1.1.1.1.2.3.3l45.1 26.1v49.9l-88.7-51.7V320.7l42.8 24.7zm-91.1 105.4l-.2.2v.2a.3.3 0 0 0-.1.2v.2a.3.3 0 0 0-.1.2v51.2l-13.4-7.8-29.4-16.9v-51.8l7.9-4.6 80.8-46.7v50l-45.1 25.4zM1387 555.5l-42.7-24.8 86.9-51.1v51.6zm-91.4-158.9L1253 372l1.4-.8 40.8-23.1 42.7 24.1zm-44.6-26.9v-47.2l41.2 23.8zm178.3 107.5l-42.4 24.5-44.1-25v-50zm49.4-133.3l-42.8-24.7 87-51.2v51.7zM1523 323v46.1l-41.2-23.4zm3 99.4V321l42.9 24.7V397a.4.4 0 0 1 .1.3.1.1 0 0 1 .1.1c0 .1.1.1.2.2l.3.2 45.1 26.2v50l-18.4-10.6zm90.2-50l41.6 24.1 1 .6-42.6 24.5-29.7-17.3-13.1-7.5zm-90 160.5l9.6 5.6 31.6 18.3-41.2 23.3zm44.2 22.2l-7.9-4.6-34.9-20.2 87-51.1v51.6zm47.3-81v-49.9l45-25.8 43.5-25.1v49.1l-82.1 48zm44.1-78.8l-22.1-12.8-20.5-11.8 42.7-24.1 42.7 24.1zm-44.1-27.2V321l41.2 23.8zm-3 .1l-41.3-23.4 41.3-23.8zm-1.5 2.5l-41.3 23.5v-46.8zm-137.5-25l-41.2 23.3v-47.2zm-39.7 25.9l1.2-.7 41.5-23.5 42.7 24.2-42.8 24.6-22.2-12.8zm177 105l-42.7 24.7-44.1-25v-50l68.6 39.7zm1.6 57.6v45.9l-41.1-23.3zm91.6-166.1l-41.2-23.3 41.2-22.5zm-271.7-102.9v-50l86.9 50.2-42.8 24.8zm-1.5 108.1l41.6 24 1 .6-42.6 24.5-29.8-17.2-13.1-7.6zm-47.4 24.3v.4c0 .1 0 .2.1.2l.2.3h.1l.3.3 45.1 26.1v49.5l-88.7-51.2V321.8l42.8 24.7zm-45.8-27.7l-41.5-23.5 41.5-22.8zm-.4-49.6l-44.2 24.3-42.7-24.7 86.9-51.2zm-91.4 2.2v47.2l-41.3-23.4zm1.1 51.2l42.7 24.7-42.3 24.2-42.8-24.8zm1.9 52l44.5-25.6.4-.2 43.5-25.1v48.7l-88.4 51.1zm90.3 53.6l23 13 19.6 11.1-42.6 25.6-42.9-25.6zm-1.5 101.2l-41.3-23.3 41.3-23.9zm3-47.2l41.2 23.9-41.2 23.3zm88.7 1.2v46.1l-41.4-23.4zm3-60.4V425l44.9-25.7 43.5-25.1V423zm90.2 4.8l23.9 13.6 18.7 10.5-42.6 25.6-42.9-25.6zm-1.5 101.2l-41.4-23.3 41.4-23.9zm4.5 2.6l42.7-24.2 42.7 24.2-42.8 24.6-37.1-21.4zm88.6 108l23.1 13 19.6 11.1-42.7 25.6-42.8-25.6zm1.5-2.6v-50l27.3 15.8 59.4 34.6-42.6 24.6zm28.8-36.8l-29-16.9V532.9l13.5 7.8 29.3 17v51c0 .1.1.2.1.3 0 .1.1.2.1.3a1.7 1.7 0 0 0 .6.6l45.1 26.1v49.6zm16.8-91.9l41.3 23.3-41.3 23.4zm1.6-2.6l41.3-23.9v47.2zm-1.6-2.6v-48.6l41.4 24.7zm44.4-75.3l23 13 19.6 11.1-42.6 25.6-42.9-25.6zm1.5-2.6v-50l86.9 50.2-42.8 24.8zm47.2-79.8l42.9-24.3 42.6 24.6-42.6 24.5-29.2-16.9zm44.4-28.6v-47.2l41.2 23.8zm-3 0l-41.4-23.4 41.4-23.8zm-1.6 2.5l-41.3 23.5v-46.8zm-90.1-52.3v.7l-44.2 24.3-42.8-24.8 87-51.1zm-91.5-53.8l-45.1 25.4-.3.3a.2.2 0 0 0-.2.2h-.1c0 .1 0 .2-.1.2V342l-42.9-24.5v-51.2l88.7-51.8zM1523 156.9l-41.3-23.4 41.3-23.8zm-1.2 2.7l-41.6 23.6v-47.1zM1431.5 369l-41.4-23.3 41.4-23.9zm-1.6 2.6l-41.3 23.4v-46.8zm-223.3-79l17.7-10 25.2-14.2 42.6 24.2-42.6 25.5zm41.4-76.7v49.9l-45.1 25.5-.3.2a.1.1 0 0 0-.1.1l-.2.2a.4.4 0 0 0-.1.3v51.3l-42.9-24.4v-51.4l64.1-37.5zm-42.9 133L1246 372l-40.9 23.2zm46.2 131.3l41.2 23.8-41.2 23.4zm1.9-2.4l86.6-50.6v49.5l-44.8 25.2zm85.1 52.9l-41.4 23.9V506zm-41.4 29.1l41.3 23.3-41.3 23.4zm1.6 49.3l42.8-24.3 41.6 24 1 .6-42.6 24.5-.9-.5zm88.4-1.4l-37.1-21.4-5.5-3.2 42.7-24.2 42.7 24.2zm134.8-77.4l-41.4 23.9v-48.6zm-41.4 29.1l41.3 23.3-41.3 23.4zm1.5 49.3l42.8-24.3 41.6 24 1.1.6-42.6 24.5-.4-.2zm44.4 77.2v-49.8l44.9-25.7 43.5-25.1v49.1l-69 40.3zm87.2 56.2L1572 766v-48.5zm1.4 49.8l-41.3-23.3 41.3-23.9zm-42.8-20.7l41.3 23.3-41.3 23.4zm87 49.6l-42.7 24.5-.9-.5-41.9-24.3 42.8-24.3 41.6 24zm91.4-211.8l-42.6 24.5-.9-.5-41.9-24.3 42.8-24.3 41.6 24zm23.8-328.2l25.2-14.2 19.4 11 23.2 13.2-42.6 25.5-42.9-25.5zm22.2 37.3l-41.4 23.8v-48.5zm-181.9-107l-88.5 51.1v-49l45.1-25.8a1.4 1.4 0 0 0 .6-.7l42.8-24.7zm-44.3-27.1l-42.6-24.6 42.7-24.1 42.7 24.1zm-48.6-77l-41.4 23.9V82.4zM1430 319.2l-41.4 23.9v-48.6zm-182.3-106.8l-25.8 15.1-62.6 36.2v-49.6l44.5-25.5.5-.2 43.4-25.1zm-43.8-27.4l-42.6-24.5 42.2-24 42.7 24.2zm-49.1-76.7l-41.4 23.9V83.7zM564.1 562.6l40.9 23.2-40.9 23.2zm28.8-71.7l15.6-8.7 42.6 24.1-42.6 25.6-42.9-25.6zm60.3-89.8l45.1 26.1v49.9l-88.7-51.7V324l42.9 24.7v51.1a1.7 1.7 0 0 0 .7 1.3zm89.2-107l-42.6 25.5-42.8-25.5 7.3-4.1 35.5-20.1 19.4 11zm-45.5 27.3l-41.4 23.8v-48.5zm4.4 49.8V324l41.2 23.8zm-3 0L657 347.8l41.3-23.8zm1.1 4l42.7 24.7-42.2 24.2-42.8-24.8zm-3-1.7l-40.9 23.2v-46.3zm49.5 24.6l-42.6-24.6 42.2-23.9 42.7 24.1zm43.6-27.1l-40.9-23.1 40.9-22.5zm0-49.8v.8l-43.9 24.1-42.8-24.7 86.7-51zm-91.2-53.9l-45.1 25.5-.3.2a.1.1 0 0 1-.1.1c0 .1-.1.1-.1.2h-.1a.4.4 0 0 1-.1.3v51.3l-42.9-24.7v-51.5l88.7-51.3zM610 479.6v-50l86.9 50.2-42.8 24.8zm-1.9 107.9l42.7 24.6-42.2 24.2-42.9-24.8zm-1.1-4.1l-41.3-23.3 41.3-23.9zm275.3-208.3l42.7 24.7-42.2 24.2-42.9-24.8zm1.9-4.1v-47.2l41.2 23.9zm-3 0l-41.3-23.3 41.3-23.9zm-1.9 2.4l-40.9 23.2v-46.3zm-22.1-89.2l25.5-14.4 18.8 10.6 23.8 13.6-42.6 25.5-42.8-25.5zm70.9-95.9l45.1 26.1v50l-88.7-51.7V111.2l42.8 24.8v51a1.6 1.6 0 0 0 .8 1.3zm21.1-116.8l25.5-14.3 18.7 10.6 23.9 13.5-42.6 25.6-42.9-25.6zm27 39.7l41.2 23.9-41.2 23.3zm-1.9 51.3l42.7 24.7-42.3 24.1-42.8-24.8zm90.3-54.2v.8l-44.2 24.3-42.8-24.8 87-51.1zm0 4.2v45.9l-41.1-23.3zm-91.4 45.9l-41.4-23.3 41.4-23.9zm-2 2.4L930.3 184v-46.3zm-87 106.4v-49.9l87 50.2-42.9 24.7zm136.5-81.9l-42.6-24.6 1.5-.8 40.8-23.1 42.7 24.2zm-49-76.7l-41.4 23.9V84zm-92 212.6l-41.3 23.9v-48.5zM699.3 212.8l-88.4 51.7v-50l44.5-25.6h.4l43.5-25.1zm-134.3-75l40.9 23.1-40.9 23.2zm14-63.4l30.4-17.1L652 81.4 609.4 107l-42.9-25.6zm30 88.2l42.7 24.6-42.3 24.2-42.8-24.8zm1.9-4.1v-47.2l41.2 23.9zm-3 0l-41.4-23.3 41.4-23.9zm47.5 26.9l-42.6-24.6 24.1-13.6 18.2-10.3 42.7 24.2zm-49-76.7L565 132.6V84zm-.9 424.9l-41.4 23.9v-48.6zm49.1 76.7L612 585.7l42.2-23.9 42.7 24.2zm-3.4-50.2L610 583.4v-47.2l31.5 18.2zm50.1-132.9l44.5-25.6.5-.2 43.2-24.9v49.1l-88.2 51.5zM928.8 398l-42.6-24.6 42.2-24 42.7 24.2zM1252 530.4l41.9-23.7v47.9l-16.3-9.4zm182.5-.9v-51.1l88.7-51.8v49.7l-45.1 25.4-.3.2a.1.1 0 0 0-.1.1l-.2.2v.2c-.1 0-.1.1-.1.2v51.6l-14.6-8.4zm91.7 211.8v-51.8l20.8-12.2 67.8-39.2v50l-45 25.4-.4.2-.2.3c-.1.1-.1.1-.1.2s-.1.1-.1.2V766l-14.6-8.4zm135.8 77.8l-37.1-21.4-5.5-3.2 42.7-24.2 42.7 24.2zm-3-50.5l-41.2 23.3v-47.2l9.7 5.6zm94.4-161.3l-37-21.4-5.6-3.2 42.7-24.2 42.7 24.2zm-2.9-50.5l-41.2 23.3v-47.2l9.6 5.6zM1845 395l-24.7-14.2-17.9-10.4 42.7-24.1 42.7 24.1zm0-106l-44.1-25v-49.9l86.9 50.2zm-47.1-25l-45.1 25.4-.3.3c-.1 0-.1 0-.1.1s-.1.1-.2.2a.4.4 0 0 0-.1.3.1.1 0 0 1-.1.1v51.3l-42.8-24.7v-51.6l88.7-51.3zm-136.1 25.3l-44.1-25v-49.9l87 50.2zm-47.3-181.8l-44.2 24.3-42.8-24.7 87-51.2zM1570.1 78L1526 53V3.1l87 50.2zm-135.8-23.7L1523 3.1V53l-45 25.4-.4.3a.2.2 0 0 0-.2.2h-.1c0 .1 0 .2-.1.2v51.6l-42.9-24.7zm-91.5 212.2l88.7-51.3v49.9l-45.1 25.5-.3.2h-.1l-.2.2v.2c-.1 0-.1.1-.1.2v.2c-.1 0-.1.1-.1.2V343l-42.8-24.8zm-47.7 24.3l-44.1-25v-49.9l86.9 50.2zm-47.4-182l-44.2 24.3-42.7-24.8 86.9-51.1zm-44.3-29.5l-44.1-25V4.4l86.9 50.2zm-47.1-25l-45.1 25.4-.3.3h-.1v.3a.1.1 0 0 0-.1.1v.4c0 .1-.1.1-.1.2v51.2l-42.8-24.7V55.6l88.7-51.2zm-136 25.3l-44.1-25v-50l86.9 50.2zM884.5 55.9l88.7-51.3v50L928.1 80l-.3.2h-.1l-.2.3c-.1.1-.1.1-.1.2v51.6l-42.8-24.7zm-3.3 211.3l-45.1 25.4-.3.3h-.1c0 .1-.1.2-.1.3a.1.1 0 0 0-.1.1v51.8l-42.6-24.6v-52.1l88.4-51.1zm-135.8 25.1l-44.1-25v-49.9l87 50.2zm-46.1-183.1l-44.2 24.3-12.6-7.3-30.2-17.5 87-51.1zM655 79.7l-44.1-25v-50l86.9 50.2zM519.2 56l88.7-51.3v50l-45.1 25.4-.3.2h-.1l-.2.2v.2c-.1 0-.1.1-.1.2v.2c-.1 0-.1.1-.1.2v51.2l-42.8-24.8zm0 55.3L562 136v51.1a1.6 1.6 0 0 0 .8 1.3l45.1 26.1v50l-88.7-51.7zm-.9 369.6l88.7-51.3v50L561.9 505l-.3.2a.1.1 0 0 1-.1.1c0 .1-.1.1-.1.2h-.1v.3c0 .1-.1.2-.1.3v51.2l-15.8-9.2-27-15.6zm0 55.3l15.9 9.2 26.9 15.5V612a1.6 1.6 0 0 0 .8 1.3l45.1 26.1v50l-88.7-51.7zM610 689.4v-50l44.5-25.6h.5l43.4-25.1v49.1zm88.4-155.3l-44.2 24.3-39.8-23.1-2.9-1.7 86.9-51.1zM884.2 477v-50l44.5-25.5.5-.2 43.5-25.1v49.1zm88.5-155.3L928.5 346l-42.8-24.8 87-51.1zm3.5-107.3l44.4-25.5.5-.2 43.5-25.1v49.1l-88.4 51.7zm91.4-53.4v-50.1l42.8 24.8v51a1.4 1.4 0 0 0 .8 1.3l45.1 26.1v50l-88.7-51.7zm91.7 161.5l42.8 24.7v51.1a1.6 1.6 0 0 0 .8 1.3l45.1 26.1v49.9l-88.7-51.7zm91.8 210.8l16.3 9.4 26.5 15.3v51.1a.3.3 0 0 0 .1.2v.2c0 .1.1.2.1.3a1.7 1.7 0 0 0 .6.6l45.1 26.1v50l-88.7-51.7zm91.7 153.2v-50l44.9-25.7h.1l43.4-25.1v49.1zm91.7-153.6l14.6 8.5 28.2 16.3V609c.1 0 .1 0 .1.1a.4.4 0 0 0 .1.3.9.9 0 0 0 .6.6l45.1 26.1v50l-88.7-51.7zm91.7 211.8l14.6 8.5 28.2 16.3v51.3a.1.1 0 0 0 .1.1.4.4 0 0 0 .1.3 1.2 1.2 0 0 0 .5.5l45.1 26.1v50l-88.6-51.7zm91.6 153.2v-50l45-25.7 43.5-25.1v49.1zm88.5-155.3l-44.2 24.3-7.9-4.6-34.9-20.2 87-51.1zm3-56.5v-50l45-25.7 43.4-25.1v49.1zm88.4-155.3l-44.2 24.3-7.9-4.6-34.8-20.2 86.9-51.1zm3.2-57v-49.9l44.9-25.8 43.5-25.1v49.1zm88.4-155.3l-44.2 24.3-42.8-24.7 87-51.2z"/></svg>