<svg id="Layer_2" data-name="Layer 2" xmlns="http://www.w3.org/2000/svg" xmlns:xlink="http://www.w3.org/1999/xlink" width="5.4in" height="2.6in" viewBox="0 0 390.7 189.9"><defs><linearGradient id="linear-gradient" x1="190.78" y1="69.56" x2="383.72" y2="69.56" gradientUnits="userSpaceOnUse"><stop offset="0" stop-color="#e8e7e8"/><stop offset="0.16" stop-color="#e9e6e4"/><stop offset="0.34" stop-color="#ebe3d6"/><stop offset="0.53" stop-color="#efdfc0"/><stop offset="0.72" stop-color="#f4d8a2"/><stop offset="0.91" stop-color="#fbd07b"/><stop offset="1" stop-color="#fc6"/></linearGradient></defs><title>background</title><path d="M383.7,51.2V43.5h-.1l-12.8-7.4h-.2l-12.8,7.4L345.2,36V28.8h-.1L339,25.1l6.1-3.3c.1,0,.1-.1.1-.2V13.9h-.1L332.3,6.3h-.2l-12.9,7.4a.3.3,0,0,1-.1.2V36.1l-12.7,7.4-12.6-7.3V29h-.1l-6.1-3.5,6.1-3.3c.1,0,.1-.1.1-.2V14.1h-.1L280.9,6.5h-.2l-12.8,7.4L255.2,6.5H255L242.2,14h-.1V36.4h0l-12.7,7.3L217,36.5h0V29h-.1l-6.1-3.4,6.1-3.4h.1V14.1h-.1L204.1,6.6h-.2L191,14c-.1,0-.1.1-.1.2V36.4a.3.3,0,0,0,.1.2l12.6,7.3h0V66.2h0l-12.7,7.3c-.1,0-.1.1-.1.2V96.1l12.8,7.5h.2l12.9-7.5V88.5h-.2l-6-3.5,6-3.3.2-.2V73.8l12.5-7.4,12.7,7.4h.3l12.8-7.5a.3.3,0,0,0,.1-.2V58.8h-.1l-6.1-3.4,6.1-3.4a.3.3,0,0,0,.1-.2V44L268,36.6l12.6,7.3V66h.1l12.8,7.5V95.7l12.8,7.5h.2l12.8-7.5,12.6,7.4v22c0,.1,0,.2.1.2l12.8,7.5h.3l12.8-7.5a.3.3,0,0,0,.1-.2v-7.3H358l-6.1-3.5,6.1-3.3a.3.3,0,0,0,.1-.2v-7.5l12.7-7.5V88.1h-.1l-6.1-3.4,6.1-3.4V73.3l12.7-7.4V58.3h-.1l-6.1-3.5,6.1-3.3ZM242,73.3,229.7,66V58.8h-.1V51.8l6,3.5v7.1a.3.3,0,0,0,.1.2l6.3,3.7Zm32.6-47.6,5.7,3.2-5.7,3.3Zm2.7-9.3,3.5-2,2.6,1.5,3.4,1.9-6,3.6-6-3.6ZM281,28.6V22l5.8,3.3Zm-.3.6,6,3.4L280.8,36l-6-3.5Zm-.1-.6-5.8-3.3,5.8-3.3Zm35.2,17.3,3.6-1.9,2.7,1.5,3.2,1.8-5.9,3.6-6-3.6Zm9.8-13.4c0,.1,0,.1.1.1l6.3,3.7v7L319.5,36V21.8l6.1,3.5v7.1Zm3.1-16.3,3.5-2,2.7,1.6,3.3,1.8-6,3.6-6-3.6Zm22.3,31-6,3.6-6-3.6,2.5-1.4,3.5-2,2.7,1.5Zm-57.8,4.1-5.8,3.3V47.8Zm39.2-22.9V21.8l5.8,3.3Zm-.2.7,5.9,3.4-5.9,3.4-6-3.5ZM344.6,51l-5.8,3.4V47.6Zm19.5,11h0a.1.1,0,0,0,.1.1l6.3,3.6v7l-12.4-7.2V51.4l6,3.4ZM351.3,76.8h0c-.1,0-.1,0-.1.1h0v7.2L349.3,83l-4.1-2.4V73.4l1.1-.7,11.4-6.5v7l-6.4,3.5Zm-38.4,7.5-6-3.5,12.2-7.2v7.3ZM300.1,62l-6-3.4.2-.2,5.8-3.2,5.9,3.4Zm-6.2-3.8V51.6l5.7,3.4Zm24.9,15.1-5.9,3.4-6.2-3.5v-7Zm7-18.7-6-3.4L332,44v7.2Zm6.2-2.9v6.4l-5.8-3.2Zm.4,13.9V51.4l6,3.5V62h0a.1.1,0,0,0,.1.1h0l6.3,3.7v7l-2.6-1.5Zm12.6-7,5.9,3.4h.1l-6,3.4-4.1-2.4L339,62ZM332.4,81.1l1.4.8,4.4,2.5-5.8,3.3Zm6.2,3.1-1.1-.6-4.9-2.9,12.2-7.1v7.1h0Zm6.6-11.3v-7l6.3-3.6h0l6.1-3.6v6.9l-11.5,6.7Zm6.2-11.1L348.3,60l-2.8-1.6,5.9-3.4,6,3.4ZM345.2,58V51.4l5.8,3.3Zm-.4,0L339,54.7l5.8-3.3Zm-.2.4-5.8,3.3V55.1Zm-19.3-3.5-5.7,3.2V51.5Zm-5.5,3.6h.2l5.8-3.3,5.9,3.4-6,3.4-3.1-1.7Zm24.8,14.7-6,3.5-6.2-3.5v-7l9.6,5.5Zm.2,8.1v6.4L339,84.5ZM357.6,58l-5.7-3.2,5.7-3.2Zm-38-14.4v-7l12.1,7-6,3.5Zm-.2,15.1,5.8,3.4h.1l-5.9,3.4-4.2-2.4-1.8-1.1Zm-6.7,3.4h.1l6.3,3.7v6.9l-12.4-7.2V51.5l6,3.5Zm-6.4-3.8L300.5,55l5.8-3.2Zm-.1-7-6.1,3.4-6-3.4,12.1-7.2Zm-12.8.3v6.6L287.6,55Zm.2,7.2,6,3.5-5.9,3.3-6-3.4Zm.3,7.3,6.2-3.6h.1l6-3.5v6.8l-12.3,7.1Zm12.6,7.5,3.2,1.8,2.8,1.6-6,3.6-6-3.6Zm-.2,14.2-5.8-3.3,5.8-3.3Zm.4-6.6,5.8,3.3-5.8,3.3Zm12.4.1v6.5l-5.8-3.3Zm.5-8.4V66l6.3-3.6h0l6.1-3.5v6.8Zm12.6.6,3.4,1.9,2.6,1.5-6,3.6-6-3.6ZM332,87.7l-5.8-3.3,5.8-3.3Zm.6.4,6-3.4,6,3.4-6,3.4-5.2-3ZM345,103.2l3.3,1.8,2.7,1.6-6,3.6-6-3.6Zm.3-.4v-7l3.8,2.3,8.3,4.8-6,3.4Zm4-5.1-4.1-2.4V81.1l1.9,1.1,4.1,2.4v7.1h.1l6.4,3.7v6.9Zm2.3-12.9,5.8,3.3-5.8,3.3Zm.3-.4,5.8-3.3v6.6Zm-.3-.3V77.3l5.8,3.4Zm6.3-10.6,3.2,1.9,2.7,1.5-5.9,3.6-6-3.6Zm.2-.3v-7l12.2,7-6,3.5ZM364.7,62l6-3.4,6,3.4-6,3.5-4.1-2.4Zm6.2-4V51.4l5.8,3.3Zm-.4,0-5.8-3.3,5.8-3.3Zm-.2.3-5.8,3.3V55.1ZM357.6,51h0l-6.2,3.4-6-3.5,12.2-7.1Zm-12.8-7.5L338.5,47h-.1v7.2l-6-3.5V43.7l12.4-7.2ZM332,28.4l-5.8-3.3,5.8-3.3Zm-.2.4L326,32.1V25.5ZM319.1,58.1l-5.7-3.2,5.7-3.4Zm-.2.4-5.8,3.3V55.2ZM287.6,47.4l2.5-1.4,3.5-2,6,3.4-6,3.6Zm5.8-10.7v7l-6.3,3.5H287v7.2l-6-3.5V43.9l9-5.2Zm-6,18.6,5.8,3.3-5.8,3.2Zm6.5,18.4,5.8,3.4-5.8,3.2Zm.3-.3,12.1-7.1v6.9L300,76.8Zm11.9,7.4-5.8,3.3V77.3Zm-5.8,4.1,5.8,3.2-5.8,3.3Zm.2,6.9,6-3.4,5.8,3.3h.2l-6,3.5h-.1Zm12.4-.2-5.2-3-.8-.5,6-3.4,6,3.4Zm18.9-10.9L326,84.1V77.3ZM326,84.8l5.8,3.3L326,91.4Zm.2,6.9,6-3.4,5.8,3.4h.2l-6,3.4h-.1Zm6.2,10.8V95.6l6.3-3.6h0l6.1-3.6v6.9l-9.7,5.7Zm12.2,7.9-5.8,3.4V107Zm.2,7-5.8-3.3,5.8-3.3Zm-6-2.9,5.8,3.3-5.8,3.2Zm12.2,6.9-6,3.5h-.1l-5.9-3.4,6-3.4,5.9,3.4Zm12.8-29.6-5.9,3.4h-.2l-5.8-3.4,6-3.4,5.8,3.4Zm3.4-46,3.5-2,2.7,1.5,3.3,1.9-6,3.6-6-3.6Zm3.1,5.2-5.8,3.3V47.5ZM344.8,36l-12.4,7.2V36.3l6.3-3.6h.1l6-3.5Zm-6.2-3.8-6-3.4,6-3.4,6,3.4Zm-6.8-10.8L326,24.8V18ZM318.9,51.2l-5.8,3.3V47.7Zm-25.5-15-3.6,2.1L281,43.4v-7l6.2-3.5a.1.1,0,0,0,.1-.1l6.1-3.5Zm-6.1-3.8-6-3.5,5.9-3.3,6,3.4Zm-6.9-10.8L274.6,25V18.2ZM197.6,85.3l5.8,3.2-5.8,3.3Zm4.1-10.1,2.1-1.2,6,3.4-6,3.6-6-3.6Zm8.4-12.6,6.3,3.7v7L204,66V51.8l6,3.5v7.1C210,62.5,210,62.6,210.1,62.6Zm12.5-15-6,3.6-6-3.6,1-.5,5-2.8,2.7,1.5Zm-6.4,3.9-5.8,3.3V48Zm.6,6.9V51.8l5.8,3.4Zm-.4,0-5.8-3.2,5.8-3.4Zm.2.6,6,3.5-6,3.4-6-3.5Zm-.5-.2L210.4,62V55.5Zm7,3.4-6-3.4,5.9-3.4,6,3.4Zm6.1-3.8-5.7-3.2,5.7-3.2Zm0-7h0L223,54.9l-6-3.4,12.2-7.2Zm-12.8-7.5-6.3,3.6H210v7.2l-6-3.5V44.1l12.4-7.2ZM204,73.6v-7l12.2,7.1-6,3.4Zm-.2,15.1,6,3.5-6,3.4-6-3.5Zm-.2-.5-5.8-3.3,5.8-3.3ZM242.2,59l6,3.5-5.9,3.3-6-3.4Zm.3-.6V51.8l5.7,3.4Zm-.5,0-5.7-3.2,5.7-3.4Zm-.2.4L236,62V55.5Zm-3.1-12.6,3.6-2,2.6,1.5,3.3,1.9-5.9,3.6-6-3.6Zm9.9-13.4,6.3,3.7v7l-12.4-7.3V22l6,3.5v7.1C248.5,32.7,248.5,32.8,248.6,32.8Zm3-16.3,3.5-2.1,2.7,1.5,3.3,1.9-6,3.6-6-3.6Zm3.7,5.5,5.8,3.4-5.8,3.2Zm-.2,7.2,6,3.5-6,3.3-6-3.4Zm12.6-7.6h0l-6.2,3.4-5.9-3.4,12.1-7.2Zm0,.6v6.4L262,25.4Zm-12.8,6.4-5.8-3.2,5.8-3.4Zm-.2.4-5.8,3.2V25.7ZM242.5,43.9v-7l12.1,7-6,3.5Zm19.1-11.5-6-3.4.2-.2,5.7-3.2,6,3.4Zm-6.9-10.7L248.9,25V18.2ZM241.8,51.4,236,54.8V48ZM216.6,36.2l-12.4,7.3v-7l6.2-3.6h.1l6.1-3.5ZM197.7,25.7l5.8,3.3-5.8,3.2Zm2-8.8,4.3-2.4,5.9,3.3L204,21.4l-6-3.6Zm4.2,12.3,6,3.5L204,36.1l-6-3.5Zm.3-.6V22l5.7,3.4Zm-.5,0L198,25.4l5.7-3.4Zm6.7,3.8-6-3.4,3.4-1.9,2.6-1.5,5.9,3.4Zm-6.9-10.7L197.7,25V18.2Zm-.1,59.5-5.8,3.3V77.7ZM210.3,92l-6-3.5,5.9-3.3,6,3.3Zm-.5-7.1L204,88.2V81.6l4.5,2.5Zm7-18.6,6.3-3.6h0l6.1-3.5v6.9l-12.4,7.2Zm31.9-4.1-6-3.5,6-3.3,5.9,3.4ZM294,80.8l5.9-3.4v6.7l-2.3-1.3Zm25.6-.2V73.5L332,66.2v7l-6.3,3.5h-.1v7.2l-2.1-1.2Zm12.8,29.7v-7.2l2.9-1.8,9.5-5.5v7l-6.3,3.6h-.1v7.2l-2-1.2Zm19,10.9-5.2-3-.7-.4,6-3.4,5.9,3.4Zm-.4-7.1-5.7,3.3v-6.6l1.3.8Zm13.3-22.6-5.2-3-.8-.4,6-3.4,6,3.4Zm-.5-7.1-5.7,3.3V81.1l1.3.8Zm13.3-22.6-3.5-2-2.5-1.5,6-3.3,6,3.3Zm0-14.9-6.2-3.5v-7l12.2,7.1Zm-6.6-3.5L364.2,47h-.1v7.1l-6-3.4V43.6l12.4-7.2ZM351.4,47l-6.2-3.5v-7l12.2,7Zm-6.6-25.5-6.2,3.4-6-3.5,12.2-7.1Zm-6.2-4.1-6.2-3.5v-7l12.2,7ZM319.5,14,332,6.9v7l-6.3,3.5c-.1,0-.1,0-.1.1h0v7.2l-6.1-3.5ZM306.7,43.8l12.4-7.2v7l-6.3,3.5h-.1v7.2l-6-3.5ZM300,47.2l-6.1-3.5v-7l12.1,7Zm-6.6-25.5-6.2,3.4-6-3.5,12.2-7.2Zm-6.2-4.2L281,14V7l12.2,7.1ZM280.6,14l-6.3,3.6h-.1V25l-6-3.5V14.2L280.6,7Zm-19.1,3.6-6.2-3.5v-7l12.2,7Zm-19-3.3,12.4-7.2v7l-6.3,3.5h-.1V25l-6-3.5ZM242,43.9l-6.3,3.5h-.1v7.2l-5.9-3.5V44L242,36.9Zm-19,3.5-6.2-3.5v-7l12.2,7Zm-6.4-25.7-6.2,3.4-1.8-1-4.2-2.4,12.2-7.2Zm-6.3-4.1-6.1-3.5v-7l12.1,7Zm-19-3.3,12.4-7.2v7l-6.3,3.6h-.1V25l-6-3.5Zm0,7.7,6,3.5v7.1a.3.3,0,0,0,.1.2l6.3,3.7v7l-12.4-7.3Zm-.1,51.8,12.4-7.2v7l-6.3,3.6h-.1v7.1L195,83.3l-3.8-2.2Zm0,7.8,2.2,1.2,3.8,2.2v7.4l6.3,3.6v7l-12.4-7.2ZM204,103V96l6.3-3.6h0l6.1-3.5v6.9Zm12.4-21.7-6.2,3.4-5.5-3.3-.4-.2L216.4,74Zm26.1-8v-7l6.2-3.6h.1l6.1-3.6V66Zm12.4-21.8-6.2,3.4-6-3.5,12.2-7.1Zm.4-15,6.3-3.6h.1l6-3.5v6.8l-12.4,7.3ZM268.2,29V22l6,3.4v7.2c0,.1,0,.1.1.2l6.3,3.6v7l-12.4-7.2ZM281,51.6l6,3.5v7.3l6.3,3.7v7L281,65.8Zm12.9,29.6,2.3,1.3,3.7,2.1v7.2h.1l6.3,3.6v7l-12.4-7.2Zm12.8,21.4v-7L313,92h0l6.1-3.5v6.9Zm12.9-21.5,2,1.2,4,2.3v7.1h0c0,.1,0,.1.1.1l6.3,3.7v7l-12.4-7.3Zm12.8,29.7,2.1,1.2,3.9,2.2v7.2h.1l6.3,3.6v7L332.4,125Zm12.9,21.4v-7l6.3-3.6h0l6.1-3.5V125Zm12.4-21.7-6.2,3.4-1.1-.7-4.9-2.8,12.2-7.1Zm.4-7.9v-7l6.3-3.6h0l6.1-3.6v6.9Zm12.4-21.8-6.2,3.4-1.1-.6-4.9-2.9,12.2-7.1Zm.4-8v-7l6.3-3.6h0l6.1-3.5v6.9Zm12.4-21.7-6.2,3.4-6-3.5,12.2-7.2Z" fill="url(#linear-gradient)"/></svg>