<svg xmlns="http://www.w3.org/2000/svg" viewBox="0 0 637.7 181.8" width="637.7" height="181.8"><style>.st0{fill:#4f3b49}.st1{fill:url(#SVGID_1_)}</style><path id="Layer_4" d="M0 0h637.7v181.8H0z" class="st0"/><g id="Layer_3"><linearGradient id="SVGID_1_" x1="425.2" x2="633.65" y1="108.36" y2="108.36" gradientUnits="userSpaceOnUse"><stop offset="0" stop-color="#e8e7e8"/><stop offset=".16" stop-color="#e9e6e4"/><stop offset=".34" stop-color="#ebe3d6"/><stop offset=".53" stop-color="#efdfc0"/><stop offset=".72" stop-color="#f4d8a2"/><stop offset=".91" stop-color="#fbd07b"/><stop offset="1" stop-color="#fc6"/></linearGradient><path d="M633.6 88.4v-8c0-.1-.1-.2-.1-.2l-6.9-4-6.9-4c-.1-.1-.2-.1-.3 0l-13.7 7.9-6.8-3.9-6.8-3.9v-8c0-.1-.1-.2-.1-.2l-6.5-3.8 6.5-3.8c.1 0 .1-.1.1-.2v-8c0-.1-.1-.2-.1-.2l-6.9-4-6.9-4c-.1-.1-.2-.1-.3 0l-13.9 8-.1.1V72l-13.6 7.8-6.8-3.9-6.8-3.9v-7.8c0-.1-.1-.2-.1-.2l-6.5-3.8 6.5-3.8c.1 0 .1-.1.1-.2v-8c0-.1-.1-.2-.1-.2l-6.9-4-6.9-4c-.1-.1-.2-.1-.3 0l-13.7 7.9L502 44l-6.9-4c-.1-.1-.2-.1-.3 0l-13.9 8-.1.1V72l-13.6 7.8-6.8-3.9-6.8-3.9v-7.8c0-.1-.1-.2-.1-.2l-6.5-3.8 6.5-3.8c.1 0 .1-.1.1-.2v-8c0-.1-.1-.2-.1-.2l-6.9-4-6.9-4c-.1-.1-.2-.1-.3 0l-13.9 8-.1.1v24.1c0 .1 0 .1.1.1 0 0 0 .1.1.1l6.9 4 6.8 3.9V104l-13.7 7.9-.1.1v24.1c0 .1 0 .1.1.1 0 0 0 .1.1.1l6.9 4 6.9 4h.2l13.9-8c.1 0 .1-.1.1-.2v-8c0-.1-.1-.2-.1-.2l-6.5-3.8 6.5-3.8c.1 0 .1-.1.1-.2v-7.8l13.6-7.8 6.8 3.9 6.9 4h.2l13.9-8c.1 0 .1-.1.1-.2v-8c0-.1-.1-.2-.1-.2l-6.5-3.8 6.5-3.8c.1 0 .1-.1.1-.2v-7.8l13.6-7.8 6.8 3.9 6.8 3.9v23.8c0 .1 0 .1.1.1 0 0 0 .1.1.1l6.9 4 6.8 3.9v23.8c0 .1 0 .1.1.1 0 0 0 .1.1.1l6.9 4 6.9 4h.2l13.5-7.8v.1l6.9 4 6.8 3.9v23.8c0 .1 0 .1.1.1 0 0 0 .1.1.1l6.9 4 6.9 4h.2l13.9-8c.1-.1.1-.1.1-.2v-8c0-.1-.1-.2-.1-.2l-6.5-3.8 6.5-3.8c.1-.1.1-.1.1-.2v-7.8l13.7-7.9c.1 0 .1-.1.1-.2v-8c0-.1-.1-.2-.1-.2l-6.5-3.8 6.5-3.8c.1 0 .1-.1.1-.2v-7.9l13.7-7.9c.1 0 .1-.1.1-.2v-8c0-.1-.1-.2-.1-.2l-6.5-3.8 6.5-3.8c.2 0 .2-.1.2-.2zm-40.2 62.9l-1.6.9-6.4-3.7 6.4-3.7 6.4 3.7-4.8 2.8zm26.4-62.4l6.1 3.5-6.1 3.5v-7zM605.9 121l6.1 3.5-6.1 3.5v-7zm-20.7 36l6.1 3.5-6.1 3.5v-7zm6-4.5l-6.1 3.5v-7l6.1 3.5zm-5.8 4l6.1-3.5v7l-6.1-3.5zm-21.6-43.8v7.4l-6.6 3.8-6.4-3.7 6.5-3.7 6.5-3.8zm-14.1 15.5l-6.1 3.5v-7l6.1 3.5zm.8-7.5l6.1 3.5-6.1 3.5v-7zm-.6 7.1l-6.1-3.5 6.1-3.5v7zm-6.3-4v-7l6.1 3.5-6.1 3.5zm6.6 4.8l6.4 3.7-6.4 3.7-6.4-3.7 6.4-3.7zm6.9-4l6.4 3.7-6.4 3.7-6.4-3.7 6.4-3.7zm14.2-71.9l6.1 3.5-6.1 3.5v-7zm.3-.5l6.4-3.7 6.4 3.7-6.4 3.7-6.4-3.7zm41.3 32.7l6.1 3.5-6.1 3.5v-7zm0 15v-7l6.1 3.5-6.1 3.5zm-.6.5c0 .1 0 .1 0 0 0 .1 0 .1 0 0 0 .1 0 .1 0 0v.1s0 .1.1.1l6.8 3.9v7.4l-6.5-3.8-6.8-3.9V88.9l6.4 3.7v7.8zm-34.9 28.1l-6.1 3.5v-7l6.1 3.5zm-40.8-39.8l6.1 3.5-6.1 3.5v-7zm6.7 11.2l-6.4-3.7 6.4-3.7 6.4 3.7-6.4 3.7zm-7.2-4.2l-6.1-3.5 6.1-3.5v7zm.5 8.7l13.3-7.7v7.4l-13.3 7.7v-7.4zm27.8-15.7l6.1 3.5-6.1 3.5v-7zm40.7 31.8L599 124v-7l6.1 3.5zm-33.8-3.5l6.1 3.5-6.1 3.5v-7zm6.9 4l6.1 3.5-6.1 3.5v-7zm6.7 3.2l-6.4-3.7 6.5-3.7 6.5-3.8v7.4l-6.6 3.8zm20.5-19.9l-13.3 7.7v-7.4l13.3-7.7v7.4zm-13.6-.2l-6.4-3.7 6.4-3.7 6.4 3.7-6.4 3.7zm-6.7-4.2v-7l6.1 3.5-6.1 3.5zm6.4-4l-6.1-3.5 6.1-3.5v7zm.6-7l6.1 3.5-6.1 3.5v-7zm-.9-.5l-6.1 3.5v-7l6.1 3.5zm-6.6 4.2v7.9s0 .1.1.1l6.8 3.9v7.4l-6.5-3.8-6.8-3.9V88.8l6.4 3.8zm-6.9 28.4v7l-6.1-3.5 6.1-3.5zm7.2 3.8l6.4 3.7-6.4 3.7-6.4-3.7 6.4-3.7zm.5-.3l6.1-3.5v7l-6.1-3.5zm6.7-11.9l13.3-7.7v7.4l-6.8 3.9v7.6l-6.4-3.7v-7.5zm6.6-12.5l-6.4-3.7 6.4-3.7 6.4 3.7-6.4 3.7zm-41.3-.4v-7l6.1 3.5-6.1 3.5zm13 .5l-6.4 3.7-6.4-3.7 6.4-3.7 6.4 3.7zm.6-.3l-6.4-3.7 6.4-3.7 6.4 3.7-6.4 3.7zm-7.2-4.2l-6.1-3.5 6.1-3.5v7zm.6 8.7l13.3-7.7v7.4l-13.3 7.7v-7.4zm20.3 4.3l6.5 3.8-6.4 3.7-6.7-3.8V105l6.6 3.7zm-6.8 11.5l-6.4-3.7 6.4-3.7 6.4 3.7-6.4 3.7zM599 132v-7l6.1 3.5-6.1 3.5zm6.4-36.1l-6.1-3.5 6.1-3.5v7zm-13.6-7.8l-6.4-3.7 6.4-3.7 6.4 3.7-6.4 3.7zm-.3-7.8l-6.8 3.9v7.6l-6.4-3.7v-7.6l13.3-7.7v7.5zm-13.6-8.4l-6.4-3.7 6.4-3.7 6.4 3.7-6.4 3.7zm-6.6-4.2v-7l6.1 3.5-6.1 3.5zm6.4 28l-6.1-3.5 6.1-3.5v7zm-20.8 4.5s0 .1 0 0c0 .1 0 .1 0 0v.1s0 .1.1.1l6.8 3.9v7.4l-6.5-3.8-6.8-3.9V88.7l6.4 3.7v7.8zm-7-4.5l-6.1-3.5 6.1-3.5v7zm-14.1.5l-6.1 3.5v-7l6.1 3.5zm.6.3l6.4 3.7-6.4 3.7-6.4-3.7 6.4-3.7zm14.1 8.2l6.5 3.8 6.5 3.8-6.4 3.7-6.7-3.8v-7.5zm27.4 24.1l6.4 3.7-6.4 3.7-6.4-3.7 6.4-3.7zm.3 7.9l13.3-7.7v7.4l-13.3 7.7v-7.4zm13.9 7.6V137l6.5 3.8 6.4 3.7.1.1-6.4 3.7-6.6-4zm6.8-4l-6.8-3.9V121l6.4 3.7v7.9s0 .1.1.1l6.8 3.9v7.4l-1.5-.9-5-2.8zm6.8-11.5l6.4 3.7-6.4 3.7-6.4-3.7 6.4-3.7zm-.3-.8l-6.1-3.5 6.1-3.5v7zm-6.1-11.5l6.4-3.7 6.4 3.7-6.4 3.7-6.4-3.7zm6.6-4.2V105l6.5 3.8 6.5 3.8-6.4 3.7-6.6-4zm13.6-15.5l6.4 3.7-6.4 3.7-6.4-3.7 6.4-3.7zm-.3-.9l-6.1-3.5 6.1-3.5v7zm-6.1-11.5l6.4-3.7 6.4 3.7-6.4 3.7-6.4-3.7zm-7.7-3.5v7.4l-6.6 3.8-6.4-3.7 6.5-3.7 6.5-3.8zm-13.9-8.8l-13.3 7.7v-7.4l13.3-7.7v7.4zm-13.8-8.4l-6.1-3.5 6.1-3.5v7zm-7-3.3v7.9s0 .1.1.1l6.8 3.9v7.3l-6.5-3.8-6.8-3.9V56.6l6.4 3.8zm-6.4 12.3l6.5 3.8 6.5 3.7-6.3 3.7-6.7-3.8v-7.4zm6.8 11.7l6.5-3.8V88l-6.6 3.8-6.4-3.7 6.5-3.7zm-13.7 7.3v-7l6.1 3.5-6.1 3.5zm-14-7.3l6.5-3.8V88l-6.6 3.8-6.4-3.7 6.5-3.7zm-13.7 7.3v-7l6.1 3.5-6.1 3.5zm20.5 20.9l6.4 3.7-6.4 3.7-6.4-3.7 6.4-3.7zm7.5 11.6l6.1-3.5v7l-6.1-3.5zm34.4 28.8l6.1 3.5-6.1 3.5v-7zm-13.9-89.3v-7l6.1 3.5-3 1.8-3.1 1.7zm-14.1 16.8l6.4 3.7-6.4 3.7-6.4-3.7 6.4-3.7zm-27.7 7.4l-6.4-3.7 6.4-3.7 6.4 3.7-6.4 3.7zm-.3-15.9l-13.3 7.7v-7.3l13.3-7.7V72zm-20.3-19.3l6.1 3.5-6.1 3.5v-7zm.3-.5l6.4-3.7 6.4 3.7-6.4 3.7-6.4-3.7zm5.8 12l-6.1 3.5v-7l6.1 3.5zm.6.3l6.4 3.7-6.4 3.7-6.4-3.7 6.4-3.7zm-.3-.8l-6.1-3.5 6.1-3.5v7zm.6 0v-7l6.1 3.5-3 1.8-3.1 1.7zm-41.6 25l6.1 3.5-6.1 3.5v-7zm-.3 7.8l6.4 3.7-6.4 3.7-6.4-3.7 6.4-3.7zm-6.6-11.8l6.1 3.5-6.1 3.5v-7zm6.1 11.5l-6.1 3.5v-7l6.1 3.5zm.2-.5l-6.1-3.5 6.1-3.5v7zm-6-11.5l6.4-3.7 6.4 3.7-6.4 3.7-6.4-3.7zm6.6-4.2v-7.3l6.5 3.8 6.5 3.7-6.3 3.7-6.7-3.9zm6.9-27.3l6.1 3.5-6.1 3.5v-7zm6.4 11l-6.1-3.5 6.1-3.5v7zm-.3.5l-6.1 3.5v-7l6.1 3.5zm.9-.5v-7l6.1 3.5-3 1.8-3.1 1.7zm-.3-7.8l-6.4-3.7 6.4-3.7 6.4 3.7-6.4 3.7zm0 8.6l6.4 3.7-6.4 3.7-6.4-3.7 6.4-3.7zm.5-.3l4.8-2.8 1.6-.9 6.4 3.7-6.4 3.7-6.4-3.7zm6.4-4.3l-6.4-3.7 6.5-3.7 6.5-3.8V56l-6.6 3.9zm-14.1.5v7.9s0 .1.1.1l6.8 3.9v7.3L488 76l-6.8-3.9V56.8l6.4 3.6zm14.7-.2l6.1-3.5v7l-6.1-3.5zm-58.8 73.3l-4.2 2.4-6.4-3.7 6.4-3.7 6.4 3.7-2.2 1.3zm23.3-52.8V88l-6.6 3.8-6.4-3.7 6.5-3.7 6.5-3.7zm-27.2 40l6.1 3.5-6.1 3.5v-7zm-6.9-4l6.1 3.5-6.1 3.5v-7zm6.1 11.5l-6.1 3.5v-7l6.1 3.5zm.3-.5l-6.1-3.5 6.1-3.5v7zm-6.1-11.5l6.4-3.7 6.4 3.7-6.4 3.7-6.4-3.7zm6.6-4.1v-7.4l6.5 3.8 6.5 3.8-6.4 3.7-6.6-3.9zm13-15.9l-6.1 3.5v-7l6.1 3.5zm.3-.5l-6.1-3.5 6.1-3.5v7zm-6.3-11l6.1 3.5-6.1 3.5v-7zm6.9 4l6.1 3.5-6.1 3.5v-7zm-.3-.8l-6.4-3.7 6.4-3.7 6.4 3.7-6.4 3.7zm0 8.6l6.4 3.7-6.4 3.7-6.4-3.7 6.4-3.7zm6.9-4l6.4 3.7-6.4 3.7-6.4-3.7 6.4-3.7zm-27.4-39.8l6.1 3.5-6.1 3.5v-7zm.3-.5l6.4-3.7 6.4 3.7-6.4 3.7-6.4-3.7zm5.8 12l-6.1 3.5v-7l6.1 3.5zm.5.3l6.4 3.7-6.4 3.7-6.4-3.7 6.4-3.7zm13.6 7.5l-13.3 7.7v-7.3l13.3-7.7V72zm-13.8-8.3l-6.1-3.5 6.1-3.5v7zm6.9 28.7v7.9s0 .1.1.1l6.8 3.9v7.4l-6.5-3.8-6.8-3.9V88.6l6.4 3.8zm14.7-.2l6.1-3.5v7l-6.1-3.5zM452.9 80l-6.8 3.9v7.6l-6.4-3.7v-7.6l13.3-7.7V80zm-13.3-16.3v-7l6.1 3.5-3 1.8-3.1 1.7zm83.2 16.7l13.3-7.7V80l-6.8 3.9v7.7l-6.4-3.7v-7.5zm13.8 32l13.3-7.7v7.4l-6.8 3.9v7.7l-6.4-3.7v-7.6zm27.8.2l13.3-7.7v7.4l-6.8 3.9v7.6l-6.4-3.7v-7.5zm13.8 32.1l13.3-7.7v7.4l-6.8 3.9v7.6l-6.4-3.7v-7.5zm13.6 23.5l-6.4-3.7 6.4-3.7 6.4 3.7-4.8 2.8-1.6.9zm34.6-84.1l-6.7-3.8v-7.4l6.5 3.8 6.5 3.8-6.3 3.6zm-7.2-3.8l-6.8 3.9v7.6l-6.4-3.7v-7.6l13.3-7.7v7.5zm-20.5 3.8l-6.7-3.8v-7.4l6.5 3.8 6.5 3.8-6.3 3.6zm-13.8-16.2l-6.4-3.7 4.8-2.8 1.6-.9 6.4 3.7-6.4 3.7zm6.6-11.9l-6.6 3.8-6.4-3.7 6.5-3.7 6.5-3.8V56zm-6.6-4.1l-6.7-3.8v-7.4l6.5 3.8 6.5 3.8-6.3 3.6zm-7.3-3.9l-6.8 3.9v7.6l-6.4-3.7v-7.6l13.3-7.7V48zm-13.8 32l-6.8 4v7.7l-6.4-3.7v-7.6l13.3-7.7V80zm-20.5 3.9l-6.7-3.8v-7.4l6.5 3.8 6.5 3.8-6.3 3.6zm-13.9-16l-6.4-3.7 4.8-2.8 1.6-.9 6.4 3.7-6.4 3.7zm6.7-11.9l-6.6 3.8-6.4-3.7 6.5-3.7 6.5-3.8V56zm-6.7-4.1l-6.7-3.8v-7.4l6.5 3.8 6.5 3.8-6.3 3.6zm-7.2-3.9l-6.8 3.9v7.6l-6.4-3.7v-7.6l13.3-7.7V48zm-20.5 3.9l-6.7-3.8v-7.4l6.5 3.8 6.5 3.8-6.3 3.6zm-7.2-3.9l-6.8 3.9v7.6l-6.4-3.7v-7.6l13.3-7.7V48zm-13.9 32l-6.8 3.9v7.6l-6.4-3.7v-7.6l13.3-7.7V80zm-20.5 3.9l-6.7-3.8v-7.4l6.5 3.8 6.5 3.8-6.3 3.6zm-13.8-16l-6.4-3.7 4.8-2.8 1.6-.9 6.4 3.7-6.4 3.7zm6.6-11.9l-6.6 3.8-6.4-3.7 6.5-3.7 6.5-3.8V56zm-6.6-4.1l-6.7-3.8v-7.4l6.5 3.8 6.5 3.8-6.3 3.6zm-7.2-3.9l-6.8 3.9v7.6l-6.4-3.7v-7.6l13.3-7.7V48zm-6.5 28l-6.8-3.9V56.7l6.4 3.7v7.9s0 .1.1.1l6.8 3.9v7.4l-6.5-3.7zm6.5 36.1l-6.8 3.9v7.6l-6.4-3.7v-7.6l13.3-7.7v7.5zm-6.6 27.9l-6.8-3.9v-15.4l6.4 3.7v7.9s0 .1.1.1l6.8 3.9v7.4l-6.5-3.7zm20.4-3.9l-13.3 7.7v-7.4l6.8-3.9 6.5-3.8v7.4zm-6.6-4.2l-6.4-3.7 6.4-3.7 6.4 3.7-6.4 3.7zm6.6-11.8l-6.6 3.8-6.4-3.7 6.5-3.7 6.5-3.8v7.4zm.6-15.7l13.3-7.7v7.4l-13.3 7.7v-7.4zm20.6 3.6l-6.8-3.9V88.8l6.4 3.7v7.9s0 .1.1.1l6.8 3.9v7.4l-6.5-3.8zm20.4-3.9l-13.3 7.7v-7.4l13.3-7.7v7.4zm-6.7-4.2l-6.4-3.7 6.4-3.7 6.4 3.7-6.4 3.7zm6.7-11.9l-6.6 3.8-6.4-3.7 6.5-3.7 6.5-3.8V88zm.6-15.6l13.3-7.7v7.4l-13.3 7.7v-7.4zm20.6 3.6l-6.8-3.9V56.8l6.4 3.7v7.9s0 .1.1.1l6.8 3.9v7.4l-6.5-3.8zm13.9 32l-6.8-3.9V88.7l6.4 3.7v7.9s0 .1.1.1l6.8 3.9v7.4l-6.5-3.7zm13.8 32l-6.8-3.9v-15.4l6.4 3.7v7.9s0 .1.1.1l6.8 3.9v7.4l-6.5-3.7zm20.4-3.9l-13.3 7.7v-7.4l13.3-7.7v7.4zm7.3 4.2l-6.8-3.9V121l6.4 3.7v7.9s0 .1.1.1l6.8 3.9v7.4l-6.5-3.7zm13.9 32l-6.8-3.9V153l6.4 3.7v7.9s0 .1.1.1l6.8 3.9v7.4l-6.5-3.7zm20.4-3.9l-13.3 7.7v-7.4l6.8-3.9 6.5-3.8v7.4zm-6.7-4.2l-6.4-3.7 4.8-2.8 1.6-.9 6.4 3.7-6.4 3.7zm6.7-11.9l-6.6 3.8-6.4-3.7 6.5-3.8 6.5-3.8v7.5zm13.8-16l-13.3 7.7v-7.4l13.3-7.7v7.4zm-6.6-4.2l-6.4-3.7 6.4-3.7 6.4 3.7-6.4 3.7zm6.6-11.8l-6.6 3.8-6.4-3.7 6.5-3.7 6.5-3.8v7.4zm13.9-16l-13.3 7.7v-7.4l13.3-7.7v7.4zm-6.7-4.2l-6.4-3.7 6.4-3.7 6.4 3.7-6.4 3.7zm6.7-11.8l-6.6 3.8-6.4-3.7 6.5-3.7 6.5-3.8v7.4z" class="st1"/></g></svg>