<svg xmlns="http://www.w3.org/2000/svg" id="Layer_1" viewBox="0 0 637.7 181.8" width="637.7" height="181.8"><style>.st0{fill:#cec2cd}.st1{fill:url(#SVGID_1_)}</style><path id="Layer_4" d="M0 0h637.7v181.8H0z" class="st0"/><linearGradient id="SVGID_1_" x1="146.44" x2="629.8" y1="137.3" y2="44.22" gradientUnits="userSpaceOnUse"><stop offset="0" stop-color="#cec2cd"/><stop offset=".29" stop-color="#e9e6e4"/><stop offset=".45" stop-color="#ebe3d6"/><stop offset=".6" stop-color="#efdfc0"/><stop offset=".75" stop-color="#f4d8a2"/><stop offset=".88" stop-color="#fbd07b"/><stop offset="1" stop-color="#fc6"/></linearGradient><path d="M633.8 78.8l-7.9-4.6 7.9-4.6c-.2 0-.2-.1-.2-.2v-9.7c0-.1-.1-.2-.2-.3l-8.4-4.9-8.4-4.9c-.1-.1-.2-.1-.3 0l-16.7 9.6-8.2-4.8-8.3-4.8V40c0-.1-.1-.2-.2-.3l-7.9-4.6 7.9-4.6c.1-.1.2-.2.2-.3v-9.7c0-.1-.1-.2-.2-.3l-8.4-4.9-8.4-4.9c-.1-.1-.2-.1-.3 0L549 20.1s0 .1-.1.1c0 0 0 .1-.1.1v28.9L532.2 59l-8.2-4.8-8.3-4.8V40c0-.1-.1-.2-.2-.3l-7.9-4.6 7.9-4.6c.1-.1.2-.2.2-.3v-9.7c0-.1-.1-.2-.2-.3l-8.4-4.9-8.4-4.9c-.1-.1-.2-.1-.3 0L481.7 20l-8.2-4.8-8.4-4.9c-.1-.1-.2-.1-.3 0L448 20s0 .1-.1.1c0 0 0 .1-.1.1v28.9L431.1 59l-8.2-4.8-8.2-4.8V40c0-.1-.1-.2-.2-.3l-7.9-4.6 7.9-4.6c.1-.1.2-.2.2-.3v-9.7c0-.1-.1-.2-.2-.3l-8.4-4.9-8.4-4.9c-.1-.1-.2-.1-.3 0l-16.8 9.7s0 .1-.1.1c0 0 0 .1-.1.1v29.3l-16.5 9.5-8.2-4.8-8.3-4.8v-9.6c0-.1-.1-.2-.2-.3l-7.9-4.6 7.9-4.6c.1-.1.2-.2.2-.3v-9.7c0-.1-.1-.2-.2-.3l-8.4-4.9-8.4-4.9c-.1-.1-.2-.1-.3 0L313.3 20s0 .1-.1.1c0 0 0 .1-.1.1v28.9l-16.6 9.8-8.2-4.8-8.3-4.8v-9.4c0-.1-.1-.2-.2-.3l-7.9-4.6 7.9-4.6c.1-.1.2-.2.2-.3v-9.7c0-.1-.1-.2-.2-.3l-8.4-4.9-8.4-4.9c-.1-.1-.2-.1-.3 0L246 19.9l-8.2-4.8-8.4-4.9c-.1-.1-.2-.1-.3 0l-16.8 9.7s0 .1-.1.1c0 0 0 .1-.1.1V49l-16.7 9.9-8.2-4.8-8.2-4.8v-9.4c0-.1-.1-.2-.2-.3l-7.9-4.6 7.9-4.6c.1-.1.2-.2.2-.3v-9.7c0-.1-.1-.2-.2-.3l-8.4-4.9-8.4-4.9c-.1-.1-.2-.1-.3 0L144.9 20s0 .1-.1.1c0 0 0 .1-.1.1v29.2c0 .1 0 .1.1.2 0 0 0 .1.1.1l8.4 4.9 8.3 4.8v28.8l-16.9 9.7s0 .1-.1.1c0 0 0 .1-.1.1v29.2c0 .1 0 .1.1.2 0 0 0 .1.1.1l8.4 4.9 8.4 4.9h.4l16.8-9.7c.1-.1.2-.2.2-.3v-9.7c0-.1-.1-.2-.2-.3l-7.9-4.6 7.9-4.6c.1-.1.2-.2.2-.3v-9.5l16.5-9.5 8.3 4.8 8.4 4.9h.4l16.8-9.7c.1-.1.2-.2.2-.3v-9.7c0-.1-.1-.2-.2-.3l-7.9-4.6 7.9-4.6c.1-.1.2-.2.2-.3v-9.5l16.5-9.5 8.3 4.8 8.3 4.8v29c0 .1 0 .1.1.2 0 0 0 .1.1.1l8.4 4.9 8.3 4.8v29c0 .1 0 .1.1.2 0 0 0 .1.1.1l8.4 4.9 8.4 4.9h.4l16.5-9.5v.1l8.4 4.9 8.3 4.8v29c0 .1 0 .1.1.2 0 0 0 .1.1.1l8.4 4.9 8.4 4.9h.4l16.8-9.7c.1-.1.2-.2.2-.3v-10.3c0-.1-.1-.2-.2-.3l-7.9-4.6 7.9-4.6c.1-.1.2-.2.2-.3v-9.5l16.5-9.5 7.7 4.5 8.4 4.9h.4l16.8-9.7c.1-.1.2-.2.2-.3v-9.7c0-.1-.1-.2-.2-.3l-7.9-4.6 7.9-4.6c.1-.1.2-.2.2-.3v-9.5L431 89l8.3 4.8 8.4 4.9h.4L465 89c.1-.1.2-.2.2-.3V79c0-.1-.1-.2-.2-.3l-7.9-4.6 7.9-4.6c.1-.1.2-.2.2-.3v-9.5l16.5-9.5L490 55l8.3 4.8v29c0 .1 0 .1.1.2 0 0 0 .1.1.1l8.4 4.9 8.3 4.8v29c0 .1 0 .1.1.2 0 0 0 .1.1.1l8.4 4.9 8.4 4.9h.4l16.5-9.5v.1l8.4 4.9 8.3 4.8v29c0 .1 0 .1.1.2 0 0 0 .1.1.1l8.4 4.9 8.4 4.9h.4l16.8-9.7c.1-.1.2-.2.2-.3V157c0-.1-.1-.2-.2-.3l-7.9-4.6 7.9-4.6c.1-.1.2-.2.2-.3v-9.5l16.7-9.6c.1-.1.2-.2.2-.3v-9.7c0-.1-.1-.2-.2-.3l-7.9-4.6 7.9-4.6c.1-.1.2-.2.2-.3v-9.6l16.7-9.6c.1-.1.2-.2.2-.3v-9.7c0-.1-.1-.2-.2-.3zM187 74.2l7.7 4.5-7.7 4.5-7.7-4.5 7.7-4.5zm-8.1 4v-8.6l7.4 4.3-7.4 4.3zm8.8-4.3l7.4-4.3v8.5l-7.4-4.2zm-.7-.4l-7.7-4.5 7.9-4.6 7.9-4.5v8.9l-8.1 4.7zm-8.1-23.4l7.9 4.6 7.9 4.6-7.7 4.4-8.1-4.7v-8.9zm7.4 14l-7.7 4.5-7.7-4.5 7.7-4.5 7.7 4.5zm-16 28.8l-8.3-4.8V69.4l7.8 4.6v9.7l.1.1 8.3 4.8v8.9l-7.9-4.6zm7.6 5.4l-7.7 4.5-8.1-4.8v-8.9l7.9 4.6 7.9 4.6zm-7-24.5l7.4-4.3v8.6l-7.4-4.3zm7 4.9l-7.4 4.3v-8.5l7.4 4.2zm-7.4-5.4v-8.6l7.4 4.3-7.4 4.3zm7.9-14.2h-.1l-8.3 4.8s0 .1-.1.1v9.3l-7.7-4.5v-9.3l16.2-9.3v8.9zm-.1-9.8l-16.2 9.3v-8.9l16.2-9.3v8.9zm-.4-9.5l-7.7 4.5-7.7-4.5 5.8-3.4 1.9-1.1 7.7 4.5zm-15.8-.6v-8.5l7.4 4.3-3.7 2.1-3.7 2.1zm16.2-9.3l-8.1 4.7-7.7-4.5 7.9-4.6 7.9-4.6v9zm-16.2-18.7l7.9 4.6 7.9 4.6-7.7 4.4-8.1-4.7v-8.9zm7.3 14l-7.7 4.5-7.7-4.5 7.7-4.5 7.7 4.5zM154 34.9l7.4-4.3v8.6l-7.4-4.3zm7.1 4.9l-7.4 4.3v-8.5l7.4 4.2zm-7.4-5.4v-8.6l7.4 4.3-7.4 4.3zm-8.4-13.8l16.2-9.3v8.9h-.1l-8.3 4.8s0 .1-.1.1v9.3l-7.7-4.5v-9.3zm16 38l-7.8-4.5-8.3-4.8V30.6l7.7 4.5v9.7l.1.1 8.3 4.8v8.9zm-7.2-13.9l7.7-4.5 7.7 4.5-7.7 4.5-7.7-4.5zm7.6 53.9l7.7 4.5-7.7 4.5-7.7-4.5 7.7-4.5zm.4 9.9l7.4 4.3-7.4 4.3v-8.6zm-8.1 4.2l7.4-4.3v8.6l-7.4-4.3zm7.1 4.9l-7.4 4.3v-8.5l7.4 4.2zm-7.4-5.3v-8.6l7.4 4.3-7.4 4.3zm-8.4-13.9l16.2-9.3V98h-.1l-8.3 4.8s0 .1-.1.1v9.3l-7.7-4.5v-9.3zm16 38.1l-7.8-4.5-8.3-4.8v-18.7l7.7 4.5v9.7l.1.1 8.3 4.8v8.9zm.5-9.5l-7.7-4.5 7.7-4.5 7.7 4.5-2.6 1.6-5.1 2.9zm16.5.2l-16.2 9.3v-8.9l8.3-4.8 7.9-4.6v9zm-.4-9.6l-7.7 4.5-7.7-4.5 7.7-4.5 7.7 4.5zm.4-9.9l-8.1 4.7-7.7-4.5 7.9-4.6 7.9-4.6v9zm.3-19.6l-7.7-4.5 7.7-4.5 7.7 4.5-7.7 4.5zm16.5.2l-16.2 9.3v-8.9l16.2-9.3v8.9zm40.5-51.9l1.9-1.1 7.7 4.5-7.7 4.5-7.7-4.5 5.8-3.4zm-6.1 2.8v-8.5l7.4 4.3-3.7 2.1-3.7 2.1zm8.7-4.2l7.4-4.3v8.5l-7.4-4.2zm-.6-.4l-7.7-4.5 7.9-4.6 7.9-4.6v9l-8.1 4.7zm-8.1-23.4l7.9 4.6 7.9 4.6-7.7 4.4-8.1-4.7v-8.9zm7.3 14l-7.7 4.5-7.7-4.5 7.7-4.5 7.7 4.5zm-15.7 10.4l7.4 4.2-7.4 4.3v-8.5zm0-1.2v-8.6l7.4 4.3-7.4 4.3zm.3.5l7.4-4.3v8.6l-7.4-4.3zm-8.7-14.3l16.2-9.3v8.9h-.1l-8.3 4.8s0 .1-.1.1v9.3l-7.7-4.5v-9.3zm-.1 29.6l7.9 4.6 7.9 4.6-7.7 4.5-8.1-4.8v-8.9zm-.3 9.4l7.7 4.5-7.7 4.5-7.7-4.5 7.7-4.5zm.3 10l7.4 4.3-7.4 4.3v-8.6zm-8 4.2l7.4-4.3v8.6l-7.4-4.3zm7 4.9l-7.4 4.3v-8.5l7.4 4.2zm-7.4-5.4v-8.6l7.4 4.3-7.4 4.3zm-8.4-13.8l16.2-9.3v8.9h-.1l-8.3 4.8s0 .1-.1.1v9.3l-7.7-4.5v-9.3zm16 38.1L204 93l-8.3-4.8V69.6l7.7 4.5v9.7l.1.1 8.3 4.8v8.9zm.5-9.5l-7.7-4.5 7.7-4.5 7.7 4.5-7.7 4.5zm16.5.2l-16.2 9.3v-8.9l16.2-9.3v8.9zm-.4-9.6l-7.7 4.5-7.7-4.5 7.7-4.5 7.7 4.5zm.4-9.9l-8.1 4.7L213 69l7.9-4.6 7.9-4.6v9zm0-10.1l-7.9-4.6-8.2-4.8V30.7l7.7 4.5v9.7l.1.1 8.3 4.8v8.9zm.3-9.5l-7.7-4.5 7.7-4.5 7.7 4.5-7.7 4.5zm16.6.2l-16.2 9.3v-8.9l16.2-9.3v8.9zm177 24.9l7.7 4.5-7.7 4.5-7.7-4.5 7.7-4.5zm-8.1 4v-8.6L422 74l-7.4 4.3zm8.8-4.3l7.4-4.3v8.5l-7.4-4.2zm-.7-.4l-7.7-4.5 7.9-4.6 7.9-4.5v8.9l-8.1 4.7zm-8.1-23.4l7.9 4.6 7.9 4.6-7.7 4.4-8.1-4.7v-8.9zm7.4 14l-7.7 4.5-7.7-4.5 7.7-4.5 7.7 4.5zm-24.6 43.5l-7.7-4.5 7.7-4.5 7.7 4.5-7.7 4.5zm.4.9l7.4 4.3-7.4 4.3v-8.6zm-24.5 4.5l6.9-4v8l-6.9-4zm-.8-9.5l7.7-4.5v9l-7.9 4.6-7.7-4.5 7.9-4.6zm-.1-.5l-8.1-4.8v-8.9l7.9 4.6 7.9 4.6-7.7 4.5zm-.7 10l-7.4 4.3v-8.6l7.4 4.3zm.6.3l7.7 4.5-7.7 4.5-7.7-4.5 7.7-4.5zm17.1-78.9v-8.6l7.4 4.3-7.4 4.3zm7.7-3.8v8.6l-7.4-4.3 7.4-4.3zm-.3 9.2l-7.4 4.3v-8.5l7.4 4.2zm.7.4l7.7 4.5-7.7 4.5-7.7-4.5 7.7-4.5zm-7.3 33.8l7.1-4.1v8.2l-7.1-4.1zm6.7-14.5l-7.7 4.4-8.1-4.7v-8.9L389 55l7.9 4.6zm-7.5 5.1l7.9-4.6v9l-8.1 4.7-7.7-4.5 7.9-4.6zm-.9 9.5l-7.4 4.3v-8.6l7.4 4.3zm.7.3l7.7 4.5-7.7 4.5-7.7-4.5 7.7-4.5zm-8.5-14.6l7.7 4.5-7.7 4.5-7.7-4.5 7.7-4.5zm-.6 9.4l-7.4 4.3V65l7.4 4.3zm.3.5v8.6l-7.4-4.3 7.4-4.3zm-.3 9.3l-7.4 4.2v-8.5l7.4 4.3zm.7.3l7.7 4.5-7.7 4.5-7.7-4.5 7.7-4.5zm.3 9.5l16.2-9.3v8.7l-16.2 9.3v-8.7zm.3 9.7l15.8-9.1v8.6h-.1l-8.3 4.8s0 .1-.1.1v9.3l-7.3-4.3v-9.4zm8 5.2l7.4 4.3-7.4 4.3v-8.6zm0 9.7l7.4 4.2-7.4 4.3v-8.5zm.3-.7l7.4-4.3v8.6l-7.4-4.3zm8.1-14.7v-8.9l7.9 4.6 7.9 4.6-7.7 4.5-8.1-4.8zM406 93l-7.7-4.4V79c0-.1-.1-.2-.2-.3l-.4-.2v-8.7l.2-.1 7.6 4.5v9.7l.1.1 8.3 4.8v8.9L406 93zm.6-19.1l7.4-4.3v8.6l-7.4-4.3zm7 4.9l-7.4 4.3v-8.5l7.4 4.2zm-7.4-5.4v-8.6l7.4 4.3-7.4 4.3zm7.9-14.2h-.1l-8.3 4.8s0 .1-.1.1v9.3l-7.7-4.5v-9.3l16.2-9.3v8.9zm-.1-9.8l-16.2 9.3v-8.9l16.2-9.3v8.9zm-.4-9.5l-7.7 4.5-7.7-4.5 5.8-3.4 1.9-1.1 7.7 4.5zm-15.8-.6v-8.5l7.4 4.3-3.7 2.1-3.7 2.1zM414 30l-8.1 4.7-7.7-4.5 7.9-4.6L414 21v9zm-16.2-18.7l7.9 4.6 7.9 4.6-7.7 4.4-8.1-4.7v-8.9zm7.3 14l-7.7 4.5-7.7-4.5 7.7-4.5 7.7 4.5zM381 20.7l16.2-9.3v8.9h-.1l-8.3 4.8s0 .1-.1.1v9.3L381 30v-9.3zm-.1 19.1v-9.1l7.7 4.5v9.7l.1.1 8.3 4.8v8.9l-7.8-4.5-8.3-4.8v-9.6zm-16.6 20l16.2-9.3v8.9h-.1l-8.3 4.8s0 .1-.1.1v9.3l-7.7-4.5v-9.3zm-.1 19.2v-9.1l7.7 4.5.1 9.5v.1l.1.1 8.3 4.8v9l-7.9-4.6-8.3-4.8V79zm-.3 19.9l7.7 4.5-7.7 4.5-7.7-4.5 7.7-4.5zm-16.8 47.8l-7.7-4.5 7.7-4.5 7.7 4.5-5.8 3.4-1.9 1.1zm.3 1.1l7.4 4.3-7.4 4.3v-8.6zm-16.8-10.2l16.2-9.3v8.9l-8.3 4.8s0 .1-.1.1v9.3l-7.7-4.5v-9.3h-.1zm-16.9-38.9l16.2-9.3v8.9l-8.3 4.8s0 .1-.1.1v9.3l-7.7-4.5v-9.3h-.1zm0-48.5l7.9 4.6 7.9 4.6-7.7 4.5-8.1-4.7v-9zm8.2 14.2l7.9-4.6v8.9l-8.1 4.7-7.7-4.5 7.9-4.5zm.2-30v-8.6l7.4 4.3-7.4 4.3zm7.8-3.8v8.6l-7.4-4.3 7.4-4.3zm-.4 9.3l-7.4 4.2v-8.5l7.4 4.3zm.7.3l7.7 4.5-7.7 4.5-7.7-4.5 7.7-4.5zm8.2 43.9l8.3 4.8v9l-7.9-4.6-8.3-4.8V69.9l7.8 4.4v9.6l.1.2zm16.9 19s0 .1-.1.1v9.3l-7.7-4.5v-9.3h-.1l16.2-9.3v8.9l-8.3 4.8zm.5.9l7.4 4.2-7.4 4.3V104zm-8.4-6.1v-9l16.2-9.3v9l-16.2 9.3zM363.2 79l-7.7 4.5-7.7-4.5 7.7-4.5 7.7 4.5zm-7-4.9l7.4-4.3v8.6l-7.4-4.3zm-8.8 4.4v-8.6l7.4 4.3-7.4 4.3zm7.3 5.4l-7.6 4.5-7.8-4.5 7.7-4.5 7.7 4.5zm-16 28.8l-7.7-4.5 7.9-4.6 7.9-4.6v8.9l-8.1 4.8zm8-3.9v8.5l-7.4-4.2 7.4-4.3zm-8-5.8l-8.1-4.7v-8.9l7.9 4.5 7.9 4.6-7.7 4.5zm.3-19.7v-8.5l7.4 4.3-7.4 4.2zm7.7-4.9l-7.4-4.3 7.4-4.3v8.6zm-7.7-4.8v-8.5l7.4 4.2-7.4 4.3zm-9.1-4.1v8.6l-7.4-4.3 7.4-4.3zm-8.8 4.4l-7.4 4.3v-8.6l7.4 4.3zm.7.3l7.7 4.5-7.7 4.5-7.7-4.5 7.7-4.5zm8.1 5.2v8.9l-16.2 9.3v-8.9l16.2-9.3zm-7.7 24.6l7.4 4.3-7.4 4.3V104zm0 9.8l7.4 4.2-7.4 4.3v-8.5zm.3-.8l7.4-4.2v8.5l-7.4-4.3zm0-9.7l7.7-4.5 7.7 4.5-7.7 4.5-7.7-4.5zm8.1 5.5l7.4 4.3-7.4 4.3v-8.6zm8.1 4.7l7.7 4.5-7.7 4.5-7.7-4.5 7.7-4.5zm8.1 5.1v8.9l-16.2 9.3v-8.9l16.2-9.3zm-7.8 24.3l7.4 4.3-7.4 4.3v-8.6zm0 9.7l7.4 4.3-7.4 4.3v-8.6zm.3-.6l7.4-4.3v8.5l-7.4-4.2zm8.1-14.8v-8.9l7.9 4.6 7.8 4.5.1.1-7.7 4.5-8.1-4.8zm14.3-1.4l-6-3.5-8.3-4.8v-18.6l7.7 4.5v9.7l.1.1 8.3 4.8v8.9l-1.8-1.1zm-5.9-22.1l7.4 4.3-7.4 4.2v-8.5zm.4-.6l7.4-4.3v8.6l-7.4-4.3zm7.4-44.1l-8.1 4.7-7.7-4.5 7.9-4.6 7.9-4.5V69zm-16.2-18.6l7.9 4.6 7.9 4.6-7.7 4.4-8.1-4.7v-8.9zm7.4 14l-7.7 4.5-7.7-4.5 7.7-4.5 7.7 4.5zm-8-5h-.1l-8.3 4.8s0 .1-.1.1v9.3l-7.7-4.5v-9.3l16.2-9.3v8.9zm-.1-10l-16.2 9.3v-8.9l16.2-9.3v8.9zm-.4-9.6l-7.7 4.5-7.7-4.5 5.8-3.4 1.9-1.1 7.7 4.5zm-15.7-.6v-8.5L338 35l-3.7 2.1-3.7 2.1zm16.1-9.3l-8.1 4.7-7.7-4.5 7.9-4.6 7.9-4.6v9zm-16.2-18.7l7.9 4.6 7.9 4.6-7.7 4.4-8.1-4.7v-8.9zm-.3 9.5l7.7 4.5-7.7 4.5-7.7-4.5 7.7-4.5zm-16.4-.1l16.2-9.3v8.9h-.1l-8.3 4.8s0 .1-.1.1v9.3l-7.7-4.5v-9.3zm-.1 19.2v-9.1l7.7 4.5v9.7l.1.1 8.3 4.8v8.9l-7.9-4.6-8.2-4.8v-9.5zm-.3 19.9l7.7 4.5-7.7 4.5-7.7-4.5 7.7-4.5zm-7.8 14.1l7.4-4.3v8.6l-7.4-4.3zm7.1 5l-7.4 4.2v-8.5l7.4 4.3zm-7.4-5.5v-8.5l7.4 4.3-7.4 4.2zm-8.4-13.8l16.2-9.3v8.9h-.1l-8.3 4.8-.1.1v9.3l-7.7-4.5v-9.3zm-.1 19.1v-9.1l7.7 4.5.1 9.6v.1l.1.1 8.3 4.8v8.9l-7.9-4.6-8.3-4.8v-9.5zm.1 10.5l7.9 4.6 7.9 4.6-7.7 4.5-8.1-4.7v-9zm7.3 14l-7.7 4.5-7.7-4.5 7.7-4.5 7.7 4.5zm-7.3 14v-8.6l7.4 4.3-7.4 4.3zm8.1-3.9l7.7 4.5-7.7 4.5-7.7-4.5 7.7-4.5zm-25-14.8l16.2-9.3V98l-8.3 4.8-.1.1v9.3l-7.7-4.5v-9.3h-.1zm8.1-24.2l7.7 4.5-7.7 4.5-7.7-4.5 7.7-4.5zm-8.1 4v-8.6l7.4 4.3-7.4 4.3zm8.8-4.4l7.4-4.3v8.6l-7.4-4.3zm7.4 5.6v8.9L280 97.6v-8.9l16.2-9.3zm-7.7 24.3l7.4 4.3-7.4 4.2v-8.5zm0 9.8l7.4 4.2-7.4 4.3v-8.5zm.3-.7l7.4-4.3v8.6l-7.4-4.3zm7.4-44.1l-8.1 4.7-7.7-4.5 7.9-4.5 7.9-4.6v8.9zM280 50.1l7.9 4.6 7.9 4.6-7.7 4.4L280 59v-8.9zm7.4 14l-7.7 4.5-7.7-4.5 7.7-4.5 7.7 4.5zm-15.8 10.4l7.4 4.2-7.4 4.3v-8.5zm0-1.2v-8.5l7.4 4.3-7.4 4.2zm.3.5l7.4-4.3v8.6l-7.4-4.3zm7.5-14.7l-8.3 4.8-.1.1v9.3l-7.7-4.5v-9.3h-.1l16.2-9.3v8.9zm-.5-19.3l-7.7 4.5-7.7-4.5 5.8-3.4 1.9-1.1 7.7 4.5zm-15.7-.6v-8.5l7.4 4.3-3.7 2.1-3.7 2.1zm16.1-9.3l-8.1 4.7-7.7-4.5 7.9-4.6 7.9-4.6v9zm-16.2-18.7l7.9 4.6 7.9 4.6-7.7 4.4-8.1-4.7v-8.9zm-.3 9.5l7.7 4.5-7.7 4.5-7.7-4.5 7.7-4.5zm-7.7 14.2l7.4-4.3v8.6l-7.4-4.3zm7 4.9l-7.4 4.3v-8.5l7.4 4.2zm-7.4-5.4v-8.6l7.4 4.3-7.4 4.3zm-8.4-13.8l16.2-9.3v8.9l-8.3 4.8s0 .1-.1.1v9.3l-7.8-4.5v-9.3zm16.1 38.2l-7.8-4.7-8.3-4.8V30.8l7.7 4.5V45l.1.1 8.3 4.8v8.9zm-7.3-14.1l7.7-4.5 7.7 4.5-7.7 4.5-7.7-4.5zm8 5l16.2-9.3v8.9l-16.2 9.3v-8.9zm16.1 47.8l-7.8-4.5-8.3-4.8V69.5l7.7 4.5v9.7l.1.1 8.3 4.8v8.9zM272 83.6l7.7-4.5 7.7 4.5-7.7 4.5-7.7-4.5zm24.1 52.9l-7.8-4.5-8.3-4.8v-18.7l7.7 4.5v9.7l.1.1 8.3 4.8v8.9zm.4-9.4l-7.7-4.5 7.7-4.5 7.7 4.5-7.7 4.5zm16.5.1l-16.2 9.3v-8.9l16.2-9.3v8.9zm0-10.1l-7.4-4.3 7.4-4.3v8.6zm0-9.4l-8.1 4.7-7.7-4.5 7.9-4.6 7.9-4.5v8.9zm.4-19.6l-7.7-4.5 7.7-4.5 7.7 4.5-7.7 4.5zm16.4 48.7l-7.8-4.5-8.3-4.8v-18.7l7.7 4.5v9.7l.1.1 8.3 4.8v8.9zm.4-9.4l-7.7-4.5 7.7-4.5 7.7 4.5-7.7 4.5zm16.4 48.4l-7.8-4.6-8.3-4.8v-18.6l7.7 4.5v9.7l.1.1 8.3 4.8v8.9zm.5-9.6l-7.7-4.5 7.7-4.5 7.7 4.5-5.8 3.4-1.9 1.1zm16.5.2l-16.2 9.3v-8.9l8.3-4.8 7.9-4.6v9zm-.4-9.6l-7.7 4.5-7.7-4.5 5.8-3.4 1.9-1.1 7.7 4.5zm.4-9.8l-8.1 4.7-7.7-4.5 7.9-4.6 7.9-4.6v9zm-7.4-24.1l7.7-4.5 7.7 4.5-7.7 4.5-7.7-4.5zm8 13.9v-8.9l16-9.2v8.7c0 .1 0 .1.1.2l-16.1 9.2zm32.8-.2l-7.8-4.5-7.8-4.5V118c0-.1-.1-.2-.2-.3l-.3-.2v-8.8h.1l7.6 4.5v9.7l.1.1 8.3 4.8v8.8zm.5-9.5l-7.7-4.5 7.7-4.5 7.7 4.5-2.6 1.6-5.1 2.9zm16.5.2l-16.2 9.3v-8.9l8.3-4.8 7.9-4.6v9zm-.4-9.6l-7.7 4.5-7.7-4.5 7.7-4.5 7.7 4.5zm.4-9.9l-8.1 4.7-7.7-4.5 7.9-4.6 7.9-4.6v9zm.3-19.6l-7.7-4.5 7.7-4.5 7.7 4.5-7.7 4.5zm16.5.2l-16.2 9.3v-8.9l16.2-9.3v8.9zm40.5-51.9l1.9-1.1 7.7 4.5-7.7 4.5-7.7-4.5 5.8-3.4zm-6.1 2.8v-8.5l7.4 4.3-3.7 2.1-3.7 2.1zm8.7-4.2l7.4-4.3v8.5l-7.4-4.2zm-.6-.4l-7.7-4.5 7.9-4.6 7.9-4.6v9l-8.1 4.7zm-8.1-23.4l7.9 4.6 7.9 4.6-7.7 4.4-8.1-4.7v-8.9zm7.3 14l-7.7 4.5-7.7-4.5 7.7-4.5 7.7 4.5zm-15.7 10.4l7.4 4.2-7.4 4.3v-8.5zm0-1.2v-8.6l7.4 4.3-7.4 4.3zm.3.5l7.4-4.3v8.6l-7.4-4.3zm-8.7-14.3l16.2-9.3v8.9h-.1l-8.3 4.8s0 .1-.1.1v9.3l-7.7-4.5v-9.3zm-.1 29.6l7.9 4.6 7.9 4.6-7.7 4.5-8.1-4.8v-8.9zm-.3 9.4l7.7 4.5-7.7 4.5-7.7-4.5 7.7-4.5zm.3 10l7.4 4.3-7.4 4.3v-8.6zm-8 4.2l7.4-4.3v8.6l-7.4-4.3zm7 4.9l-7.4 4.3v-8.5l7.4 4.2zm-7.4-5.4v-8.6l7.4 4.3-7.4 4.3zm-8.4-13.8l16.2-9.3v8.9h-.1l-8.3 4.8s0 .1-.1.1v9.3l-7.7-4.5v-9.3zm16 38.1l-7.8-4.6-8.3-4.8V69.7l7.7 4.5v9.7l.1.1 8.3 4.8v8.9zm.5-9.5l-7.7-4.5 7.7-4.5 7.7 4.5-7.7 4.5zm16.5.2l-16.2 9.3v-8.9l16.2-9.3v8.9zm-.4-9.6l-7.7 4.5-7.7-4.5 7.7-4.5 7.7 4.5zm.4-9.9l-8.1 4.7-7.7-4.5 7.9-4.6 7.9-4.6v9zm0-10.1l-7.9-4.6-8.2-4.8V30.8l7.7 4.5V45l.1.1 8.3 4.8v8.9zm.3-9.5l-7.7-4.5 7.7-4.5 7.7 4.5-7.7 4.5zm16.6.2l-16.2 9.3v-8.9l16.2-9.3v8.9zm151.2 29.6l-7.7 4.5-7.7-4.5 7.7-4.5 7.7 4.5zm-15.8-.5V70l7.4 4.3-7.4 4.3zm16.2-9.4l-8.1 4.7-7.7-4.5 7.9-4.6 7.9-4.6v9zm-16.2-18.7l7.9 4.6 7.9 4.6-7.7 4.4-8.1-4.7v-8.9zm-.4 9.5l7.7 4.5-7.7 4.5-7.7-4.5 7.7-4.5zm-7.7 14.2l7.4-4.3v8.6l-7.4-4.3zm7.1 5l-7.4 4.2v-8.5l7.4 4.3zm-7.4-5.5v-8.6l7.4 4.3-7.4 4.3zM600 59.9l16.2-9.3v8.9h-.1l-8.3 4.8s0 .1-.1.1v9.3l-7.7-4.5v-9.3zm-.1 19.2V70l7.7 4.5.1 9.5v.1l.1.1 8.3 4.8v9l-7.9-4.6-8.3-4.8v-9.5zm15.9 19.6l-7.7 4.5-8.1-4.8v-8.9l7.9 4.6 7.9 4.6zm-16.2.3l7.7 4.5-7.7 4.5-7.7-4.5 7.7-4.5zm.4 9.9l7.4 4.3-7.4 4.3v-8.6zm-17.2 37.9l-7.7-4.5 7.7-4.5 7.7 4.5-5.8 3.4-1.9 1.1zm.3 1.1l7.4 4.3-7.4 4.3v-8.6zm-16.8-10.2l16.2-9.3v8.9l-8.3 4.8s0 .1-.1.1v9.3l-7.7-4.5v-9.3h-.1zm-16.9-38.9l16.2-9.3v8.9l-8.3 4.8s0 .1-.1.1v9.3l-7.7-4.5v-9.3h-.1zm0-48.5l7.9 4.6 7.9 4.6-7.7 4.5-8.1-4.7v-9zm8.2 14.2l7.9-4.6v8.9l-8.1 4.7-7.7-4.5 7.9-4.5zm.2-30v-8.6l7.4 4.3-7.4 4.3zm7.8-3.8v8.6l-7.4-4.3 7.4-4.3zm-.4 9.3l-7.4 4.2v-8.5l7.4 4.3zm.7.3l7.7 4.5-7.7 4.5-7.7-4.5 7.7-4.5zm8.2 43.9l8.3 4.8v9l-7.9-4.6-8.3-4.8V70l7.8 4.4V84l.1.2zm16.9 19s0 .1 0 0c-.1.1-.1.1-.1.2v9.2l-7.7-4.5v-9.3h-.1l16.2-9.3v8.9l-8.3 4.8zm.5.9l7.4 4.2-7.4 4.3v-8.5zm-8.4-6.1v-9l16.2-9.3v9L583.1 98zm15.8-18.9l-7.7 4.5-7.7-4.5 7.7-4.5 7.7 4.5zm-7-4.9l7.4-4.3v8.6l-7.4-4.3zm-8.8 4.4V70l7.4 4.3-7.4 4.3zm7.3 5.4l-7.6 4.5L575 84l7.7-4.5 7.7 4.5zm-16 28.8l-7.7-4.5 7.9-4.6 7.9-4.6v8.9l-8.1 4.8zm8-3.9v8.5l-7.4-4.2 7.4-4.3zm-8-5.8l-8.1-4.7v-8.9l7.9 4.5 7.9 4.6-7.7 4.5zm.3-19.7v-8.5l7.4 4.3-7.4 4.2zm7.7-4.9l-7.4-4.3 7.4-4.3v8.6zm-7.7-4.8v-8.5l7.4 4.2-7.4 4.3zm-9.1-4.1v8.6l-7.4-4.3 7.4-4.3zm-8.8 4.4l-7.4 4.3v-8.6l7.4 4.3zm.7.3l7.7 4.5-7.7 4.5-7.7-4.5 7.7-4.5zm8.1 5.2v8.9l-16.2 9.3v-8.9l16.2-9.3zm-7.7 24.6l7.4 4.3-7.4 4.3v-8.6zm0 9.8l7.4 4.2-7.4 4.3v-8.5zm.3-.8l7.4-4.2v8.5l-7.4-4.3zm0-9.7l7.7-4.5 7.7 4.5-7.7 4.5-7.7-4.5zm8.1 5.5l7.4 4.3-7.4 4.3v-8.6zm8.1 4.7l7.7 4.5-7.7 4.5-7.7-4.5 7.7-4.5zm8.1 5.1v8.9l-16.2 9.3V128l16.2-9.3zm-7.8 24.3l7.4 4.3-7.4 4.3V143zm0 9.7l7.4 4.3-7.4 4.3v-8.6zm.3-.6l7.4-4.3v8.5l-7.4-4.2zm8.1-14.8v-8.9l7.9 4.6 7.8 4.5.1.1-7.7 4.5-8.1-4.8zm14.3-1.4l-6-3.5-8.3-4.8V109l7.7 4.5v9.7l.1.1 8.3 4.8v8.9l-1.8-1.1zm-5.9-22.1l7.4 4.3-7.4 4.2v-8.5zm.4-.6l7.4-4.3v8.6l-7.4-4.3zm7.4-44.1l-8.1 4.7-7.7-4.5 7.9-4.6 7.9-4.5v8.9zm-16.2-18.6l7.9 4.6 7.9 4.6-7.7 4.4-8.1-4.7v-8.9zm7.4 14l-7.7 4.5-7.7-4.5 7.7-4.5 7.7 4.5zm-8-5h-.1l-8.3 4.8s0 .1-.1.1v9.3l-7.7-4.5v-9.3l16.2-9.3v8.9zm-.1-10l-16.2 9.3v-8.9l16.2-9.3v8.9zm-.4-9.6l-7.7 4.5-7.7-4.5 5.8-3.4 1.9-1.1 7.7 4.5zm-15.7-.6v-8.5l7.4 4.3-3.7 2.1-3.7 2.1zm16.1-9.3l-8.1 4.7-7.7-4.5 7.9-4.6 7.9-4.6v9zm-16.2-18.7l7.9 4.6 7.9 4.6-7.7 4.4-8.1-4.7v-8.9zm-.3 9.5l7.7 4.5-7.7 4.5-7.7-4.5 7.7-4.5zm-16.4-.1l16.2-9.3v8.9h-.1l-8.3 4.8s0 .1-.1.1v9.3l-7.7-4.5v-9.3zm-.1 19.2v-9.1l7.7 4.5V45l.1.1 8.3 4.8v8.9l-7.9-4.6-8.2-4.8v-9.5zm-.3 19.9l7.7 4.5-7.7 4.5-7.7-4.5 7.7-4.5zm-7.8 14.1l7.4-4.3v8.6l-7.4-4.3zm7.1 5l-7.4 4.2v-8.5l7.4 4.3zm-7.4-5.5v-8.5l7.4 4.3-7.4 4.2zm-8.4-13.8l16.2-9.3v8.9h-.1l-8.3 4.8-.1.1v9.3l-7.7-4.5v-9.3zm-.1 19.1v-9.1l7.7 4.5.1 9.6v.1l.1.1 8.3 4.8v8.9l-7.9-4.6-8.3-4.8v-9.5zm.1 10.5l7.9 4.6 7.9 4.6-7.7 4.5-8.1-4.7v-9zm7.3 14l-7.7 4.5-7.7-4.5 7.7-4.5 7.7 4.5zm-7.3 14v-8.6l7.4 4.3-7.4 4.3zm8.1-3.9l7.7 4.5-7.7 4.5-7.7-4.5 7.7-4.5zm-25-14.8l16.2-9.3v8.9l-8.3 4.8-.1.1v9.3l-7.7-4.5v-9.3h-.1zm8.1-24.2l7.7 4.5-7.7 4.5-7.7-4.5 7.7-4.5zm-8.1 4v-8.6l7.4 4.3-7.4 4.3zm8.8-4.4l7.4-4.3v8.6l-7.4-4.3zm7.4 5.6v8.9l-16.2 9.3v-8.9l16.2-9.3zm-7.7 24.3l7.4 4.3-7.4 4.2v-8.5zm0 9.8l7.4 4.2-7.4 4.3v-8.5zm.3-.7l7.4-4.3v8.6l-7.4-4.3zm7.4-44.1l-8.1 4.7-7.7-4.5 7.9-4.5 7.9-4.6v8.9zm-16.2-18.6l7.9 4.6 7.9 4.6-7.7 4.4-8.1-4.7v-8.9zm7.4 14l-7.7 4.5-7.7-4.5 7.7-4.5 7.7 4.5zm-15.8 10.4l7.4 4.2-7.4 4.3v-8.5zm0-1.2v-8.5l7.4 4.3-7.4 4.2zm.3.5l7.4-4.3v8.6l-7.4-4.3zm7.5-14.7l-8.3 4.8-.1.1v9.3l-7.7-4.5v-9.3h-.1l16.2-9.3v8.9zm-.5-19.3l-7.7 4.5-7.7-4.5 5.8-3.4 1.9-1.1 7.7 4.5zm-15.7-.6v-8.5l7.4 4.3-3.7 2.1-3.7 2.1zM515 30l-8.1 4.7-7.7-4.5 7.9-4.6L515 21v9zm-16.2-18.7l7.9 4.6 7.9 4.6-7.7 4.4-8.1-4.7v-8.9zm-.3 9.5l7.7 4.5-7.7 4.5-7.7-4.5 7.7-4.5zM490.8 35l7.4-4.3v8.6l-7.4-4.3zm7 4.9l-7.4 4.3v-8.5l7.4 4.2zm-7.4-5.4v-8.6l7.4 4.3-7.4 4.3zM482 20.7l16.2-9.3v8.9l-8.3 4.8s0 .1-.1.1v9.3L482 30v-9.3zm16.1 38.2l-7.8-4.7-8.3-4.8V30.9l7.7 4.5v9.7l.1.1 8.3 4.8v8.9zm-7.3-14.1l7.7-4.5 7.7 4.5-7.7 4.5-7.7-4.5zm8 5l16.2-9.3v8.9l-16.2 9.3v-8.9zm16.1 47.8l-7.8-4.5-8.3-4.8V69.6l7.7 4.5v9.7l.1.1 8.3 4.8v8.9zm-7.2-13.9l7.7-4.5 7.7 4.5-7.7 4.5-7.7-4.5zm24.1 52.9l-7.8-4.5-8.3-4.8v-18.7l7.7 4.5v9.7l.1.1 8.3 4.8v8.9zm.4-9.4l-7.7-4.5 7.7-4.5 7.7 4.5-7.7 4.5zm16.5.1l-16.2 9.3v-8.9l16.2-9.3v8.9zm0-10.1l-7.4-4.3 7.4-4.3v8.6zm0-9.4l-8.1 4.7-7.7-4.5 7.9-4.6 7.9-4.5v8.9zm.4-19.6l-7.7-4.5 7.7-4.5 7.7 4.5-7.7 4.5zm16.4 48.7l-7.8-4.5-8.3-4.8v-18.7l7.7 4.5v9.7l.1.1 8.3 4.8v8.9zm.4-9.4l-7.7-4.5 7.7-4.5 7.7 4.5-7.7 4.5zm16.4 48.4l-7.8-4.6-8.3-4.8v-18.6l7.7 4.5v9.7l.1.1 8.3 4.8v8.9zm.5-9.6l-7.7-4.5 7.7-4.5 7.7 4.5-5.8 3.4-1.9 1.1zm16.5.2l-16.2 9.3v-8.9l8.3-4.8 7.9-4.6v9zm-.4-9.6l-7.7 4.5-7.7-4.5 5.8-3.4 1.9-1.1 7.7 4.5zm.4-9.8l-8.1 4.7-7.7-4.5 7.9-4.6 7.9-4.6v9zm-7.4-24.1l7.7-4.5 7.7 4.5-7.7 4.5-7.7-4.5zm24.2 4.6l-16.2 9.3V128l16.2-9.3v8.9zm-.4-9.6l-7.7 4.5-7.7-4.5 7.7-4.5 7.7 4.5zm.4-9.9l-8.1 4.7-7.7-4.5 7.9-4.6 7.9-4.6v9zM608.8 84l7.7-4.5 7.7 4.5-7.7 4.5-7.7-4.5zm24.2 4.7L616.8 98v-9l16.2-9.3v9z" class="st1"/></svg>