<?xml version="1.0" encoding="utf-8"?>
<!-- Generator: Adobe Illustrator 24.0.1, SVG Export Plug-In . SVG Version: 6.00 Build 0)  -->
<svg version="1.1" xmlns="http://www.w3.org/2000/svg" xmlns:xlink="http://www.w3.org/1999/xlink" x="0px" y="0px"
	 viewBox="0 0 637.7 181.8" style="enable-background:new 0 0 637.7 181.8;" xml:space="preserve">
<style type="text/css">
	.st0{fill:#CEC2CD;}
	.st1{fill:url(#SVGID_1_);}
</style>
<g id="Layer_4">
	<rect class="st0" width="637.7" height="181.8"/>
</g>
<g id="Layer_3">
	<linearGradient id="SVGID_1_" gradientUnits="userSpaceOnUse" x1="380.2628" y1="93.6054" x2="633.6462" y2="93.6054">
		<stop  offset="0" style="stop-color:#E8E7E8"/>
		<stop  offset="0.16" style="stop-color:#E9E6E4"/>
		<stop  offset="0.34" style="stop-color:#EBE3D6"/>
		<stop  offset="0.53" style="stop-color:#EFDFC0"/>
		<stop  offset="0.72" style="stop-color:#F4D8A2"/>
		<stop  offset="0.91" style="stop-color:#FBD07B"/>
		<stop  offset="1" style="stop-color:#FFCC66"/>
	</linearGradient>
	<path class="st1" d="M633.6,69.4v-9.7c0-0.1-0.1-0.2-0.2-0.3l-8.4-4.9c0,0,0,0,0,0c0,0,0,0,0,0l-8.4-4.9c-0.1-0.1-0.2-0.1-0.3,0
		l-16.7,9.6l-8.2-4.8c0,0,0,0,0,0c0,0,0,0,0,0l-8.3-4.8c0,0,0,0,0,0V40c0,0,0,0,0,0c0,0,0,0,0,0c0-0.1-0.1-0.2-0.2-0.3l-7.9-4.6
		l7.9-4.6c0.1-0.1,0.2-0.2,0.2-0.3v-9.7c0-0.1-0.1-0.2-0.2-0.3l-8.4-4.9c0,0,0,0,0,0c0,0,0,0,0,0l-8.4-4.9c-0.1-0.1-0.2-0.1-0.3,0
		l-16.8,9.7c0,0,0,0,0,0c0,0,0,0.1-0.1,0.1c0,0,0,0.1-0.1,0.1c0,0,0,0,0,0v9.7v0v9.7c0,0,0,0,0,0c0,0,0,0,0,0v9.5L532.2,59l-8.2-4.8
		c0,0,0,0,0,0c0,0,0,0,0,0l-8.3-4.8V40c0,0,0,0,0,0c0,0,0,0,0,0c0-0.1-0.1-0.2-0.2-0.3l-7.9-4.6l7.9-4.6c0.1-0.1,0.2-0.2,0.2-0.3
		v-9.7c0-0.1-0.1-0.2-0.2-0.3l-8.4-4.9c0,0,0,0,0,0c0,0,0,0,0,0l-8.4-4.9c-0.1-0.1-0.2-0.1-0.3,0l-16.7,9.6l-8.2-4.8c0,0,0,0,0,0
		c0,0,0,0,0,0l-8.4-4.9c-0.1-0.1-0.2-0.1-0.3,0l-16.8,9.7c0,0,0,0,0,0c0,0,0,0.1-0.1,0.1c0,0,0,0.1-0.1,0.1c0,0,0,0,0,0v9.7v0v9.7
		c0,0,0,0,0,0c0,0,0,0,0,0v9.5L431.1,59l-8.2-4.8c0,0,0,0,0,0c0,0,0,0,0,0l-8.2-4.8V40c0,0,0,0,0,0c0,0,0,0,0,0
		c0-0.1-0.1-0.2-0.2-0.3l-7.9-4.6l7.9-4.6c0.1-0.1,0.2-0.2,0.2-0.3v-9.7c0-0.1-0.1-0.2-0.2-0.3l-8.4-4.9c0,0,0,0,0,0c0,0,0,0,0,0
		l-8.4-4.9c-0.1-0.1-0.2-0.1-0.3,0l-16.8,9.7c0,0,0,0,0,0c0,0,0,0.1-0.1,0.1c0,0,0,0.1-0.1,0.1c0,0,0,0,0,0v9.7v0v9.7c0,0,0,0,0,0
		c0,0,0,0,0,0v9.7c0,0,0,0,0,0.1c0,0.1,0,0.1,0.1,0.2c0,0,0,0,0,0c0,0,0,0.1,0.1,0.1l8.4,4.9l8.3,4.8v9.5v0v9.7c0,0,0,0,0,0
		c0,0,0,0,0,0v9.6L380.4,98c0,0,0,0,0,0c0,0,0,0.1-0.1,0.1c0,0,0,0.1-0.1,0.1c0,0,0,0,0,0v9.7v0v9.7c0,0,0,0,0,0c0,0,0,0,0,0v9.7
		c0,0,0,0,0,0.1c0,0.1,0,0.1,0.1,0.2c0,0,0,0,0,0c0,0,0,0.1,0.1,0.1l8.4,4.9l8.4,4.9c0.1,0,0.1,0,0.2,0c0,0,0,0,0,0c0,0,0,0,0,0
		c0.1,0,0.1,0,0.2,0l16.8-9.7c0.1-0.1,0.2-0.2,0.2-0.3v-9.7c0,0,0,0,0,0c0,0,0,0,0,0c0-0.1-0.1-0.2-0.2-0.3l-7.9-4.6l7.9-4.6
		c0.1-0.1,0.2-0.2,0.2-0.3v-9.5l16.5-9.5l8.3,4.8l8.4,4.9c0.1,0,0.1,0,0.2,0c0,0,0,0,0,0c0,0,0,0,0,0c0.1,0,0.1,0,0.2,0l16.8-9.7
		c0.1-0.1,0.2-0.2,0.2-0.3v-9.7c0,0,0,0,0,0c0,0,0,0,0,0c0-0.1-0.1-0.2-0.2-0.3l-7.9-4.6l7.9-4.6c0.1-0.1,0.2-0.2,0.2-0.3v-9.5
		l16.5-9.5l8.3,4.8l8.3,4.8v9.5v0v9.7c0,0,0,0,0,0c0,0,0,0,0,0v9.7c0,0,0,0,0,0.1c0,0.1,0,0.1,0.1,0.2c0,0,0,0,0,0
		c0,0,0,0.1,0.1,0.1l8.4,4.9l8.3,4.8v9.5v0v9.7c0,0,0,0,0,0c0,0,0,0,0,0v9.7c0,0,0,0,0,0.1c0,0.1,0,0.1,0.1,0.2c0,0,0,0,0,0
		c0,0,0,0.1,0.1,0.1l8.4,4.9l8.4,4.9c0.1,0,0.1,0,0.2,0c0,0,0,0,0,0c0,0,0,0,0,0c0.1,0,0.1,0,0.2,0l16.5-9.5c0,0,0,0,0,0.1l8.4,4.9
		l8.3,4.8v9.5v0v9.7c0,0,0,0,0,0c0,0,0,0,0,0v9.7c0,0,0,0,0,0.1c0,0.1,0,0.1,0.1,0.2c0,0,0,0,0,0c0,0,0,0.1,0.1,0.1l8.4,4.9l8.4,4.9
		c0.1,0,0.1,0,0.2,0c0,0,0,0,0,0c0,0,0,0,0,0c0.1,0,0.1,0,0.2,0l16.8-9.7c0.1-0.1,0.2-0.2,0.2-0.3V157c0,0,0,0,0,0c0,0,0,0,0,0
		c0-0.1-0.1-0.2-0.2-0.3l-7.9-4.6l7.9-4.6c0.1-0.1,0.2-0.2,0.2-0.3v-9.5l16.7-9.6c0.1-0.1,0.2-0.2,0.2-0.3v-9.7c0,0,0,0,0,0
		c0,0,0,0,0,0c0-0.1-0.1-0.2-0.2-0.3l-7.9-4.6l7.9-4.6c0.1-0.1,0.2-0.2,0.2-0.3v-9.6l16.7-9.6c0.1-0.1,0.2-0.2,0.2-0.3v-9.7
		c0,0,0,0,0,0c0,0,0,0,0,0c0-0.1-0.1-0.2-0.2-0.3l-7.9-4.6l7.9-4.6C633.6,69.6,633.6,69.5,633.6,69.4z M584.7,145.7l-1.9,1.1
		l-7.7-4.5l7.7-4.5l7.7,4.5L584.7,145.7z M616.8,70l7.4,4.3l-7.4,4.3V70z M600,108.9l7.4,4.3l-7.4,4.3V108.9z M574.7,152.7l7.4,4.3
		l-7.4,4.3V152.7z M582.1,147.3l-7.4,4.3V143L582.1,147.3z M575,152.1l7.4-4.3v8.5L575,152.1z M548.7,98.9v8.9l-8.1,4.7l-7.7-4.5
		l7.9-4.6c0,0,0,0,0,0c0,0,0,0,0,0L548.7,98.9z M531.6,117.8l-7.4,4.3v-8.5L531.6,117.8z M532.6,108.6l7.4,4.3l-7.4,4.3V108.6z
		 M531.9,117.2l-7.4-4.3l7.4-4.3V117.2z M524.2,112.3v-8.5l7.4,4.3L524.2,112.3z M532.2,118.2l7.7,4.5l-7.7,4.5l-7.7-4.5
		L532.2,118.2z M540.7,113.3l7.7,4.5l-7.7,4.5l-7.7-4.5L540.7,113.3z M557.8,25.9l7.4,4.3l-7.4,4.3V25.9z M558.2,25.3l7.7-4.5
		l7.7,4.5l-7.7,4.5L558.2,25.3z M608.4,65.1l7.4,4.3l-7.4,4.3V65.1z M608.4,83.4v-8.5l7.4,4.3L608.4,83.4z M607.7,84
		C607.7,84,607.7,84,607.7,84C607.7,84,607.7,84,607.7,84C607.7,84,607.7,84,607.7,84c0,0.1,0,0.1,0,0.1c0,0,0,0,0,0
		c0,0,0.1,0.1,0.1,0.1c0,0,0,0,0,0l8.3,4.8V98l-7.9-4.6l-8.3-4.8v-9.5v0c0,0,0,0,0,0c0,0,0,0,0,0V70l7.7,4.5L607.7,84
		C607.7,83.9,607.7,84,607.7,84z M565.3,118.1l-7.4,4.3v-8.5L565.3,118.1z M515.7,69.7l7.4,4.3l-7.4,4.3V69.7z M523.8,83.3l-7.7-4.5
		l7.7-4.5l7.7,4.5L523.8,83.3z M515,78.2l-7.4-4.3l7.4-4.3V78.2z M515.7,88.8l16.2-9.3v8.9l-16.2,9.3V88.8z M549.4,69.7l7.4,4.3
		l-7.4,4.3V69.7z M598.9,108.3l-7.4,4.3v-8.5L598.9,108.3z M557.9,104.1l7.4,4.3l-7.4,4.3V104.1z M566.3,108.9l7.4,4.3l-7.4,4.3
		V108.9z M574.4,112.8l-7.7-4.5l7.9-4.6c0,0,0,0,0,0c0,0,0,0,0,0l7.9-4.6v8.9L574.4,112.8z M599.3,88.7L583.1,98V89l16.2-9.3V88.7z
		 M582.8,88.5L575,84l7.7-4.5l7.7,4.5L582.8,88.5z M574.7,83.4v-8.5l7.4,4.3L574.7,83.4z M582.4,78.5l-7.4-4.3l7.4-4.3V78.5z
		 M583.1,70l7.4,4.3l-7.4,4.3V70z M582.1,69.4l-7.4,4.3v-8.5L582.1,69.4z M574,74.4v9.5c0,0,0,0.1,0,0.1c0,0,0,0,0,0c0,0,0,0,0,0
		c0,0,0,0,0,0c0,0,0,0,0,0.1c0,0,0,0,0,0c0,0,0.1,0.1,0.1,0.1c0,0,0,0,0,0l8.3,4.8V98l-7.9-4.6l-8.3-4.8v-9.6c0,0,0,0,0,0
		c0,0,0,0,0,0V70L574,74.4z M565.6,108.9v8.5l-7.4-4.3L565.6,108.9z M574.4,113.6l7.7,4.5l-7.7,4.5l-7.7-4.5L574.4,113.6z
		 M575,113.2l7.4-4.3v8.5L575,113.2z M583.1,98.8l16.2-9.3v8.9l-8.3,4.8c0,0,0,0,0,0c0,0,0,0,0,0c0,0,0,0,0,0c0,0,0,0.1-0.1,0.1
		c0,0,0,0,0,0.1c0,0,0,0,0,0.1v9.1l-7.7-4.5V98.8z M591.2,83.6l-7.7-4.5l7.7-4.5l7.7,4.5L591.2,83.6z M541,83.1v-8.5l7.4,4.3
		L541,83.1z M556.8,83.7l-7.7,4.5l-7.7-4.5l7.7-4.5L556.8,83.7z M557.5,83.3l-7.7-4.5l7.7-4.5l7.7,4.5L557.5,83.3z M548.7,78.2
		l-7.4-4.3l7.4-4.3V78.2z M549.4,88.8l16.2-9.3v8.9l-16.2,9.3V88.8z M574.2,94C574.2,94,574.2,94,574.2,94l7.9,4.6l-7.7,4.5
		l-8.1-4.7v-8.9L574.2,94C574.2,94,574.2,94,574.2,94z M565.9,107.9l-7.7-4.5l7.7-4.5l7.7,4.5L565.9,107.9z M591.5,122.3v-8.5
		l7.4,4.3L591.5,122.3z M599.3,78.5l-7.4-4.3l7.4-4.3V78.5z M582.8,69l-7.7-4.5l7.7-4.5l7.7,4.5L582.8,69z M582.4,59.5l-8.3,4.8
		c0,0,0,0,0,0c0,0,0,0,0,0c0,0,0,0,0,0c0,0,0,0.1-0.1,0.1c0,0,0,0,0,0.1c0,0,0,0,0,0.1v9.1l-7.7-4.5v-9.3l16.2-9.3V59.5z
		 M565.9,49.3l-7.7-4.5l7.7-4.5l7.7,4.5L565.9,49.3z M557.8,44.2v-8.5l7.4,4.3L557.8,44.2z M565.6,78.2l-7.4-4.3l7.4-4.3V78.2z
		 M540.3,83.7C540.3,83.7,540.3,83.7,540.3,83.7C540.3,83.7,540.3,83.7,540.3,83.7C540.3,83.7,540.3,83.7,540.3,83.7
		c0,0.1,0,0.1,0,0.1c0,0,0,0,0,0c0,0,0.1,0.1,0.1,0.1c0,0,0,0,0,0l8.3,4.8v8.9l-7.9-4.6l-8.3-4.8v-9.5v0c0,0,0,0,0,0c0,0,0,0,0,0
		v-9.1l7.7,4.5L540.3,83.7C540.3,83.6,540.3,83.7,540.3,83.7z M531.9,78.2l-7.4-4.3l7.4-4.3V78.2z M514.7,78.8l-7.4,4.3v-8.5
		L514.7,78.8z M515.4,79.2l7.7,4.5l-7.7,4.5l-7.7-4.5L515.4,79.2z M532.6,89.2l7.9,4.6c0,0,0,0,0,0c0,0,0,0,0,0l7.9,4.6l-7.7,4.5
		l-8.1-4.7V89.2z M565.9,118.5l7.7,4.5l-7.7,4.5l-7.7-4.5L565.9,118.5z M566.3,128l16.2-9.3v8.9l-16.2,9.3V128z M583.1,137.3v-8.9
		l7.9,4.6c0,0,0,0,0,0l0,0c0,0,0,0,0,0l7.8,4.5l0.1,0.1l-7.7,4.5L583.1,137.3z M591.4,132.4l-8.3-4.8v-9.5v0c0,0,0,0,0,0
		c0,0,0,0,0,0v-9.1l7.7,4.5v9.5c0,0,0,0.1,0,0.1c0,0,0,0,0,0c0,0,0,0,0,0c0,0,0,0,0,0c0,0,0,0,0,0.1c0,0,0,0,0,0
		c0,0,0.1,0.1,0.1,0.1c0,0,0,0,0,0l8.3,4.8v8.9l-1.8-1.1L591.4,132.4z M599.6,118.5l7.7,4.5l-7.7,4.5l-7.7-4.5L599.6,118.5z
		 M599.3,117.5l-7.4-4.3l7.4-4.3V117.5z M591.9,103.5l7.7-4.5l7.7,4.5l-7.7,4.5L591.9,103.5z M600,98.4v-8.9l7.9,4.6c0,0,0,0,0,0
		c0,0,0,0,0,0l7.9,4.6l-7.7,4.5L600,98.4z M616.5,79.5l7.7,4.5l-7.7,4.5l-7.7-4.5L616.5,79.5z M616.1,78.5l-7.4-4.3l7.4-4.3V78.5z
		 M608.7,64.5l7.7-4.5l7.7,4.5l-7.7,4.5L608.7,64.5z M599.3,60.2v8.9l-8.1,4.7l-7.7-4.5l7.9-4.6c0,0,0,0,0,0c0,0,0,0,0,0L599.3,60.2
		z M582.4,49.5l-16.2,9.3v-8.9l16.2-9.3V49.5z M565.6,39.3l-7.4-4.3l7.4-4.3V39.3z M557.1,35.3v9.5c0,0,0,0.1,0,0.1c0,0,0,0,0,0
		c0,0,0,0,0,0c0,0,0,0,0,0c0,0,0,0,0,0.1c0,0,0,0,0,0c0,0,0.1,0.1,0.1,0.1c0,0,0,0,0,0l8.3,4.8v8.9l-7.9-4.6c0,0,0,0,0,0
		c0,0,0,0,0,0l-8.2-4.8v-9.5c0,0,0,0,0,0c0,0,0,0,0,0v-9.1L557.1,35.3z M549.4,50.3l7.9,4.6l7.9,4.6l-7.7,4.5l-8.1-4.7V50.3z
		 M557.6,64.5C557.7,64.5,557.7,64.5,557.6,64.5C557.7,64.5,557.7,64.5,557.6,64.5l7.9-4.6v8.9l-8.1,4.7l-7.7-4.5L557.6,64.5z
		 M541,73.4v-8.5l7.4,4.3L541,73.4z M524,64.5C524,64.5,524,64.5,524,64.5C524,64.5,524,64.5,524,64.5l7.9-4.6v8.9l-8.1,4.7
		l-7.7-4.5L524,64.5z M507.3,73.4v-8.5l7.4,4.3L507.3,73.4z M532.2,98.7l7.7,4.5l-7.7,4.5l-7.7-4.5L532.2,98.7z M541.3,112.9
		l7.4-4.3v8.6L541.3,112.9z M583.1,147.9l7.4,4.3l-7.4,4.3V147.9z M566.3,39.3v-8.5l7.4,4.3l-3.7,2.1L566.3,39.3z M549.1,59.8
		l7.7,4.5l-7.7,4.5l-7.7-4.5L549.1,59.8z M515.4,68.7l-7.7-4.5l7.7-4.5l7.7,4.5L515.4,68.7z M515,49.4l-16.2,9.3v-8.9l16.2-9.3V49.4
		z M490.4,25.9l7.4,4.3l-7.4,4.3V25.9z M490.8,25.3l7.7-4.5l7.7,4.5l-7.7,4.5L490.8,25.3z M497.8,39.9l-7.4,4.3v-8.5L497.8,39.9z
		 M498.5,40.3l7.7,4.5l-7.7,4.5l-7.7-4.5L498.5,40.3z M498.2,39.3l-7.4-4.3l7.4-4.3V39.3z M498.9,39.3v-8.5l7.4,4.3l-3.7,2.1
		L498.9,39.3z M448.3,69.7l7.4,4.3l-7.4,4.3V69.7z M448,79.2l7.7,4.5l-7.7,4.5l-7.7-4.5L448,79.2z M439.9,64.8l7.4,4.3l-7.4,4.3
		V64.8z M447.3,78.8l-7.4,4.3v-8.5L447.3,78.8z M447.7,78.2l-7.4-4.3l7.4-4.3V78.2z M440.3,64.2l7.7-4.5l7.7,4.5l-7.7,4.5
		L440.3,64.2z M448.3,59.2v-8.9l7.9,4.6l7.9,4.6l-7.7,4.5L448.3,59.2z M456.8,25.9l7.4,4.3l-7.4,4.3V25.9z M464.5,39.3l-7.4-4.3
		l7.4-4.3V39.3z M464.2,39.9l-7.4,4.3v-8.5L464.2,39.9z M465.2,39.3v-8.5l7.4,4.3l-3.7,2.1L465.2,39.3z M464.8,29.8l-7.7-4.5
		l7.7-4.5l7.7,4.5L464.8,29.8z M464.8,40.3l7.7,4.5l-7.7,4.5l-7.7-4.5L464.8,40.3z M465.5,39.9l5.8-3.4l1.9-1.1l7.7,4.5l-7.7,4.5
		L465.5,39.9z M473.3,34.7l-7.7-4.5l7.9-4.6c0,0,0,0,0,0c0,0,0,0,0,0l7.9-4.6V30L473.3,34.7z M456.1,35.3v9.5c0,0,0,0.1,0,0.1
		c0,0,0,0,0,0c0,0,0,0,0,0c0,0,0,0,0,0c0,0,0,0,0,0.1c0,0,0,0,0,0c0,0,0.1,0.1,0.1,0.1c0,0,0,0,0,0l8.3,4.8v8.9l-7.9-4.6
		c0,0,0,0,0,0c0,0,0,0,0,0l-8.2-4.8v-9.5c0,0,0,0,0,0c0,0,0,0,0,0v-9.1L456.1,35.3z M473.9,35.1l7.4-4.3v8.5L473.9,35.1z
		 M402.6,124.2l-5.1,2.9l-7.7-4.5l7.7-4.5l7.7,4.5L402.6,124.2z M430.8,60v8.9l-8.1,4.7l-7.7-4.5l7.9-4.6c0,0,0,0,0,0c0,0,0,0,0,0
		L430.8,60z M397.8,108.6l7.4,4.3l-7.4,4.3V108.6z M389.4,103.8l7.4,4.3l-7.4,4.3V103.8z M396.8,117.7l-7.4,4.3v-8.5L396.8,117.7z
		 M397.1,117.1l-7.4-4.3l7.4-4.3V117.1z M389.7,103.2l7.7-4.5l7.7,4.5l-7.7,4.5L389.7,103.2z M397.8,98.1v-8.9l7.9,4.6c0,0,0,0,0,0
		c0,0,0,0,0,0l7.9,4.6l-7.7,4.5L397.8,98.1z M413.6,78.8l-7.4,4.3v-8.5L413.6,78.8z M414,78.2l-7.4-4.3l7.4-4.3V78.2z M406.2,64.8
		l7.4,4.3l-7.4,4.3V64.8z M414.6,69.7L422,74l-7.4,4.3V69.7z M414.3,68.7l-7.7-4.5l7.7-4.5l7.7,4.5L414.3,68.7z M414.3,79.2l7.7,4.5
		l-7.7,4.5l-7.7-4.5L414.3,79.2z M422.7,74.3l7.7,4.5l-7.7,4.5l-7.7-4.5L422.7,74.3z M389.4,25.9l7.4,4.3l-7.4,4.3V25.9z
		 M389.7,25.3l7.7-4.5l7.7,4.5l-7.7,4.5L389.7,25.3z M396.8,39.9l-7.4,4.3v-8.5L396.8,39.9z M397.5,40.3l7.7,4.5l-7.7,4.5l-7.7-4.5
		L397.5,40.3z M414,49.4l-16.2,9.3v-8.9l16.2-9.3V49.4z M397.1,39.3l-7.4-4.3l7.4-4.3V39.3z M405.5,74.1v9.5c0,0,0,0.1,0,0.1
		c0,0,0,0,0,0c0,0,0,0,0,0c0,0,0,0,0,0c0,0,0,0,0,0.1c0,0,0,0,0,0c0,0,0.1,0.1,0.1,0.1c0,0,0,0,0,0l8.3,4.8v8.9l-7.9-4.6l-8.3-4.8
		v-9.6c0,0,0,0,0,0c0,0,0,0,0,0v-9.1L405.5,74.1z M423.4,74l7.4-4.3v8.5L423.4,74z M414,59.2l-8.3,4.8c0,0,0,0,0,0c0,0,0,0,0,0
		c0,0,0,0,0,0c0,0,0,0.1-0.1,0.1c0,0,0,0,0,0.1c0,0,0,0,0,0.1v9.1l-7.7-4.5v-9.3l16.2-9.3V59.2z M397.8,39.3v-8.5l7.4,4.3l-3.7,2.1
		L397.8,39.3z M498.9,59.6l16.2-9.3v8.9l-8.3,4.8c0,0,0,0,0,0c0,0,0,0,0,0c0,0,0,0-0.1,0.1c0,0,0,0,0,0.1c0,0,0,0.1,0,0.1
		c0,0,0,0,0,0v9.1l-7.7-4.5V59.6z M515.7,98.5l16.2-9.3v8.9l-8.3,4.8c0,0,0,0,0,0c0,0,0,0,0,0c0,0,0,0-0.1,0.1c0,0,0,0,0,0.1
		c0,0,0,0.1,0,0.1c0,0,0,0,0,0v9.1l-7.7-4.5V98.5z M549.4,98.8l16.2-9.3v8.9l-8.3,4.8c0,0,0,0,0,0c0,0,0,0,0,0c0,0,0,0,0,0
		c0,0,0,0.1-0.1,0.1c0,0,0,0,0,0.1c0,0,0,0,0,0.1v9.1l-7.7-4.5V98.8z M566.3,137.7l16.2-9.3v8.9l-8.3,4.8c0,0,0,0,0,0c0,0,0,0,0,0
		c0,0,0,0,0,0c0,0,0,0.1-0.1,0.1c0,0,0,0,0,0.1c0,0,0,0,0,0.1v9.1l-7.7-4.5V137.7z M582.8,166.3l-7.7-4.5l7.7-4.5l7.7,4.5l-5.8,3.4
		L582.8,166.3z M624.9,64.1l-8.1-4.7v-8.9l7.9,4.6c0,0,0,0,0,0c0,0,0,0,0,0l7.9,4.6L624.9,64.1z M616.1,59.5l-8.3,4.8c0,0,0,0,0,0
		c0,0,0,0,0,0c0,0,0,0,0,0c0,0,0,0.1-0.1,0.1c0,0,0,0,0,0.1c0,0,0,0,0,0.1v9.1l-7.7-4.5v-9.3l16.2-9.3V59.5z M591.2,64.1l-8.1-4.7
		v-8.9l7.9,4.6c0,0,0,0,0,0c0,0,0,0,0,0l7.9,4.6L591.2,64.1z M574.3,44.4l-7.7-4.5l5.8-3.4l1.9-1.1l7.7,4.5L574.3,44.4z M582.4,30
		l-8.1,4.7l-7.7-4.5l7.9-4.6c0,0,0,0,0,0c0,0,0,0,0,0l7.9-4.6V30z M574.3,24.9l-8.1-4.7v-8.9l7.9,4.6c0,0,0,0,0,0c0,0,0,0,0,0
		l7.9,4.6L574.3,24.9z M565.6,20.3l-8.3,4.8c0,0,0,0,0,0c0,0,0,0,0,0c0,0,0,0,0,0c0,0,0,0.1-0.1,0.1c0,0,0,0,0,0.1c0,0,0,0,0,0.1
		v9.1l-7.7-4.5v-9.3l16.2-9.3V20.3z M548.7,59.2l-8.3,4.8c0,0,0,0,0,0c0,0,0,0,0,0c0,0,0,0-0.1,0.1c0,0,0,0,0,0.1c0,0,0,0.1,0,0.1
		c0,0,0,0,0,0v9.1l-7.7-4.5v-9.3l16.2-9.3V59.2z M523.8,63.8l-8.1-4.7v-8.9l7.9,4.6c0,0,0,0,0,0c0,0,0,0,0,0l7.9,4.6L523.8,63.8z
		 M506.9,44.4l-7.7-4.5l5.8-3.4l1.9-1.1l7.7,4.5L506.9,44.4z M515,30l-8.1,4.7l-7.7-4.5l7.9-4.6c0,0,0,0,0,0c0,0,0,0,0,0l7.9-4.6V30
		z M506.9,24.9l-8.1-4.7v-8.9l7.9,4.6c0,0,0,0,0,0c0,0,0,0,0,0l7.9,4.6L506.9,24.9z M498.2,20.3l-8.3,4.8c0,0,0,0,0,0c0,0,0,0,0,0
		c0,0,0,0,0,0c0,0,0,0.1-0.1,0.1c0,0,0,0,0,0.1c0,0,0,0,0,0.1v9.1L482,30v-9.3l16.2-9.3V20.3z M473.3,24.9l-8.1-4.7v-8.9l7.9,4.6
		c0,0,0,0,0,0c0,0,0,0,0,0l7.9,4.6L473.3,24.9z M464.5,20.3l-8.3,4.8c0,0,0,0,0,0c0,0,0,0,0,0c0,0,0,0,0,0c0,0,0,0.1-0.1,0.1
		c0,0,0,0,0,0.1c0,0,0,0,0,0.1v9.1l-7.7-4.5v-9.3l16.2-9.3V20.3z M447.6,59.2l-8.3,4.8c0,0,0,0,0,0c0,0,0,0,0,0c0,0,0,0,0,0
		c0,0,0,0.1-0.1,0.1c0,0,0,0,0,0.1c0,0,0,0,0,0.1v9.1l-7.7-4.5v-9.3l16.2-9.3V59.2z M422.7,63.8l-8.1-4.7v-8.9l7.9,4.6c0,0,0,0,0,0
		c0,0,0,0,0,0l7.9,4.6L422.7,63.8z M405.9,44.4l-7.7-4.5l5.8-3.4l1.9-1.1l7.7,4.5L405.9,44.4z M414,30l-8.1,4.7l-7.7-4.5l7.9-4.6
		c0,0,0,0,0,0c0,0,0,0,0,0l7.9-4.6V30z M405.9,24.9l-8.1-4.7v-8.9l7.9,4.6c0,0,0,0,0,0c0,0,0,0,0,0l7.9,4.6L405.9,24.9z M397.1,20.3
		l-8.3,4.8c0,0,0,0,0,0c0,0,0,0,0,0c0,0,0,0,0,0c0,0,0,0.1-0.1,0.1c0,0,0,0,0,0.1c0,0,0,0,0,0.1v9.1l-7.7-4.5v-9.3l16.2-9.3V20.3z
		 M389.2,54.2l-8.3-4.8v-9.6c0,0,0,0,0,0c0,0,0,0,0,0v-9.1l7.7,4.5v9.5c0,0,0,0.1,0,0.1c0,0,0,0,0,0c0,0,0,0,0,0c0,0,0,0,0,0
		c0,0,0,0,0,0.1c0,0,0,0,0,0c0,0,0.1,0.1,0.1,0.1c0,0,0,0,0,0l8.3,4.8v8.9L389.2,54.2z M397.1,98.1l-8.3,4.8c0,0,0,0,0,0
		c0,0,0,0,0,0c0,0,0,0,0,0c0,0,0,0.1-0.1,0.1c0,0,0,0,0,0.1c0,0,0,0,0,0.1v9.1l-7.7-4.5v-9.3l16.2-9.3V98.1z M389.2,132.1l-8.3-4.8
		v-9.6c0,0,0,0,0,0c0,0,0,0,0,0v-9.1l7.7,4.5v9.5c0,0,0,0.1,0,0.1c0,0,0,0,0,0c0,0,0,0,0,0c0,0,0,0,0,0c0,0,0,0,0,0.1c0,0,0,0,0,0
		c0,0,0.1,0.1,0.1,0.1c0,0,0,0,0,0l8.3,4.8v8.9L389.2,132.1z M414,127.3l-16.2,9.3v-8.9l8.3-4.8l7.9-4.6V127.3z M405.9,122.2
		l-7.7-4.5l7.7-4.5l7.7,4.5L405.9,122.2z M414,107.8l-8.1,4.7l-7.7-4.5l7.9-4.6c0,0,0,0,0,0c0,0,0,0,0,0l7.9-4.6V107.8z M414.6,88.8
		l16.2-9.3v8.9l-16.2,9.3V88.8z M439.7,93.1l-8.3-4.8v-9.5v0c0,0,0,0,0,0c0,0,0,0,0,0v-9.1l7.7,4.5v9.5c0,0,0,0.1,0,0.1c0,0,0,0,0,0
		c0,0,0,0,0,0c0,0,0,0,0,0c0,0,0,0,0,0.1c0,0,0,0,0,0c0,0,0.1,0.1,0.1,0.1c0,0,0,0,0,0l8.3,4.8v8.9L439.7,93.1z M464.5,88.4
		l-16.2,9.3v-8.9l16.2-9.3V88.4z M456.4,83.3l-7.7-4.5l7.7-4.5l7.7,4.5L456.4,83.3z M464.5,68.9l-8.1,4.7l-7.7-4.5l7.9-4.6
		c0,0,0,0,0,0c0,0,0,0,0,0l7.9-4.6V68.9z M465.2,49.9l16.2-9.3v8.9l-16.2,9.3V49.9z M490.3,54.2l-8.3-4.8V40v0c0,0,0,0,0,0
		c0,0,0,0,0,0c0,0,0,0,0,0c0,0,0,0,0,0v-9.1l7.7,4.5v9.5c0,0,0,0.1,0,0.1c0,0,0,0,0,0c0,0,0,0,0,0c0,0,0,0,0,0c0,0,0,0,0,0.1
		c0,0,0,0,0,0c0,0,0.1,0.1,0.1,0.1c0,0,0,0,0,0l8.3,4.8v8.9L490.3,54.2z M507.1,93.1l-8.3-4.8v-9.6c0,0,0,0,0,0c0,0,0,0,0,0v-9.1
		l7.7,4.5v9.5c0,0,0,0.1,0,0.1c0,0,0,0,0,0c0,0,0,0,0,0c0,0,0,0,0,0c0,0,0,0,0,0.1c0,0,0,0,0,0c0,0,0.1,0.1,0.1,0.1c0,0,0,0,0,0
		l8.3,4.8v8.9L507.1,93.1z M524,132.1l-8.3-4.8v-9.6c0,0,0,0,0,0c0,0,0,0,0,0v-9.1l7.7,4.5v9.5c0,0,0,0.1,0,0.1c0,0,0,0,0,0
		c0,0,0,0,0,0c0,0,0,0,0,0c0,0,0,0,0,0.1c0,0,0,0,0,0c0,0,0.1,0.1,0.1,0.1c0,0,0,0,0,0l8.3,4.8v8.9L524,132.1z M548.7,127.3
		l-16.2,9.3v-8.9l16.2-9.3V127.3z M557.7,132.4l-8.3-4.8v-9.6c0,0,0,0,0,0c0,0,0,0,0,0v-9.1l7.7,4.5v9.5c0,0,0,0.1,0,0.1
		c0,0,0,0,0,0c0,0,0,0,0,0c0,0,0,0,0,0c0,0,0,0,0,0.1c0,0,0,0,0,0c0,0,0.1,0.1,0.1,0.1c0,0,0,0,0,0l8.3,4.8v8.9L557.7,132.4z
		 M574.5,171.3l-8.3-4.8V157c0,0,0,0,0,0c0,0,0,0,0,0v-9.1l7.7,4.5v9.5c0,0,0,0.1,0,0.1c0,0,0,0,0,0c0,0,0,0,0,0c0,0,0,0,0,0
		c0,0,0,0,0,0.1c0,0,0,0,0,0c0,0,0.1,0.1,0.1,0.1c0,0,0,0,0,0l8.3,4.8v8.9L574.5,171.3z M599.3,166.5l-16.2,9.3v-8.9l8.3-4.8
		c0,0,0,0,0,0l7.9-4.6V166.5z M591.2,161.4l-7.7-4.5l5.8-3.4l1.9-1.1l7.7,4.5L591.2,161.4z M599.3,147.1l-8.1,4.7l-7.7-4.5l7.9-4.6
		c0,0,0,0,0,0c0,0,0,0,0,0l7.9-4.6V147.1z M616.1,127.6l-16.2,9.3V128l16.2-9.3V127.6z M608,122.5l-7.7-4.5l7.7-4.5l7.7,4.5
		L608,122.5z M616.1,108.1l-8.1,4.7l-7.7-4.5l7.9-4.6c0,0,0,0,0,0c0,0,0,0,0,0l7.9-4.6V108.1z M633,88.7L616.8,98V89l16.2-9.3V88.7z
		 M624.9,83.6l-7.7-4.5l7.7-4.5l7.7,4.5L624.9,83.6z M633,69.2l-8.1,4.7l-7.7-4.5l7.9-4.6c0,0,0,0,0,0c0,0,0,0,0,0l7.9-4.6V69.2z"/>
</g>
</svg>
