<?xml version="1.0" encoding="utf-8"?>
<!-- Generator: Adobe Illustrator 24.0.1, SVG Export Plug-In . SVG Version: 6.00 Build 0)  -->
<svg version="1.1" xmlns="http://www.w3.org/2000/svg" xmlns:xlink="http://www.w3.org/1999/xlink" x="0px" y="0px"
	 viewBox="0 0 637.7 181.8" style="enable-background:new 0 0 637.7 181.8;" xml:space="preserve">
<style type="text/css">
	.st0{fill:#4F3B49;}
	.st1{fill:url(#SVGID_1_);}
</style>
<g id="Layer_4">
	<rect class="st0" width="637.7" height="181.8"/>
</g>
<g id="Layer_3">
	<linearGradient id="SVGID_1_" gradientUnits="userSpaceOnUse" x1="425.2023" y1="108.3605" x2="633.6462" y2="108.3605">
		<stop  offset="0" style="stop-color:#E8E7E8"/>
		<stop  offset="0.16" style="stop-color:#E9E6E4"/>
		<stop  offset="0.34" style="stop-color:#EBE3D6"/>
		<stop  offset="0.53" style="stop-color:#EFDFC0"/>
		<stop  offset="0.72" style="stop-color:#F4D8A2"/>
		<stop  offset="0.91" style="stop-color:#FBD07B"/>
		<stop  offset="1" style="stop-color:#FFCC66"/>
	</linearGradient>
	<path class="st1" d="M633.6,88.4v-8c0-0.1-0.1-0.2-0.1-0.2l-6.9-4c0,0,0,0,0,0c0,0,0,0,0,0l-6.9-4c-0.1-0.1-0.2-0.1-0.3,0
		l-13.7,7.9l-6.8-3.9c0,0,0,0,0,0c0,0,0,0,0,0l-6.8-3.9c0,0,0,0,0,0v-8c0,0,0,0,0,0c0,0,0,0,0,0c0-0.1-0.1-0.2-0.1-0.2l-6.5-3.8
		l6.5-3.8c0.1,0,0.1-0.1,0.1-0.2v-8c0-0.1-0.1-0.2-0.1-0.2l-6.9-4c0,0,0,0,0,0c0,0,0,0,0,0l-6.9-4c-0.1-0.1-0.2-0.1-0.3,0l-13.9,8
		c0,0,0,0,0,0c0,0,0,0-0.1,0.1c0,0,0,0.1,0,0.1c0,0,0,0,0,0v8v0v8c0,0,0,0,0,0c0,0,0,0,0,0V72l-13.6,7.8l-6.8-3.9c0,0,0,0,0,0
		c0,0,0,0,0,0l-6.8-3.9v-7.8c0,0,0,0,0,0c0,0,0,0,0,0c0-0.1-0.1-0.2-0.1-0.2l-6.5-3.8l6.5-3.8c0.1,0,0.1-0.1,0.1-0.2v-8
		c0-0.1-0.1-0.2-0.1-0.2l-6.9-4c0,0,0,0,0,0c0,0,0,0,0,0l-6.9-4c-0.1-0.1-0.2-0.1-0.3,0l-13.7,7.9l-6.8-3.9c0,0,0,0,0,0c0,0,0,0,0,0
		l-6.9-4c-0.1-0.1-0.2-0.1-0.3,0l-13.9,8c0,0,0,0,0,0c0,0,0,0-0.1,0.1c0,0,0,0.1,0,0.1c0,0,0,0,0,0v8v0v8c0,0,0,0,0,0c0,0,0,0,0,0
		V72l-13.6,7.8l-6.8-3.9c0,0,0,0,0,0c0,0,0,0,0,0l-6.8-3.9v-7.8c0,0,0,0,0,0c0,0,0,0,0,0c0-0.1-0.1-0.2-0.1-0.2l-6.5-3.8l6.5-3.8
		c0.1,0,0.1-0.1,0.1-0.2v-8c0-0.1-0.1-0.2-0.1-0.2l-6.9-4c0,0,0,0,0,0c0,0,0,0,0,0l-6.9-4c-0.1-0.1-0.2-0.1-0.3,0l-13.9,8
		c0,0,0,0,0,0c0,0,0,0-0.1,0.1c0,0,0,0.1,0,0.1c0,0,0,0,0,0v8v0v8c0,0,0,0,0,0c0,0,0,0,0,0v8c0,0,0,0,0,0c0,0.1,0,0.1,0.1,0.1
		c0,0,0,0,0,0c0,0,0,0.1,0.1,0.1l6.9,4l6.8,3.9v7.8v0v8c0,0,0,0,0,0c0,0,0,0,0,0v7.9l-13.7,7.9c0,0,0,0,0,0c0,0,0,0-0.1,0.1
		c0,0,0,0.1,0,0.1c0,0,0,0,0,0v8v0v8c0,0,0,0,0,0c0,0,0,0,0,0v8c0,0,0,0,0,0c0,0.1,0,0.1,0.1,0.1c0,0,0,0,0,0c0,0,0,0.1,0.1,0.1
		l6.9,4l6.9,4c0,0,0.1,0,0.1,0c0,0,0,0,0,0s0,0,0,0c0,0,0.1,0,0.1,0l13.9-8c0.1,0,0.1-0.1,0.1-0.2v-8c0,0,0,0,0,0c0,0,0,0,0,0
		c0-0.1-0.1-0.2-0.1-0.2l-6.5-3.8l6.5-3.8c0.1,0,0.1-0.1,0.1-0.2v-7.8l13.6-7.8l6.8,3.9l6.9,4c0,0,0.1,0,0.1,0c0,0,0,0,0,0s0,0,0,0
		c0,0,0.1,0,0.1,0l13.9-8c0.1,0,0.1-0.1,0.1-0.2v-8c0,0,0,0,0,0c0,0,0,0,0,0c0-0.1-0.1-0.2-0.1-0.2l-6.5-3.8l6.5-3.8
		c0.1,0,0.1-0.1,0.1-0.2v-7.8l13.6-7.8l6.8,3.9l6.8,3.9v7.8v0v8c0,0,0,0,0,0c0,0,0,0,0,0v8c0,0,0,0,0,0c0,0.1,0,0.1,0.1,0.1
		c0,0,0,0,0,0c0,0,0,0.1,0.1,0.1l6.9,4l6.8,3.9v7.8v0v8c0,0,0,0,0,0c0,0,0,0,0,0v8c0,0,0,0,0,0c0,0.1,0,0.1,0.1,0.1c0,0,0,0,0,0
		c0,0,0,0.1,0.1,0.1l6.9,4l6.9,4c0,0,0.1,0,0.1,0c0,0,0,0,0,0s0,0,0,0c0,0,0.1,0,0.1,0l13.5-7.8c0,0,0,0,0,0.1l6.9,4l6.8,3.9v7.8v0
		v8c0,0,0,0,0,0c0,0,0,0,0,0v8c0,0,0,0,0,0c0,0.1,0,0.1,0.1,0.1c0,0,0,0,0,0c0,0,0,0.1,0.1,0.1l6.9,4l6.9,4c0,0,0.1,0,0.1,0
		c0,0,0,0,0,0s0,0,0,0c0,0,0.1,0,0.1,0l13.9-8c0.1-0.1,0.1-0.1,0.1-0.2v-8c0,0,0,0,0,0c0,0,0,0,0,0c0-0.1-0.1-0.2-0.1-0.2l-6.5-3.8
		l6.5-3.8c0.1-0.1,0.1-0.1,0.1-0.2v-7.8l13.7-7.9c0.1,0,0.1-0.1,0.1-0.2v-8c0,0,0,0,0,0c0,0,0,0,0,0c0-0.1-0.1-0.2-0.1-0.2l-6.5-3.8
		l6.5-3.8c0.1,0,0.1-0.1,0.1-0.2v-7.9l13.7-7.9c0.1,0,0.1-0.1,0.1-0.2v-8c0,0,0,0,0,0c0,0,0,0,0,0c0-0.1-0.1-0.2-0.1-0.2l-6.5-3.8
		l6.5-3.8C633.6,88.6,633.6,88.5,633.6,88.4z M593.4,151.3l-1.6,0.9l-6.4-3.7l6.4-3.7l6.4,3.7L593.4,151.3z M619.8,88.9l6.1,3.5
		l-6.1,3.5V88.9z M605.9,121l6.1,3.5l-6.1,3.5V121z M585.2,157l6.1,3.5l-6.1,3.5V157z M591.2,152.5l-6.1,3.5v-7L591.2,152.5z
		 M585.4,156.5l6.1-3.5v7L585.4,156.5z M563.8,112.7v7.4l-6.6,3.8l-6.4-3.7l6.5-3.7c0,0,0,0,0,0c0,0,0,0,0,0L563.8,112.7z
		 M549.7,128.2l-6.1,3.5v-7L549.7,128.2z M550.5,120.7l6.1,3.5l-6.1,3.5V120.7z M549.9,127.8l-6.1-3.5l6.1-3.5V127.8z M543.6,123.8
		v-7l6.1,3.5L543.6,123.8z M550.2,128.6l6.4,3.7l-6.4,3.7l-6.4-3.7L550.2,128.6z M557.1,124.6l6.4,3.7l-6.4,3.7l-6.4-3.7
		L557.1,124.6z M571.3,52.7l6.1,3.5l-6.1,3.5V52.7z M571.6,52.2l6.4-3.7l6.4,3.7l-6.4,3.7L571.6,52.2z M612.9,84.9l6.1,3.5l-6.1,3.5
		V84.9z M612.9,99.9v-7l6.1,3.5L612.9,99.9z M612.3,100.4C612.3,100.4,612.3,100.4,612.3,100.4C612.3,100.5,612.3,100.5,612.3,100.4
		C612.3,100.5,612.3,100.5,612.3,100.4C612.3,100.5,612.3,100.5,612.3,100.4c0,0.1,0,0.1,0,0.1c0,0,0,0.1,0.1,0.1c0,0,0,0,0,0
		l6.8,3.9v7.4l-6.5-3.8l-6.8-3.9v-7.8v0c0,0,0,0,0,0c0,0,0,0,0,0v-7.5l6.4,3.7L612.3,100.4C612.3,100.4,612.3,100.4,612.3,100.4z
		 M577.4,128.5l-6.1,3.5v-7L577.4,128.5z M536.6,88.7l6.1,3.5l-6.1,3.5V88.7z M543.3,99.9l-6.4-3.7l6.4-3.7l6.4,3.7L543.3,99.9z
		 M536.1,95.7l-6.1-3.5l6.1-3.5V95.7z M536.6,104.4l13.3-7.7v7.4l-13.3,7.7V104.4z M564.4,88.7l6.1,3.5l-6.1,3.5V88.7z M605.1,120.5
		L599,124v-7L605.1,120.5z M571.3,117l6.1,3.5l-6.1,3.5V117z M578.2,121l6.1,3.5l-6.1,3.5V121z M584.9,124.2l-6.4-3.7l6.5-3.7
		c0,0,0,0,0,0c0,0,0,0,0,0l6.5-3.8v7.4L584.9,124.2z M605.4,104.3l-13.3,7.7v-7.4l13.3-7.7V104.3z M591.8,104.1l-6.4-3.7l6.4-3.7
		l6.4,3.7L591.8,104.1z M585.1,99.9v-7l6.1,3.5L585.1,99.9z M591.5,95.9l-6.1-3.5l6.1-3.5V95.9z M592.1,88.9l6.1,3.5l-6.1,3.5V88.9z
		 M591.2,88.4l-6.1,3.5v-7L591.2,88.4z M584.6,92.6v7.8c0,0,0,0,0,0.1c0,0,0,0,0,0c0,0,0,0,0,0c0,0,0,0,0,0c0,0,0,0,0,0c0,0,0,0,0,0
		c0,0,0,0.1,0.1,0.1c0,0,0,0,0,0l6.8,3.9v7.4l-6.5-3.8l-6.8-3.9v-7.9c0,0,0,0,0,0c0,0,0,0,0,0v-7.5L584.6,92.6z M577.7,121v7
		l-6.1-3.5L577.7,121z M584.9,124.8l6.4,3.7l-6.4,3.7l-6.4-3.7L584.9,124.8z M585.4,124.5l6.1-3.5v7L585.4,124.5z M592.1,112.6
		l13.3-7.7v7.4l-6.8,3.9c0,0,0,0,0,0c0,0,0,0,0,0c0,0,0,0,0,0c0,0,0,0,0,0.1c0,0,0,0,0,0c0,0,0,0,0,0v7.5l-6.4-3.7V112.6z
		 M598.7,100.1l-6.4-3.7l6.4-3.7l6.4,3.7L598.7,100.1z M557.4,99.7v-7l6.1,3.5L557.4,99.7z M570.4,100.2l-6.4,3.7l-6.4-3.7l6.4-3.7
		L570.4,100.2z M571,99.9l-6.4-3.7l6.4-3.7l6.4,3.7L571,99.9z M563.8,95.7l-6.1-3.5l6.1-3.5V95.7z M564.4,104.4l13.3-7.7v7.4
		l-13.3,7.7V104.4z M584.7,108.7C584.7,108.7,584.7,108.7,584.7,108.7l6.5,3.8l-6.4,3.7l-6.7-3.8V105L584.7,108.7
		C584.7,108.7,584.7,108.7,584.7,108.7z M577.9,120.2l-6.4-3.7l6.4-3.7l6.4,3.7L577.9,120.2z M599,132v-7l6.1,3.5L599,132z
		 M605.4,95.9l-6.1-3.5l6.1-3.5V95.9z M591.8,88.1l-6.4-3.7l6.4-3.7l6.4,3.7L591.8,88.1z M591.5,80.3l-6.8,3.9c0,0,0,0,0,0
		c0,0,0,0,0,0c0,0,0,0,0,0c0,0,0,0,0,0.1c0,0,0,0,0,0c0,0,0,0,0,0v7.5l-6.4-3.7v-7.6l13.3-7.7V80.3z M577.9,71.9l-6.4-3.7l6.4-3.7
		l6.4,3.7L577.9,71.9z M571.3,67.7v-7l6.1,3.5L571.3,67.7z M577.7,95.7l-6.1-3.5l6.1-3.5V95.7z M556.9,100.2
		C556.9,100.2,556.9,100.2,556.9,100.2C556.9,100.2,556.9,100.2,556.9,100.2C556.9,100.2,556.9,100.3,556.9,100.2
		C556.9,100.3,556.9,100.3,556.9,100.2c0,0.1,0,0.1,0,0.1c0,0,0,0.1,0.1,0.1c0,0,0,0,0,0l6.8,3.9v7.4l-6.5-3.8l-6.8-3.9v-7.8v0
		c0,0,0,0,0,0c0,0,0,0,0,0v-7.5l6.4,3.7L556.9,100.2C556.9,100.2,556.9,100.2,556.9,100.2z M549.9,95.7l-6.1-3.5l6.1-3.5V95.7z
		 M535.8,96.2l-6.1,3.5v-7L535.8,96.2z M536.4,96.5l6.4,3.7l-6.4,3.7l-6.4-3.7L536.4,96.5z M550.5,104.7l6.5,3.8c0,0,0,0,0,0
		c0,0,0,0,0,0l6.5,3.8l-6.4,3.7l-6.7-3.8V104.7z M577.9,128.8l6.4,3.7l-6.4,3.7l-6.4-3.7L577.9,128.8z M578.2,136.7l13.3-7.7v7.4
		l-13.3,7.7V136.7z M592.1,144.3V137l6.5,3.8c0,0,0,0,0,0l0,0c0,0,0,0,0,0l6.4,3.7l0.1,0.1l-6.4,3.7L592.1,144.3z M598.9,140.3
		l-6.8-3.9v-7.8v0c0,0,0,0,0,0c0,0,0,0,0,0V121l6.4,3.7v7.8c0,0,0,0,0,0.1c0,0,0,0,0,0c0,0,0,0,0,0c0,0,0,0,0,0c0,0,0,0,0,0
		c0,0,0,0,0,0c0,0,0,0.1,0.1,0.1c0,0,0,0,0,0l6.8,3.9v7.4l-1.5-0.9L598.9,140.3z M605.7,128.8l6.4,3.7l-6.4,3.7l-6.4-3.7
		L605.7,128.8z M605.4,128l-6.1-3.5l6.1-3.5V128z M599.3,116.5l6.4-3.7l6.4,3.7l-6.4,3.7L599.3,116.5z M605.9,112.3V105l6.5,3.8
		c0,0,0,0,0,0c0,0,0,0,0,0l6.5,3.8l-6.4,3.7L605.9,112.3z M619.5,96.8l6.4,3.7l-6.4,3.7l-6.4-3.7L619.5,96.8z M619.2,95.9l-6.1-3.5
		l6.1-3.5V95.9z M613.1,84.4l6.4-3.7l6.4,3.7l-6.4,3.7L613.1,84.4z M605.4,80.9v7.4l-6.6,3.8l-6.4-3.7l6.5-3.7c0,0,0,0,0,0
		c0,0,0,0,0,0L605.4,80.9z M591.5,72.1l-13.3,7.7v-7.4l13.3-7.7V72.1z M577.7,63.7l-6.1-3.5l6.1-3.5V63.7z M570.7,60.4v7.8
		c0,0,0,0,0,0.1c0,0,0,0,0,0c0,0,0,0,0,0c0,0,0,0,0,0c0,0,0,0,0,0c0,0,0,0,0,0c0,0,0,0.1,0.1,0.1c0,0,0,0,0,0l6.8,3.9v7.3l-6.5-3.8
		c0,0,0,0,0,0c0,0,0,0,0,0l-6.8-3.9v-7.8c0,0,0,0,0,0c0,0,0,0,0,0v-7.5L570.7,60.4z M564.3,72.7l6.5,3.8l6.5,3.7l-6.3,3.7l-6.7-3.8
		V72.7z M571.1,84.4C571.1,84.4,571.1,84.4,571.1,84.4C571.1,84.4,571.1,84.4,571.1,84.4l6.5-3.8V88l-6.6,3.8l-6.4-3.7L571.1,84.4z
		 M557.4,91.7v-7l6.1,3.5L557.4,91.7z M543.4,84.4C543.4,84.4,543.4,84.4,543.4,84.4C543.4,84.4,543.4,84.4,543.4,84.4l6.5-3.8V88
		l-6.6,3.8l-6.4-3.7L543.4,84.4z M529.7,91.7v-7l6.1,3.5L529.7,91.7z M550.2,112.6l6.4,3.7l-6.4,3.7l-6.4-3.7L550.2,112.6z
		 M557.7,124.2l6.1-3.5v7L557.7,124.2z M592.1,153l6.1,3.5l-6.1,3.5V153z M578.2,63.7v-7l6.1,3.5l-3,1.8L578.2,63.7z M564.1,80.5
		l6.4,3.7l-6.4,3.7l-6.4-3.7L564.1,80.5z M536.4,87.9l-6.4-3.7l6.4-3.7l6.4,3.7L536.4,87.9z M536.1,72l-13.3,7.7v-7.3l13.3-7.7V72z
		 M515.8,52.7l6.1,3.5l-6.1,3.5V52.7z M516.1,52.2l6.4-3.7l6.4,3.7l-6.4,3.7L516.1,52.2z M521.9,64.2l-6.1,3.5v-7L521.9,64.2z
		 M522.5,64.5l6.4,3.7l-6.4,3.7l-6.4-3.7L522.5,64.5z M522.2,63.7l-6.1-3.5l6.1-3.5V63.7z M522.8,63.7v-7l6.1,3.5l-3,1.8L522.8,63.7
		z M481.2,88.7l6.1,3.5l-6.1,3.5V88.7z M480.9,96.5l6.4,3.7l-6.4,3.7l-6.4-3.7L480.9,96.5z M474.3,84.7l6.1,3.5l-6.1,3.5V84.7z
		 M480.4,96.2l-6.1,3.5v-7L480.4,96.2z M480.6,95.7l-6.1-3.5l6.1-3.5V95.7z M474.6,84.2l6.4-3.7l6.4,3.7l-6.4,3.7L474.6,84.2z
		 M481.2,80v-7.3l6.5,3.8l6.5,3.7l-6.3,3.7L481.2,80z M488.1,52.7l6.1,3.5l-6.1,3.5V52.7z M494.5,63.7l-6.1-3.5l6.1-3.5V63.7z
		 M494.2,64.2l-6.1,3.5v-7L494.2,64.2z M495.1,63.7v-7l6.1,3.5l-3,1.8L495.1,63.7z M494.8,55.9l-6.4-3.7l6.4-3.7l6.4,3.7L494.8,55.9
		z M494.8,64.5l6.4,3.7l-6.4,3.7l-6.4-3.7L494.8,64.5z M495.3,64.2l4.8-2.8l1.6-0.9l6.4,3.7l-6.4,3.7L495.3,64.2z M501.7,59.9
		l-6.4-3.7l6.5-3.7c0,0,0,0,0,0c0,0,0,0,0,0l6.5-3.8V56L501.7,59.9z M487.6,60.4v7.8c0,0,0,0,0,0.1c0,0,0,0,0,0c0,0,0,0,0,0
		c0,0,0,0,0,0c0,0,0,0,0,0c0,0,0,0,0,0c0,0,0,0.1,0.1,0.1c0,0,0,0,0,0l6.8,3.9v7.3L488,76c0,0,0,0,0,0c0,0,0,0,0,0l-6.8-3.9v-7.8
		c0,0,0,0,0,0c0,0,0,0,0,0v-7.5L487.6,60.4z M502.3,60.2l6.1-3.5v7L502.3,60.2z M443.5,133.5l-4.2,2.4l-6.4-3.7l6.4-3.7l6.4,3.7
		L443.5,133.5z M466.8,80.7V88l-6.6,3.8l-6.4-3.7l6.5-3.7c0,0,0,0,0,0c0,0,0,0,0,0L466.8,80.7z M439.6,120.7l6.1,3.5l-6.1,3.5V120.7
		z M432.7,116.7l6.1,3.5l-6.1,3.5V116.7z M438.8,128.2l-6.1,3.5v-7L438.8,128.2z M439.1,127.7l-6.1-3.5l6.1-3.5V127.7z M433,116.2
		l6.4-3.7l6.4,3.7l-6.4,3.7L433,116.2z M439.6,112.1v-7.4l6.5,3.8c0,0,0,0,0,0c0,0,0,0,0,0l6.5,3.8l-6.4,3.7L439.6,112.1z
		 M452.6,96.2l-6.1,3.5v-7L452.6,96.2z M452.9,95.7l-6.1-3.5l6.1-3.5V95.7z M446.6,84.7l6.1,3.5l-6.1,3.5V84.7z M453.5,88.7l6.1,3.5
		l-6.1,3.5V88.7z M453.2,87.9l-6.4-3.7l6.4-3.7l6.4,3.7L453.2,87.9z M453.2,96.5l6.4,3.7l-6.4,3.7l-6.4-3.7L453.2,96.5z M460.1,92.5
		l6.4,3.7l-6.4,3.7l-6.4-3.7L460.1,92.5z M432.7,52.7l6.1,3.5l-6.1,3.5V52.7z M433,52.2l6.4-3.7l6.4,3.7l-6.4,3.7L433,52.2z
		 M438.8,64.2l-6.1,3.5v-7L438.8,64.2z M439.3,64.5l6.4,3.7l-6.4,3.7l-6.4-3.7L439.3,64.5z M452.9,72l-13.3,7.7v-7.3l13.3-7.7V72z
		 M439.1,63.7l-6.1-3.5l6.1-3.5V63.7z M446,92.4v7.8c0,0,0,0,0,0.1c0,0,0,0,0,0c0,0,0,0,0,0c0,0,0,0,0,0c0,0,0,0,0,0c0,0,0,0,0,0
		c0,0,0,0.1,0.1,0.1c0,0,0,0,0,0l6.8,3.9v7.4l-6.5-3.8l-6.8-3.9v-7.9c0,0,0,0,0,0c0,0,0,0,0,0v-7.5L446,92.4z M460.7,92.2l6.1-3.5v7
		L460.7,92.2z M452.9,80l-6.8,3.9c0,0,0,0,0,0c0,0,0,0,0,0c0,0,0,0,0,0c0,0,0,0,0,0.1c0,0,0,0,0,0c0,0,0,0,0,0v7.5l-6.4-3.7v-7.6
		l13.3-7.7V80z M439.6,63.7v-7l6.1,3.5l-3,1.8L439.6,63.7z M522.8,80.4l13.3-7.7V80l-6.8,3.9c0,0,0,0,0,0c0,0,0,0,0,0c0,0,0,0,0,0
		c0,0,0,0,0,0.1c0,0,0,0,0,0.1c0,0,0,0,0,0v7.5l-6.4-3.7V80.4z M536.6,112.4l13.3-7.7v7.4l-6.8,3.9c0,0,0,0,0,0c0,0,0,0,0,0
		c0,0,0,0,0,0c0,0,0,0,0,0.1c0,0,0,0,0,0.1c0,0,0,0,0,0v7.5l-6.4-3.7V112.4z M564.4,112.6l13.3-7.7v7.4l-6.8,3.9c0,0,0,0,0,0
		c0,0,0,0,0,0c0,0,0,0,0,0c0,0,0,0,0,0.1c0,0,0,0,0,0c0,0,0,0,0,0v7.5l-6.4-3.7V112.6z M578.2,144.7l13.3-7.7v7.4l-6.8,3.9
		c0,0,0,0,0,0c0,0,0,0,0,0c0,0,0,0,0,0c0,0,0,0,0,0.1c0,0,0,0,0,0c0,0,0,0,0,0v7.5l-6.4-3.7V144.7z M591.8,168.2l-6.4-3.7l6.4-3.7
		l6.4,3.7l-4.8,2.8L591.8,168.2z M626.4,84.1l-6.7-3.8v-7.4l6.5,3.8c0,0,0,0,0,0c0,0,0,0,0,0l6.5,3.8L626.4,84.1z M619.2,80.3
		l-6.8,3.9c0,0,0,0,0,0c0,0,0,0,0,0c0,0,0,0,0,0c0,0,0,0,0,0.1c0,0,0,0,0,0c0,0,0,0,0,0v7.5l-6.4-3.7v-7.6l13.3-7.7V80.3z
		 M598.7,84.1l-6.7-3.8v-7.4l6.5,3.8c0,0,0,0,0,0c0,0,0,0,0,0l6.5,3.8L598.7,84.1z M584.9,67.9l-6.4-3.7l4.8-2.8l1.6-0.9l6.4,3.7
		L584.9,67.9z M591.5,56l-6.6,3.8l-6.4-3.7l6.5-3.7c0,0,0,0,0,0c0,0,0,0,0,0l6.5-3.8V56z M584.9,51.9l-6.7-3.8v-7.4l6.5,3.8
		c0,0,0,0,0,0c0,0,0,0,0,0l6.5,3.8L584.9,51.9z M577.6,48l-6.8,3.9c0,0,0,0,0,0c0,0,0,0,0,0c0,0,0,0,0,0c0,0,0,0,0,0.1c0,0,0,0,0,0
		c0,0,0,0,0,0v7.5l-6.4-3.7v-7.6l13.3-7.7V48z M563.8,80L557,84c0,0,0,0,0,0c0,0,0,0,0,0c0,0,0,0,0,0c0,0,0,0,0,0.1c0,0,0,0,0,0.1
		c0,0,0,0,0,0v7.5l-6.4-3.7v-7.6l13.3-7.7V80z M543.3,83.9l-6.7-3.8v-7.4l6.5,3.8c0,0,0,0,0,0c0,0,0,0,0,0l6.5,3.8L543.3,83.9z
		 M529.4,67.9l-6.4-3.7l4.8-2.8l1.6-0.9l6.4,3.7L529.4,67.9z M536.1,56l-6.6,3.8l-6.4-3.7l6.5-3.7c0,0,0,0,0,0c0,0,0,0,0,0l6.5-3.8
		V56z M529.4,51.9l-6.7-3.8v-7.4l6.5,3.8c0,0,0,0,0,0c0,0,0,0,0,0l6.5,3.8L529.4,51.9z M522.2,48l-6.8,3.9c0,0,0,0,0,0c0,0,0,0,0,0
		c0,0,0,0,0,0c0,0,0,0,0,0.1c0,0,0,0,0,0c0,0,0,0,0,0v7.5l-6.4-3.7v-7.6l13.3-7.7V48z M501.7,51.9l-6.7-3.8v-7.4l6.5,3.8
		c0,0,0,0,0,0c0,0,0,0,0,0l6.5,3.8L501.7,51.9z M494.5,48l-6.8,3.9c0,0,0,0,0,0c0,0,0,0,0,0c0,0,0,0,0,0c0,0,0,0,0,0.1c0,0,0,0,0,0
		c0,0,0,0,0,0v7.5l-6.4-3.7v-7.6l13.3-7.7V48z M480.6,80l-6.8,3.9c0,0,0,0,0,0c0,0,0,0,0,0c0,0,0,0,0,0c0,0,0,0,0,0.1c0,0,0,0,0,0
		c0,0,0,0,0,0v7.5l-6.4-3.7v-7.6l13.3-7.7V80z M460.1,83.9l-6.7-3.8v-7.4l6.5,3.8c0,0,0,0,0,0c0,0,0,0,0,0l6.5,3.8L460.1,83.9z
		 M446.3,67.9l-6.4-3.7l4.8-2.8l1.6-0.9l6.4,3.7L446.3,67.9z M452.9,56l-6.6,3.8l-6.4-3.7l6.5-3.7c0,0,0,0,0,0c0,0,0,0,0,0l6.5-3.8
		V56z M446.3,51.9l-6.7-3.8v-7.4l6.5,3.8c0,0,0,0,0,0c0,0,0,0,0,0l6.5,3.8L446.3,51.9z M439.1,48l-6.8,3.9c0,0,0,0,0,0c0,0,0,0,0,0
		c0,0,0,0,0,0c0,0,0,0,0,0.1c0,0,0,0,0,0c0,0,0,0,0,0v7.5l-6.4-3.7v-7.6l13.3-7.7V48z M432.6,76l-6.8-3.9v-7.9c0,0,0,0,0,0
		c0,0,0,0,0,0v-7.5l6.4,3.7v7.8c0,0,0,0,0,0.1c0,0,0,0,0,0c0,0,0,0,0,0c0,0,0,0,0,0c0,0,0,0,0,0c0,0,0,0,0,0c0,0,0,0.1,0.1,0.1
		c0,0,0,0,0,0l6.8,3.9v7.4L432.6,76z M439.1,112.1l-6.8,3.9c0,0,0,0,0,0c0,0,0,0,0,0c0,0,0,0,0,0c0,0,0,0,0,0.1c0,0,0,0,0,0
		c0,0,0,0,0,0v7.5l-6.4-3.7v-7.6l13.3-7.7V112.1z M432.5,140l-6.8-3.9v-7.9c0,0,0,0,0,0c0,0,0,0,0,0v-7.5l6.4,3.7v7.8c0,0,0,0,0,0.1
		c0,0,0,0,0,0c0,0,0,0,0,0c0,0,0,0,0,0c0,0,0,0,0,0c0,0,0,0,0,0c0,0,0,0.1,0.1,0.1c0,0,0,0,0,0l6.8,3.9v7.4L432.5,140z M452.9,136.1
		l-13.3,7.7v-7.4l6.8-3.9l6.5-3.8V136.1z M446.3,131.9l-6.4-3.7l6.4-3.7l6.4,3.7L446.3,131.9z M452.9,120.1l-6.6,3.8l-6.4-3.7
		l6.5-3.7c0,0,0,0,0,0c0,0,0,0,0,0l6.5-3.8V120.1z M453.5,104.4l13.3-7.7v7.4l-13.3,7.7V104.4z M474.1,108l-6.8-3.9v-7.8v0
		c0,0,0,0,0,0c0,0,0,0,0,0v-7.5l6.4,3.7v7.8c0,0,0,0,0,0.1c0,0,0,0,0,0c0,0,0,0,0,0c0,0,0,0,0,0c0,0,0,0,0,0c0,0,0,0,0,0
		c0,0,0,0.1,0.1,0.1c0,0,0,0,0,0l6.8,3.9v7.4L474.1,108z M494.5,104.1l-13.3,7.7v-7.4l13.3-7.7V104.1z M487.8,99.9l-6.4-3.7l6.4-3.7
		l6.4,3.7L487.8,99.9z M494.5,88l-6.6,3.8l-6.4-3.7l6.5-3.7c0,0,0,0,0,0c0,0,0,0,0,0l6.5-3.8V88z M495.1,72.4l13.3-7.7v7.4
		l-13.3,7.7V72.4z M515.7,76l-6.8-3.9v-7.8v0c0,0,0,0,0,0c0,0,0,0,0,0c0,0,0,0,0,0c0,0,0,0,0,0v-7.5l6.4,3.7v7.8c0,0,0,0,0,0.1
		c0,0,0,0,0,0c0,0,0,0,0,0c0,0,0,0,0,0c0,0,0,0,0,0c0,0,0,0,0,0c0,0,0,0.1,0.1,0.1c0,0,0,0,0,0l6.8,3.9v7.4L515.7,76z M529.6,108
		l-6.8-3.9v-7.9c0,0,0,0,0,0c0,0,0,0,0,0v-7.5l6.4,3.7v7.8c0,0,0,0,0,0.1c0,0,0,0,0,0c0,0,0,0,0,0c0,0,0,0,0,0c0,0,0,0,0,0
		c0,0,0,0,0,0c0,0,0,0.1,0.1,0.1c0,0,0,0,0,0l6.8,3.9v7.4L529.6,108z M543.4,140l-6.8-3.9v-7.9c0,0,0,0,0,0c0,0,0,0,0,0v-7.5
		l6.4,3.7v7.8c0,0,0,0,0,0.1c0,0,0,0,0,0c0,0,0,0,0,0c0,0,0,0,0,0c0,0,0,0,0,0c0,0,0,0,0,0c0,0,0,0.1,0.1,0.1c0,0,0,0,0,0l6.8,3.9
		v7.4L543.4,140z M563.8,136.1l-13.3,7.7v-7.4l13.3-7.7V136.1z M571.1,140.3l-6.8-3.9v-7.9c0,0,0,0,0,0c0,0,0,0,0,0V121l6.4,3.7v7.8
		c0,0,0,0,0,0.1c0,0,0,0,0,0c0,0,0,0,0,0c0,0,0,0,0,0c0,0,0,0,0,0c0,0,0,0,0,0c0,0,0,0.1,0.1,0.1c0,0,0,0,0,0l6.8,3.9v7.4
		L571.1,140.3z M585,172.3l-6.8-3.9v-7.9c0,0,0,0,0,0c0,0,0,0,0,0V153l6.4,3.7v7.8c0,0,0,0,0,0.1c0,0,0,0,0,0c0,0,0,0,0,0
		c0,0,0,0,0,0c0,0,0,0,0,0c0,0,0,0,0,0c0,0,0,0.1,0.1,0.1c0,0,0,0,0,0l6.8,3.9v7.4L585,172.3z M605.4,168.4l-13.3,7.7v-7.4l6.8-3.9
		c0,0,0,0,0,0l6.5-3.8V168.4z M598.7,164.2l-6.4-3.7l4.8-2.8l1.6-0.9l6.4,3.7L598.7,164.2z M605.4,152.3l-6.6,3.8l-6.4-3.7l6.5-3.8
		c0,0,0,0,0,0c0,0,0,0,0,0l6.5-3.8V152.3z M619.2,136.3l-13.3,7.7v-7.4l13.3-7.7V136.3z M612.6,132.1l-6.4-3.7l6.4-3.7l6.4,3.7
		L612.6,132.1z M619.2,120.3l-6.6,3.8l-6.4-3.7l6.5-3.7c0,0,0,0,0,0c0,0,0,0,0,0l6.5-3.8V120.3z M633.1,104.3l-13.3,7.7v-7.4
		l13.3-7.7V104.3z M626.4,100.1l-6.4-3.7l6.4-3.7l6.4,3.7L626.4,100.1z M633.1,88.3l-6.6,3.8l-6.4-3.7l6.5-3.7c0,0,0,0,0,0
		c0,0,0,0,0,0l6.5-3.8V88.3z"/>
</g>
</svg>
