<svg id="Layer_2" data-name="Layer 2" xmlns="http://www.w3.org/2000/svg" xmlns:xlink="http://www.w3.org/1999/xlink" width="7in" height="2.7in" viewBox="0 0 505.1 190.8"><defs><linearGradient id="linear-gradient" x1="249.72" y1="87.73" x2="498.09" y2="87.73" gradientUnits="userSpaceOnUse"><stop offset="0" stop-color="#e8e7e8"/><stop offset="0.16" stop-color="#e9e6e4"/><stop offset="0.34" stop-color="#ebe3d6"/><stop offset="0.53" stop-color="#efdfc0"/><stop offset="0.72" stop-color="#f4d8a2"/><stop offset="0.91" stop-color="#fbd07b"/><stop offset="1" stop-color="#fc6"/></linearGradient></defs><title>background</title><path d="M498.1,64.1v-10H498l-16.5-9.5h-.3l-16.4,9.5-16.3-9.4V35.2h-.1l-7.8-4.4,7.8-4.3a.4.4,0,0,0,.1-.3V16.1h-.1L431.9,6.3h-.3l-16.5,9.6a.2.2,0,0,0-.2.2V44.7l-16.3,9.4-16.2-9.3V35.5h-.2l-7.8-4.4,7.8-4.3a.2.2,0,0,0,.2-.2v-10h-.2L365.7,6.6h-.2L349.1,16,332.7,6.6h-.3l-16.5,9.6c-.1,0-.1.1-.1.2V45h0l-16.3,9.4-16.1-9.3h0V35.5h-.1l-7.8-4.4,7.8-4.3a.4.4,0,0,0,.1-.3V16.4h-.1L266.8,6.6h-.3L250,16.2c-.1,0-.1.1-.1.2V45c0,.1,0,.2.1.2l16.2,9.5h0V83.4h0l-16.3,9.4-.2.3v28.6l.2.2,16.5,9.6h.3l16.5-9.6a.3.3,0,0,1,.1-.2v-9.5h-.1l-7.9-4.4,7.9-4.3v-10l16.2-9.5,16.4,9.5h.2l16.5-9.6c.1-.1.2-.2.2-.3V73.9h0a.1.1,0,0,0-.1-.1h-.1l-7.8-4.4,7.8-4.3.2-.2V54.8l16.3-9.5,16.2,9.4V83.1a.2.2,0,0,0,.2.2l16.4,9.6v28.2a.4.4,0,0,0,.1.3l16.6,9.6h.2l16.5-9.6,16.2,9.5v28.6l16.6,9.6h.3l16.4-9.6.2-.2v-9.5h-.2l-7.8-4.4,7.8-4.3a.2.2,0,0,0,.2-.2v-9.7l16.3-9.6c.1-.1.2-.1.2-.2v-9.5h-.2l-7.8-4.4,7.8-4.3.2-.2V92.6L498,83a.3.3,0,0,0,.1-.2V73.3h0a.1.1,0,0,0-.1-.1h0l-7.9-4.5,7.9-4.3A.3.3,0,0,0,498.1,64.1ZM315.7,92.5l-15.9-9.3V73.9h-.1V64.9l7.7,4.5v9.2c0,.1.1.1.2.2l8.1,4.7Zm41.9-61.2,7.4,4.1-7.4,4.2Zm3.5-12,4.5-2.6,3.4,2,4.3,2.4-7.7,4.6-7.7-4.6ZM365.9,35V26.5l7.4,4.3Zm-.4.7,7.7,4.5-7.6,4.3-7.7-4.4Zm-.2-.7-7.4-4.2,7.4-4.3Zm45.4,22.3,4.5-2.5,3.5,2,4.2,2.3-7.7,4.6-7.7-4.6ZM423.2,40a.2.2,0,0,0,.2.2l8.1,4.7v9l-16-9.3V26.3l7.7,4.4v9.2Zm4-20.9,4.6-2.6,3.5,2,4.1,2.4-7.6,4.6L424,20.9ZM456,59l-7.7,4.6L440.6,59l3.2-1.8,4.5-2.6,3.4,1.9Zm-74.4,5.2-7.5,4.3V59.7ZM432,34.8V26.3l7.5,4.3Zm-.2.8,7.6,4.4-7.6,4.4L424.1,40Zm16,28.3-7.5,4.3V59.4Zm25,14.1h.1l8.2,4.7v9l-16-9.3V64.3l7.7,4.5ZM456.4,97h-.1v9.2l-2.5-1.4-5.3-3V92.6l1.5-.8,14.5-8.4v9L456.4,97ZM407,106.7l-7.8-4.5L414.9,93v9.3ZM390.5,78l-7.7-4.4.2-.2,7.4-4.1,7.7,4.3Zm-8.1-4.8V64.6l7.4,4.3Zm32.2,19.3L406.9,97,399,92.5V83.4Zm8.9-24L415.8,64l15.7-9.2v9.3Zm8-3.8V73L424,68.8Zm.5,18V64.4l7.8,4.4V78h.1L448,83v9l-3.3-1.9Zm16.3-9,7.5,4.3h.2l-7.7,4.4-5.4-3.1L440.6,78ZM432,102.6l1.8,1,5.7,3.3-7.5,4.2Zm8,4-1.4-.8-6.3-3.7L448,92.9v9.2h0ZM448.6,92V83l8.1-4.7h0l7.8-4.5v8.9l-14.8,8.6Zm7.9-14.2-4-2.3-3.7-2.2,7.7-4.3,7.7,4.3Zm-7.9-4.9V64.4l7.4,4.3Zm-.6,0-7.4-4.2,7.4-4.3Zm-.3.4-7.4,4.3V69.1Zm-24.8-4.5L415.5,73V64.5Zm-7.1,4.7h.2l7.5-4.3,7.7,4.4-7.7,4.4-4-2.3Zm31.9,18.9L440,96.9l-8-4.5v-9l12.4,7.1Zm.3,10.4v8.3l-7.4-4.2Zm16.5-29.9-7.4-4.2,7.4-4.1Zm-49-18.6v-9l15.7,9.1-7.7,4.4Zm-.3,19.5,7.5,4.3h.2l-7.7,4.5-5.3-3.1-2.4-1.4Zm-8.5,4.4h.1l8.2,4.7v9l-16-9.3V64.5l7.7,4.5Zm-8.3-5L390.9,69l7.5-4.2Zm0-8.9-8,4.3-7.7-4.4,15.7-9.3Zm-16.5.3v8.6l-7.5-4.3Zm.2,9.3,7.7,4.4-7.6,4.4-7.8-4.5Zm.3,9.4,8-4.7h.1l7.9-4.5v8.8l-16,9.2Zm16.3,9.6,4.2,2.4,3.5,2-7.7,4.6L391,97.3Zm-.3,18.3L391,107l7.4-4.3Zm.6-8.5,7.4,4.3-7.4,4.2Zm16,.2v8.3l-7.5-4.2Zm.5-10.9V83.1l8.1-4.6h0l7.9-4.5v8.8Zm16.3.9,4.3,2.4,3.4,1.9-7.7,4.6L424,97.2Zm-.3,18.2-7.4-4.2,7.4-4.3Zm.8.5,7.7-4.4,7.7,4.4L440,116l-6.7-3.8Zm16,19.5,4.2,2.3,3.5,2-7.7,4.6-7.7-4.6Zm.3-.5v-9l4.9,2.8,10.7,6.3-7.7,4.4Zm5.2-6.6-5.3-3.1V102.6L451,104l5.3,3.1v9.2h.1l8.1,4.7v9Zm3-16.6,7.5,4.2-7.5,4.2Zm.3-.5,7.4-4.3v8.5Zm-.3-.5V97.7l7.5,4.4Zm8-13.5,4.2,2.3,3.5,2-7.7,4.6-7.7-4.6Zm.3-.5v-9l15.7,9L473,96.9ZM473.6,78l7.7-4.4L489,78l-7.7,4.5-5.2-3.1Zm8-5.2V64.3l7.4,4.3Zm-.5,0-7.5-4.2,7.5-4.3Zm-.3.5-7.5,4.2V69.1Zm-16.3-9.5V64l-8,4.4-7.7-4.5,15.7-9.2ZM448,54.1l-8.1,4.6h-.1v9.2L432,63.7V54.5l16-9.3ZM431.5,34.8,424,30.6l7.5-4.3Zm-.2.5-7.5,4.2V31ZM415,73l-7.5-4.2,7.5-4.3Zm-.3.5-7.5,4.2V69.3ZM374.4,59.3l3.2-1.8,4.5-2.6,7.7,4.4-7.7,4.6Zm7.5-13.9v9L373.7,59h-.1v9.3L365.9,64V54.7L377.4,48Zm-7.8,24,7.4,4.2-7.4,4.2Zm8.4,23.7,7.4,4.3-7.4,4.2Zm.3-.4,15.6-9.2v9L390.3,97Zm15.4,9.5-7.5,4.3V97.8Zm-7.5,5.2,7.5,4.2-7.5,4.3Zm.3,8.9,7.7-4.3,7.5,4.3h.2l-7.7,4.4h-.2Zm15.9-.2-6.7-3.9-1-.6,7.8-4.3,7.7,4.3Zm24.3-14-7.4,4.3V97.7Zm-7.4,5.3,7.4,4.2-7.4,4.2Zm.3,8.9,7.7-4.4,7.5,4.3h.2l-7.7,4.4h-.1Zm7.9,13.9v-9l8.2-4.6h0L448,112v8.9l-12.4,7.3Zm15.8,10.1-7.5,4.3v-8.7Zm.2,9-7.4-4.2,7.4-4.3Zm-7.7-3.7,7.5,4.2-7.5,4.2Zm15.7,8.9-7.7,4.5h-.1l-7.6-4.4,7.7-4.4,7.5,4.3Zm16.5-38.2-7.7,4.4h-.2l-7.5-4.4,7.7-4.4,7.5,4.3Zm4.3-59.2,4.5-2.5,3.5,2,4.2,2.3-7.7,4.6-7.7-4.6Zm4,6.7-7.5,4.4V59.4ZM448,44.5l-16,9.3V44.9l8.2-4.6h.1l7.7-4.5Zm-8-4.8-7.7-4.5,7.7-4.3,7.7,4.3Zm-8.8-13.9-7.4,4.3V21.3ZM414.7,64l-7.5,4.4V59.6ZM381.8,44.8l-4.6,2.7L365.9,54V45.1l8-4.6h.1l7.8-4.6Zm-7.9-4.9-7.7-4.5,7.7-4.3,7.7,4.4ZM365.1,26l-7.5,4.3V21.6ZM258.5,108l7.4,4.1-7.4,4.2Zm5.2-13,2.8-1.6,7.7,4.4-7.7,4.6-7.7-4.6Zm10.9-16.2,8.1,4.7v9l-16-9.3V64.9l7.8,4.5v9.2C274.5,78.7,274.5,78.8,274.6,78.8Zm16.1-19.3L283,64.1l-7.7-4.6,1.3-.7,6.4-3.6,3.5,1.9Zm-8.2,4.9L275,68.7V60Zm.8,9V64.9l7.4,4.3Zm-.6,0-7.4-4.2,7.4-4.3Zm.2.8,7.7,4.4L283,83l-7.7-4.5Zm-.5-.4L275,78V69.7Zm8.9,4.5-7.7-4.5,7.6-4.3,7.7,4.4Zm7.9-4.9-7.4-4.2,7.4-4Zm0-9v.2l-7.9,4.3-7.8-4.5,15.7-9.2Zm-16.5-9.7-8.1,4.6h-.1v9.2l-7.8-4.4V54.9l16-9.2ZM266.8,93V84l15.7,9-7.7,4.5Zm-.3,19.4,7.7,4.5-7.7,4.4-7.7-4.5Zm-.2-.7-7.5-4.2,7.5-4.3Zm49.6-37.6,7.7,4.5L316,82.9l-7.7-4.4Zm.4-.7V64.9l7.4,4.3Zm-.6,0-7.4-4.2,7.4-4.3Zm-.3.4L308,78V69.7Zm-4-16.1,4.6-2.6,3.4,2,4.3,2.4L316,64.1l-7.7-4.6Zm12.8-17.3,8.1,4.8v9l-16-9.4V26.5L324,31v9.2Zm3.8-21,4.6-2.6,3.4,1.9,4.3,2.4-7.7,4.7-7.8-4.7Zm4.8,7.1,7.5,4.3L332.8,35Zm-.3,9.3,7.7,4.4-7.6,4.4-7.7-4.5ZM348.8,26v.2l-8,4.3-7.7-4.4,15.7-9.3Zm0,.8V35l-7.4-4.2Zm-16.5,8.3-7.5-4.3,7.5-4.3Zm-.3.4-7.4,4.2V31.3ZM316.3,54.7v-9l15.6,9-7.7,4.5Zm24.6-14.8-7.7-4.4.3-.2,7.3-4.1,7.7,4.3ZM332,26.1l-7.4,4.3V21.6ZM315.5,64.4,308,68.7V60ZM282.9,44.9,267,54.2v-9l8-4.6c0-.1,0-.1.1-.1l7.8-4.5ZM258.7,31.3l7.4,4.2-7.4,4.2Zm2.5-11.4,5.5-3.1,7.7,4.4-7.7,4.6L259,21.2Zm5.4,15.9,7.7,4.4-7.6,4.4L259,40.1Zm.4-.7V26.6l7.4,4.3Zm-.6,0L259,30.9l7.4-4.3Zm8.6,4.8-7.7-4.4,4.4-2.5,3.2-1.8,7.7,4.3Zm-8.9-13.8-7.4,4.3V21.6Zm-.1,76.6-7.5,4.3V98.3Zm8.8,13.9-7.6-4.5,7.6-4.3,7.7,4.4Zm-.6-9.1-7.4,4.2v-8.5l5.7,3.3Zm9.1-24,8-4.6h.1l7.8-4.5v8.8l-15.9,9.3Zm41-5.2-7.7-4.5,7.6-4.3,7.7,4.4Zm58.3,23.8,7.6-4.2v8.6l-3-1.7Zm32.9-.1V92.8l16-9.4v9L423.4,97h-.2v9.2l-2.6-1.5ZM432,140.2v-9.3l3.8-2.3,12.2-7v9l-8.1,4.6h0a.1.1,0,0,0-.1.1h0v9.2l-2.7-1.5Zm24.5,14-6.6-3.8-1-.6,7.7-4.4,7.7,4.4Zm-.5-9.1-7.4,4.2v-8.5l1.7,1ZM473,116l-6.6-3.8-1-.6,7.7-4.4,7.7,4.4Zm-.5-9.1-7.4,4.2v-8.5l1.7,1Zm17.1-29.2-4.5-2.5-3.2-1.9,7.7-4.4,7.7,4.4Zm0-19.1-8-4.5v-9l15.7,9Zm-8.5-4.5-8.2,4.6h-.1v9.3l-7.7-4.5V54.3l16-9.2Zm-24.6,4.6-7.9-4.6v-9l15.6,9.1ZM448,25.9l-8,4.4-7.7-4.5L448,16.6Zm-8-5.4L432,16V7l15.7,9.1Zm-24.5-4.2,16-9.3v9l-8.1,4.6h-.2v9.2l-7.7-4.5ZM399,54.5l16-9.2v9l-8.2,4.6h0a.1.1,0,0,1-.1.1h0v9.3L399,63.9Zm-8.6,4.4-8-4.5v-9l15.7,9.1Zm-8.6-32.8-7.9,4.4L366.1,26l15.7-9.2Zm-8-5.3-7.9-4.5v-9l15.7,9Zm-8.5-4.5-8.1,4.6h-.1v9.2l-7.8-4.4V16.5l16-9.2Zm-24.5,4.5-8-4.5v-9l15.7,9.1Zm-24.5-4.2,16-9.3v9l-8.1,4.6H324v9.3l-7.7-4.5Zm-.6,38.1-8.1,4.6h-.2v9.2l-7.6-4.4V54.9l15.9-9.2Zm-24.5,4.5-7.9-4.5v-9l15.7,9Zm-8.3-33-8,4.3-2.2-1.3-5.5-3.1,15.7-9.2Zm-8-5.4L267,16.3v-9l15.6,9.1Zm-24.5-4.2,16-9.3v9l-8.1,4.6a.1.1,0,0,0-.1.1h-.1v9.2l-7.7-4.5Zm0,10,7.7,4.4v9.2l.2.3,8.1,4.7v9l-16-9.3Zm-.1,66.6,16-9.2v9l-8.2,4.6h0c-.1,0-.1,0-.1.1h0V107l-2.9-1.6-4.8-2.8Zm0,10,2.8,1.6,4.9,2.9v9.4l8.2,4.7v9l-16-9.3Zm16.5,27.6v-9l8-4.6h.1l7.8-4.6v8.9Zm15.9-28-7.9,4.4-7.2-4.2-.5-.3,15.6-9.2Zm33.6-10.3v-9l8-4.6h.1l7.8-4.6v8.9Zm15.9-28-8,4.4-7.7-4.5,15.7-9.2Zm.6-19.3,8.1-4.7h.1l7.8-4.5v8.8l-16,9.4Zm16.5-9.7v-9l7.8,4.4v9.5l8.1,4.7v9l-16-9.3Zm16.6,29.1,7.7,4.5v9.2a.3.3,0,0,0,.1.2l8.2,4.8v9l-16-9.4Zm16.5,38.1,3,1.7,4.8,2.7v9.2h.1l8.1,4.7v9l-16-9.3ZM399,130.3v-9l8.1-4.7h0l7.8-4.5V121Zm16.5-27.7,2.6,1.5,5.1,3v9.2h.2l8.1,4.7v9l-16-9.3ZM432,140.8l2.7,1.5,5.1,3v9.2h.1l8.1,4.7v9l-16-9.3Zm16.6,27.6v-9l8.1-4.6h0l7.8-4.6v8.9Zm15.9-28-7.9,4.4-1.5-.8-6.2-3.7,15.6-9.2Zm.6-10.2v-9l8.1-4.6h0L481,112v8.9Zm15.9-28-7.9,4.4-1.5-.8-6.3-3.7L481,92.9Zm.6-10.3v-9l8.1-4.6h0l7.9-4.5v8.8Zm16-28-8,4.4-7.7-4.5,15.7-9.2Z" fill="url(#linear-gradient)"/></svg>