<svg xmlns="http://www.w3.org/2000/svg" width="7in" height="2.7in" viewBox="0 0 505.1 190.8"><defs><linearGradient id="a" x1="249.72" x2="498.09" y1="87.73" y2="87.73" gradientUnits="userSpaceOnUse"><stop offset="0" stop-color="#e8e7e8"/><stop offset=".16" stop-color="#e9e6e4"/><stop offset=".34" stop-color="#ebe3d6"/><stop offset=".53" stop-color="#efdfc0"/><stop offset=".72" stop-color="#f4d8a2"/><stop offset=".91" stop-color="#fbd07b"/><stop offset="1" stop-color="#fc6"/></linearGradient></defs><path fill="url(#a)" d="M498.1 64.1v-10h-.1l-16.5-9.5h-.3l-16.4 9.5-16.3-9.4v-9.5h-.1l-7.8-4.4 7.8-4.3a.4.4 0 0 0 .1-.3V16.1h-.1l-16.5-9.8h-.3l-16.5 9.6a.2.2 0 0 0-.2.2v28.6l-16.3 9.4-16.2-9.3v-9.3h-.2l-7.8-4.4 7.8-4.3a.2.2 0 0 0 .2-.2v-10h-.2l-16.5-10h-.2L349.1 16l-16.4-9.4h-.3l-16.5 9.6c-.1 0-.1.1-.1.2V45l-16.3 9.4-16.1-9.3v-9.6h-.1l-7.8-4.4 7.8-4.3a.4.4 0 0 0 .1-.3V16.4h-.1l-16.5-9.8h-.3L250 16.2c-.1 0-.1.1-.1.2V45c0 .1 0 .2.1.2l16.2 9.5v28.7l-16.3 9.4-.2.3v28.6l.2.2 16.5 9.6h.3l16.5-9.6a.3.3 0 0 1 .1-.2v-9.5h-.1l-7.9-4.4 7.9-4.3v-10l16.2-9.5 16.4 9.5h.2l16.5-9.6c.1-.1.2-.2.2-.3v-9.7a.1.1 0 0 0-.1-.1h-.1l-7.8-4.4 7.8-4.3.2-.2V54.8l16.3-9.5 16.2 9.4v28.4a.2.2 0 0 0 .2.2l16.4 9.6v28.2a.4.4 0 0 0 .1.3l16.6 9.6h.2l16.5-9.6 16.2 9.5v28.6l16.6 9.6h.3l16.4-9.6.2-.2v-9.5h-.2l-7.8-4.4 7.8-4.3a.2.2 0 0 0 .2-.2v-9.7l16.3-9.6c.1-.1.2-.1.2-.2v-9.5h-.2l-7.8-4.4 7.8-4.3.2-.2V92.6L498 83a.3.3 0 0 0 .1-.2v-9.5a.1.1 0 0 0-.1-.1l-7.9-4.5 7.9-4.3a.3.3 0 0 0 .1-.3zM315.7 92.5l-15.9-9.3v-9.3h-.1v-9l7.7 4.5v9.2c0 .1.1.1.2.2l8.1 4.7zm41.9-61.2l7.4 4.1-7.4 4.2zm3.5-12l4.5-2.6 3.4 2 4.3 2.4-7.7 4.6-7.7-4.6zm4.8 15.7v-8.5l7.4 4.3zm-.4.7l7.7 4.5-7.6 4.3-7.7-4.4zm-.2-.7l-7.4-4.2 7.4-4.3zm45.4 22.3l4.5-2.5 3.5 2 4.2 2.3-7.7 4.6-7.7-4.6zM423.2 40a.2.2 0 0 0 .2.2l8.1 4.7v9l-16-9.3V26.3l7.7 4.4v9.2zm4-20.9l4.6-2.6 3.5 2 4.1 2.4-7.6 4.6-7.8-4.6zM456 59l-7.7 4.6-7.7-4.6 3.2-1.8 4.5-2.6 3.4 1.9zm-74.4 5.2l-7.5 4.3v-8.8zM432 34.8v-8.5l7.5 4.3zm-.2.8l7.6 4.4-7.6 4.4-7.7-4.4zm16 28.3l-7.5 4.3v-8.8zm25 14.1h.1l8.2 4.7v9l-16-9.3V64.3l7.7 4.5zm-16.4 19h-.1v9.2l-2.5-1.4-5.3-3v-9.2l1.5-.8 14.5-8.4v9l-8.1 4.6zm-49.4 9.7l-7.8-4.5 15.7-9.2v9.3zM390.5 78l-7.7-4.4.2-.2 7.4-4.1 7.7 4.3zm-8.1-4.8v-8.6l7.4 4.3zm32.2 19.3l-7.7 4.5-7.9-4.5v-9.1zm8.9-24l-7.7-4.5 15.7-9.2v9.3zm8-3.8V73l-7.5-4.2zm.5 18V64.4l7.8 4.4V78h.1l8.1 5v9l-3.3-1.9zm16.3-9l7.5 4.3h.2l-7.7 4.4-5.4-3.1-2.3-1.3zM432 102.6l1.8 1 5.7 3.3-7.5 4.2zm8 4l-1.4-.8-6.3-3.7 15.7-9.2v9.2zm8.6-14.6v-9l8.1-4.7 7.8-4.5v8.9l-14.8 8.6zm7.9-14.2l-4-2.3-3.7-2.2 7.7-4.3 7.7 4.3zm-7.9-4.9v-8.5l7.4 4.3zm-.6 0l-7.4-4.2 7.4-4.3zm-.3.4l-7.4 4.3v-8.5zm-24.8-4.5l-7.4 4.2v-8.5zm-7.1 4.7h.2l7.5-4.3 7.7 4.4-7.7 4.4-4-2.3zm31.9 18.9l-7.7 4.5-8-4.5v-9l12.4 7.1zm.3 10.4v8.3l-7.4-4.2zm16.5-29.9l-7.4-4.2 7.4-4.1zm-49-18.6v-9l15.7 9.1-7.7 4.4zm-.3 19.5l7.5 4.3h.2l-7.7 4.5-5.3-3.1-2.4-1.4zm-8.5 4.4h.1l8.2 4.7v9l-16-9.3V64.5l7.7 4.5zm-8.3-5l-7.5-4.2 7.5-4.2zm0-8.9l-8 4.3-7.7-4.4 15.7-9.3zm-16.5.3v8.6l-7.5-4.3zm.2 9.3l7.7 4.4-7.6 4.4-7.8-4.5zm.3 9.4l8-4.7h.1l7.9-4.5v8.8l-16 9.2zm16.3 9.6l4.2 2.4 3.5 2-7.7 4.6-7.7-4.6zm-.3 18.3L391 107l7.4-4.3zm.6-8.5l7.4 4.3-7.4 4.2zm16 .2v8.3l-7.5-4.2zm.5-10.9v-8.9l8.1-4.6 7.9-4.5v8.8zm16.3.9l4.3 2.4 3.4 1.9-7.7 4.6-7.8-4.6zm-.3 18.2l-7.4-4.2 7.4-4.3zm.8.5l7.7-4.4 7.7 4.4-7.7 4.4-6.7-3.8zm16 19.5l4.2 2.3 3.5 2-7.7 4.6-7.7-4.6zm.3-.5v-9l4.9 2.8 10.7 6.3-7.7 4.4zm5.2-6.6l-5.3-3.1v-18.3l2.5 1.4 5.3 3.1v9.2h.1l8.1 4.7v9zm3-16.6l7.5 4.2-7.5 4.2zm.3-.5l7.4-4.3v8.5zm-.3-.5v-8.7l7.5 4.4zm8-13.5l4.2 2.3 3.5 2-7.7 4.6-7.7-4.6zm.3-.5v-9l15.7 9-7.8 4.5zm8.5-14.4l7.7-4.4L489 78l-7.7 4.5-5.2-3.1zm8-5.2v-8.5l7.4 4.3zm-.5 0l-7.5-4.2 7.5-4.3zm-.3.5l-7.5 4.2v-8.4zm-16.3-9.5v.2l-8 4.4-7.7-4.5 15.7-9.2zM448 54.1l-8.1 4.6h-.1v9.2l-7.8-4.2v-9.2l16-9.3zm-16.5-19.3l-7.5-4.2 7.5-4.3zm-.2.5l-7.5 4.2V31zM415 73l-7.5-4.2 7.5-4.3zm-.3.5l-7.5 4.2v-8.4zm-40.3-14.2l3.2-1.8 4.5-2.6 7.7 4.4-7.7 4.6zm7.5-13.9v9l-8.2 4.6h-.1v9.3l-7.7-4.3v-9.3l11.5-6.7zm-7.8 24l7.4 4.2-7.4 4.2zm8.4 23.7l7.4 4.3-7.4 4.2zm.3-.4l15.6-9.2v9l-8.1 4.5zm15.4 9.5l-7.5 4.3v-8.7zm-7.5 5.2l7.5 4.2-7.5 4.3zm.3 8.9l7.7-4.3 7.5 4.3h.2l-7.7 4.4h-.2zm15.9-.2l-6.7-3.9-1-.6 7.8-4.3 7.7 4.3zm24.3-14l-7.4 4.3v-8.7zm-7.4 5.3l7.4 4.2-7.4 4.2zm.3 8.9l7.7-4.4 7.5 4.3h.2l-7.7 4.4h-.1zm7.9 13.9v-9l8.2-4.6 7.8-4.6v8.9l-12.4 7.3zm15.8 10.1l-7.5 4.3v-8.7zm.2 9l-7.4-4.2 7.4-4.3zm-7.7-3.7l7.5 4.2-7.5 4.2zm15.7 8.9l-7.7 4.5h-.1l-7.6-4.4 7.7-4.4 7.5 4.3zm16.5-38.2l-7.7 4.4h-.2l-7.5-4.4 7.7-4.4 7.5 4.3zm4.3-59.2l4.5-2.5 3.5 2 4.2 2.3-7.7 4.6-7.7-4.6zm4 6.7l-7.5 4.4v-8.8zM448 44.5l-16 9.3v-8.9l8.2-4.6h.1l7.7-4.5zm-8-4.8l-7.7-4.5 7.7-4.3 7.7 4.3zm-8.8-13.9l-7.4 4.3v-8.8zM414.7 64l-7.5 4.4v-8.8zm-32.9-19.2l-4.6 2.7-11.3 6.5v-8.9l8-4.6h.1l7.8-4.6zm-7.9-4.9l-7.7-4.5 7.7-4.3 7.7 4.4zM365.1 26l-7.5 4.3v-8.7zm-106.6 82l7.4 4.1-7.4 4.2zm5.2-13l2.8-1.6 7.7 4.4-7.7 4.6-7.7-4.6zm10.9-16.2l8.1 4.7v9l-16-9.3V64.9l7.8 4.5v9.2c0 .1 0 .2.1.2zm16.1-19.3l-7.7 4.6-7.7-4.6 1.3-.7 6.4-3.6 3.5 1.9zm-8.2 4.9l-7.5 4.3V60zm.8 9v-8.5l7.4 4.3zm-.6 0l-7.4-4.2 7.4-4.3zm.2.8l7.7 4.4L283 83l-7.7-4.5zm-.5-.4L275 78v-8.3zm8.9 4.5l-7.7-4.5 7.6-4.3 7.7 4.4zm7.9-4.9l-7.4-4.2 7.4-4zm0-9v.2l-7.9 4.3-7.8-4.5 15.7-9.2zm-16.5-9.7l-8.1 4.6h-.1v9.2l-7.8-4.4v-9.2l16-9.2zM266.8 93v-9l15.7 9-7.7 4.5zm-.3 19.4l7.7 4.5-7.7 4.4-7.7-4.5zm-.2-.7l-7.5-4.2 7.5-4.3zm49.6-37.6l7.7 4.5-7.6 4.3-7.7-4.4zm.4-.7v-8.5l7.4 4.3zm-.6 0l-7.4-4.2 7.4-4.3zm-.3.4L308 78v-8.3zm-4-16.1l4.6-2.6 3.4 2 4.3 2.4-7.7 4.6-7.7-4.6zm12.8-17.3l8.1 4.8v9l-16-9.4V26.5L324 31v9.2zm3.8-21l4.6-2.6 3.4 1.9 4.3 2.4-7.7 4.7-7.8-4.7zm4.8 7.1l7.5 4.3-7.5 4.2zm-.3 9.3l7.7 4.4-7.6 4.4-7.7-4.5zm16.3-9.8v.2l-8 4.3-7.7-4.4 15.7-9.3zm0 .8V35l-7.4-4.2zm-16.5 8.3l-7.5-4.3 7.5-4.3zm-.3.4l-7.4 4.2v-8.4zm-15.7 19.2v-9l15.6 9-7.7 4.5zm24.6-14.8l-7.7-4.4.3-.2 7.3-4.1 7.7 4.3zM332 26.1l-7.4 4.3v-8.8zm-16.5 38.3l-7.5 4.3V60zm-32.6-19.5L267 54.2v-9l8-4.6c0-.1 0-.1.1-.1l7.8-4.5zm-24.2-13.6l7.4 4.2-7.4 4.2zm2.5-11.4l5.5-3.1 7.7 4.4-7.7 4.6-7.7-4.6zm5.4 15.9l7.7 4.4-7.6 4.4-7.7-4.5zm.4-.7v-8.5l7.4 4.3zm-.6 0l-7.4-4.2 7.4-4.3zm8.6 4.8l-7.7-4.4 4.4-2.5 3.2-1.8 7.7 4.3zm-8.9-13.8l-7.4 4.3v-8.8zm-.1 76.6l-7.5 4.3v-8.7zm8.8 13.9l-7.6-4.5 7.6-4.3 7.7 4.4zm-.6-9.1l-7.4 4.2v-8.5l5.7 3.3zm9.1-24l8-4.6h.1l7.8-4.5v8.8l-15.9 9.3zm41-5.2l-7.7-4.5 7.6-4.3 7.7 4.4zm58.3 23.8l7.6-4.2v8.6l-3-1.7zm32.9-.1v-9.2l16-9.4v9l-8.1 4.6h-.2v9.2l-2.6-1.5zm16.5 38.2v-9.3l3.8-2.3 12.2-7v9l-8.1 4.6a.1.1 0 0 0-.1.1v9.2l-2.7-1.5zm24.5 14l-6.6-3.8-1-.6 7.7-4.4 7.7 4.4zm-.5-9.1l-7.4 4.2v-8.5l1.7 1zm17-29.1l-6.6-3.8-1-.6 7.7-4.4 7.7 4.4zm-.5-9.1l-7.4 4.2v-8.5l1.7 1zm17.1-29.2l-4.5-2.5-3.2-1.9 7.7-4.4 7.7 4.4zm0-19.1l-8-4.5v-9l15.7 9zm-8.5-4.5l-8.2 4.6h-.1V68l-7.7-4.5v-9.2l16-9.2zm-24.6 4.6l-7.9-4.6v-9l15.6 9.1zM448 25.9l-8 4.4-7.7-4.5 15.7-9.2zm-8-5.4l-8-4.5V7l15.7 9.1zm-24.5-4.2l16-9.3v9l-8.1 4.6h-.2v9.2l-7.7-4.5zM399 54.5l16-9.2v9l-8.2 4.6a.1.1 0 0 1-.1.1v9.3l-7.7-4.4zm-8.6 4.4l-8-4.5v-9l15.7 9.1zm-8.6-32.8l-7.9 4.4-7.8-4.5 15.7-9.2zm-8-5.3l-7.9-4.5v-9l15.7 9zm-8.5-4.5l-8.1 4.6h-.1v9.2l-7.8-4.4v-9.2l16-9.2zm-24.5 4.5l-8-4.5v-9l15.7 9.1zm-24.5-4.2l16-9.3v9l-8.1 4.6h-.2v9.3l-7.7-4.5zm-.6 38.1l-8.1 4.6h-.2v9.2l-7.6-4.4v-9.2l15.9-9.2zm-24.5 4.5l-7.9-4.5v-9l15.7 9zm-8.3-33l-8 4.3-2.2-1.3-5.5-3.1 15.7-9.2zm-8-5.4l-7.9-4.5v-9l15.6 9.1zm-24.5-4.2l16-9.3v9l-8.1 4.6a.1.1 0 0 0-.1.1h-.1v9.2l-7.7-4.5zm0 10l7.7 4.4v9.2l.2.3 8.1 4.7v9l-16-9.3zm-.1 66.6l16-9.2v9l-8.2 4.6c-.1 0-.1 0-.1.1v9.3l-2.9-1.6-4.8-2.8zm0 10l2.8 1.6 4.9 2.9v9.4l8.2 4.7v9l-16-9.3zm16.5 27.6v-9l8-4.6h.1l7.8-4.6v8.9zm15.9-28l-7.9 4.4-7.2-4.2-.5-.3 15.6-9.2zm33.6-10.3v-9l8-4.6h.1l7.8-4.6v8.9zm15.9-28l-8 4.4-7.7-4.5 15.7-9.2zm.6-19.3l8.1-4.7h.1l7.8-4.5v8.8l-16 9.4zm16.5-9.7v-9l7.8 4.4v9.5l8.1 4.7v9l-16-9.3zm16.6 29.1l7.7 4.5v9.2a.3.3 0 0 0 .1.2l8.2 4.8v9l-16-9.4zm16.5 38.1l3 1.7 4.8 2.7v9.2h.1l8.1 4.7v9l-16-9.3zm16.6 27.6v-9l8.1-4.7 7.8-4.5v8.9zm16.5-27.7l2.6 1.5 5.1 3v9.2h.2l8.1 4.7v9l-16-9.3zm16.5 38.2l2.7 1.5 5.1 3v9.2h.1l8.1 4.7v9l-16-9.3zm16.6 27.6v-9l8.1-4.6 7.8-4.6v8.9zm15.9-28l-7.9 4.4-1.5-.8-6.2-3.7 15.6-9.2zm.6-10.2v-9l8.1-4.6 7.8-4.6v8.9zm15.9-28l-7.9 4.4-1.5-.8-6.3-3.7 15.7-9.2zm.6-10.3v-9l8.1-4.6 7.9-4.5v8.8zm16-28l-8 4.4-7.7-4.5 15.7-9.2z"/></svg>