<svg xmlns="http://www.w3.org/2000/svg" width="3.7in" height="3.7in" viewBox="0 0 263.5 263.5"><path fill="#f5b65f" d="M208.8 116.6c-1.3-22.4-9.6-42.6-22.3-57.5s-33.2-26.5-54.4-26.5h-.4c-40.5.2-73.5 37.2-76.4 83.9-.1 2.2-.2 4.4-.2 6.6v103.6l-1.8.3a123.4 123.4 0 1 1 156.9 0l-1.2-.9v-103c0-2.2-.1-4.4-.2-6.5z"/><path fill="#933f11" d="M209 226.1l1.2.9a109.3 109.3 0 0 1-10.3 7.6l-.4-.5a82 82 0 0 0-50.4-34.2 19.1 19.1 0 0 0 1.1-6.4v-12.9a50.4 50.4 0 0 0 31.9-46.9v-24.5a88.3 88.3 0 0 0 26.6 7.4c.1 2.1.2 4.3.2 6.5z"/><path fill="#8d7689" d="M199.5 234.1l.4.5a123.4 123.4 0 0 1-136.2 0 81.7 81.7 0 0 1 50.7-34.7 18.5 18.5 0 0 0 34.7 0 82 82 0 0 1 50.4 34.2z"/><path fill="#f2ddc0" d="M150.2 182.6v10.9a19.1 19.1 0 0 1-1.1 6.4 18.6 18.6 0 0 1-17.3 12.1 18.9 18.9 0 0 1-17.4-12.1 19.1 19.1 0 0 1-1.1-6.4V183"/><path fill="#f2ddc0" d="M113.3 180.4a49.1 49.1 0 0 0 18.5 3.5 51.4 51.4 0 0 0 18.4-3.4"/><path fill="#933f11" d="M113.3 193.5a19.1 19.1 0 0 0 1.1 6.4 81.7 81.7 0 0 0-50.7 34.7 110.7 110.7 0 0 1-10.4-7.6l1.8-.3V123.1c0-2.2.1-4.4.2-6.6a83.2 83.2 0 0 0 25.4-7l.7 1.5v22.6a50 50 0 0 0 31.9 46.8z"/><path fill="#f2ddc0" d="M131.8 36.1a87.2 87.2 0 0 1-50.1 73l-1 .4.7 1.5v22.6a50 50 0 0 0 31.9 46.8 49.1 49.1 0 0 0 18.5 3.5 51.4 51.4 0 0 0 18.4-3.4 50.4 50.4 0 0 0 31.9-46.9v-24.4a87.4 87.4 0 0 1-50.3-73.1z"/><path fill="#4f3b49" d="M131.8 257.7a125.8 125.8 0 0 1-69.5-20.9 116.6 116.6 0 0 1-10.6-7.9 126 126 0 1 1 160.1 0 130.9 130.9 0 0 1-10.5 7.9 126.3 126.3 0 0 1-69.5 20.9zM54.9 225a121.3 121.3 0 0 0 10.2 7.5 120.7 120.7 0 0 0 133.4 0c3.4-2.3 6.8-4.8 10.1-7.5a120.5 120.5 0 0 0 44-93.2c0-66.7-54.2-120.9-120.8-120.9A120.8 120.8 0 0 0 54.9 225z"/><path fill="none" stroke="#4f3b49" stroke-linecap="round" stroke-miterlimit="10" stroke-width="5.07" d="M98.1 107.9c4.3-1.6 11-.9 14.8 1.6m51.9-1.6a18.7 18.7 0 0 0-14.8 1.6"/><path fill="none" stroke="#4f3b49" stroke-linecap="round" stroke-miterlimit="10" stroke-width="4.27" d="M138.5 141.8a9.5 9.5 0 0 1-13.4 0"/><path d="M131.7 45.3h-3.1l-1.4 8.3-7 17.1-16 20.7-22.5 17.7-.2 12.7h.2a87.2 87.2 0 0 0 50.1-73c0-1.2-.1-2.3-.1-3.5z" opacity=".1"/><path fill="#4f3b49" d="M199.7 236.6a2.1 2.1 0 0 1-2-1.1c-10.9-17-27.3-28.7-46.2-33a2.6 2.6 0 0 1-1.8-3.1 2.3 2.3 0 0 1 2.8-1.9c20.1 4.6 37.6 17.1 49.1 35.2a2.5 2.5 0 0 1-.6 3.5 2.2 2.2 0 0 1-1.3.4z"/><path fill="#933f11" d="M186.5 59.1c12.7 14.9 21 35.1 22.3 57.5a88.3 88.3 0 0 1-26.6-7.4 87.4 87.4 0 0 1-50.4-73.1c.1-1.1.2-2.3.2-3.5h.1c21.2 0 40.4 10.1 54.4 26.5z"/><path fill="#4f3b49" d="M63.5 237.2a3.3 3.3 0 0 1-1.3-.4 2.8 2.8 0 0 1-.7-3.6c11.6-18.4 29.2-31.1 49.5-35.7a2.5 2.5 0 0 1 2.9 1.9 2.7 2.7 0 0 1-1.9 3.1c-19.1 4.3-35.6 16.2-46.5 33.5a2.2 2.2 0 0 1-2 1.2z"/><path fill="#933f11" d="M131.7 32.6c0 1.2.1 2.4.1 3.5a87.2 87.2 0 0 1-50.1 73l-1 .4a83.2 83.2 0 0 1-25.4 7c2.9-46.7 35.9-83.7 76.4-83.9z"/><path fill="none" stroke="#4f3b49" stroke-linecap="round" stroke-miterlimit="10" stroke-width="5.07" d="M55.1 226.7V123.1c0-2.2.1-4.4.2-6.6 2.9-46.7 35.9-83.7 76.4-83.9h.4c21.2 0 40.4 10.1 54.4 26.5s21 35.1 22.3 57.5c.1 2.1.2 4.3.2 6.5v103"/><path fill="#4f3b49" d="M131.8 214.5a22 22 0 0 1-14.9-5.6 18 18 0 0 1-4.8-6.8 16.5 16.5 0 0 1-1.3-6.6v-11.8a2.5 2.5 0 0 1 5 0v11.8a14.4 14.4 0 0 0 1 5 15.5 15.5 0 0 0 3.7 5.2 16.8 16.8 0 0 0 11.3 4.2c6.6 0 12.6-3.8 14.9-9.4a12.4 12.4 0 0 0 1-5v-11.7a2.4 2.4 0 0 1 2.5-2.3 2.5 2.5 0 0 1 2.6 2.3v11.7a18.5 18.5 0 0 1-1.3 6.6c-3.1 7.4-11 12.4-19.7 12.4z"/><path fill="none" stroke="#4f3b49" stroke-linecap="round" stroke-miterlimit="10" stroke-width="5.07" d="M81.7 109.1l-1 .4a78.5 78.5 0 0 1-24.2 6.9m25.2-7.3a87.2 87.2 0 0 0 50.1-73c.1-1.1.2-2.3.2-3.5"/><path fill="none" stroke="#4f3b49" stroke-linecap="round" stroke-miterlimit="10" stroke-width="5.07" d="M131.7 32.6c0 1.2.1 2.4.1 3.5a87.4 87.4 0 0 0 50.4 73.1 78.4 78.4 0 0 0 25 7.2h.9"/><path d="M150.4 181.8l-15.7 4-19.6-2.6-1.8 10.3 1.7 2.7c20 5.2 34.1-8.4 34.7-12.4a7.9 7.9 0 0 0 .7-2z" opacity=".1"/><path fill="#4f3b49" d="M109.7 118.2a10 10 0 0 0-6 .1 5.4 5.4 0 0 1-5.3-1 3 3 0 0 0-4 0 2.4 2.4 0 0 0 .1 3.6 24.4 24.4 0 0 0 11.9 5.2h.6c4 .5 8.3.2 8.6-2.2s-2-4.7-5.9-5.7z"/><circle cx="95.8" cy="139.7" r="7.9" fill="#fcc"/><circle cx="168.5" cy="139.7" r="7.9" fill="#fcc"/><path fill="#4f3b49" d="M154.5 155.1a3 3 0 0 0-4.1.8c-3.8 5.8-11 9.4-18.9 9.5s-15.1-3.7-19-9.5a3 3 0 0 0-4.1-.8 2.9 2.9 0 0 0-.8 4.1c4.9 7.4 13.9 12 23.8 12.1h.1c9.9-.1 18.9-4.7 23.9-12.1a2.9 2.9 0 0 0-.9-4.1zm-1.2-36.9a10.1 10.1 0 0 1 6 .1 5.2 5.2 0 0 0 5.2-1h.1a2.9 2.9 0 0 1 3.9 0 2.4 2.4 0 0 1 0 3.6 24.8 24.8 0 0 1-12 5.2h-.6c-4 .5-8.2.2-8.6-2.2s2.1-4.7 6-5.7z"/><path fill="#4f3b49" d="M131.8 188.6a52.4 52.4 0 0 1-37.4-15.9 54.7 54.7 0 0 1-15.5-38.4v-23.2a2.5 2.5 0 1 1 5 0v23.2a49.6 49.6 0 0 0 14 34.7 48.4 48.4 0 0 0 16.3 11 46 46 0 0 0 17.6 3.4 45 45 0 0 0 17.4-3.4c18.5-7.4 30.4-25.4 30.4-45.7v-24.9a2.6 2.6 0 0 1 2.5-2.6 2.6 2.6 0 0 1 2.6 2.6v24.9a54.1 54.1 0 0 1-33.6 50.6 51.3 51.3 0 0 1-19.3 3.7z"/></svg>