<svg xmlns="http://www.w3.org/2000/svg" id="Layer_1" viewBox="0 0 244.3 161.9" width="244.3" height="161.9"><style>.st0{fill:#f5b65f}</style><path d="M143.3 39.7h-.4L122.5 28c-.3-.2-.5-.5-.5-.8V3.3c-.1-.3 0-.7.4-.8h.1c.3-.2.6-.2.9 0l41 23.6c.3.1.4.5.4.8s-.1.7-.4.8l-20.6 11.9-.5.1zm-19.4-13l19.4 11 18.8-10.8-38.2-22v21.8z" class="st0"/><path d="M102.4 63.8h-.5l-20.5-12c-.3-.1-.4-.4-.4-.8V27c-.1-.3.1-.7.4-.8l41.1-23.7c.3-.2.6-.2.9 0 .3.1.5.5.5.8v23.9c0 .3-.2.6-.5.8l-20.1 11.3v23.6c0 .3-.2.7-.5.8l-.4.1zM82.8 50.5l18.6 10.8V38.8c0-.3.2-.6.5-.8L122 26.7V4.9L82.8 27.6v22.9z" class="st0"/><path d="M123 122.9h-.5l-41.1-24c-.3-.1-.5-.5-.4-.8V51c-.1-.3.1-.7.4-.8.3-.1.6-.1.9 0l20.5 11.9c.3.1.6.4.5.8v22.7l20.1 11.6c.3.2.5.5.5.9V122c0 .3-.2.6-.5.8l-.4.1zM82.8 97.5l39.2 22.8V98.6l-20.1-11.7c-.3-.1-.5-.5-.5-.8V63.4L82.8 52.6v44.9zm60.6-10.3h-.5l-20.4-11.9c-.5-.2-.7-.7-.5-1.2 0 0 0-.1.1-.1.1-.1.2-.3.4-.3l20.4-11.6c.3-.2.6-.2.9 0l20.6 11.6c.4.4.5.9.2 1.4l-.2.2-20.6 11.8-.4.1zm-18.6-12.7l18.6 10.7 18.7-10.7-18.7-10.6-18.6 10.6z" class="st0"/><path d="M123 122.9h-.5c-.4-.2-.6-.5-.5-.8v-24c-.1-.4.1-.8.5-.9l41-23.5c.3-.1.6-.1.9 0 .3.1.4.4.4.8v23.6c0 .3-.1.6-.4.8l-41 23.9-.4.1zm.9-24.3v21.7L163 97.5V76.1l-39.1 22.5zM19.4 143.5h6.8v9.7c-1.1.3-2.1.6-3.2.8s-2.4.3-3.8.3c-3 0-5.4-.9-7.1-2.7-1.7-1.8-2.5-4.3-2.5-7.6 0-2.1.4-3.9 1.3-5.5s2-2.8 3.6-3.6c1.6-.8 3.4-1.2 5.5-1.2s4.1.4 6 1.2l-1 2.1c-1.8-.8-3.5-1.1-5.2-1.1-2.4 0-4.3.7-5.7 2.2s-2.1 3.5-2.1 6c0 2.7.7 4.7 2 6.1 1.3 1.4 3.3 2.1 5.8 2.1 1.4 0 2.7-.2 4.1-.5v-6.2h-4.5v-2.1zM37 154.3c-2.2 0-4-.7-5.2-2-1.3-1.3-1.9-3.2-1.9-5.6 0-2.4.6-4.3 1.8-5.8s2.8-2.1 4.8-2.1c1.9 0 3.4.6 4.5 1.9s1.6 2.9 1.6 4.9v1.4H32.2c0 1.8.5 3.1 1.3 4 .8.9 2 1.4 3.6 1.4s3.2-.3 4.8-1v2c-.8.3-1.6.6-2.3.7-.7.1-1.6.2-2.6.2zm-.6-13.7c-1.2 0-2.2.4-2.9 1.2-.7.8-1.1 1.9-1.3 3.3H40c0-1.4-.3-2.5-1-3.3-.5-.8-1.4-1.2-2.6-1.2zM56.7 154v-9.7c0-1.2-.3-2.1-.8-2.7-.6-.6-1.4-.9-2.6-.9-1.6 0-2.7.4-3.4 1.3-.7.8-1.1 2.2-1.1 4.2v7.9h-2.3v-15h1.8l.4 2.1h.1c.5-.7 1.1-1.3 2-1.7.8-.4 1.8-.6 2.8-.6 1.8 0 3.2.4 4.1 1.3.9.9 1.4 2.3 1.4 4.2v9.8h-2.4zm13.2.3c-2.2 0-4-.7-5.2-2-1.3-1.3-1.9-3.2-1.9-5.6 0-2.4.6-4.3 1.8-5.8s2.8-2.1 4.8-2.1c1.9 0 3.4.6 4.5 1.9s1.6 2.9 1.6 4.9v1.4H65.1c0 1.8.5 3.1 1.3 4 .8.9 2 1.4 3.6 1.4s3.2-.3 4.8-1v2c-.8.3-1.6.6-2.3.7-.7.1-1.6.2-2.6.2zm-.6-13.7c-1.2 0-2.2.4-2.9 1.2-.7.8-1.1 1.9-1.3 3.3H73c0-1.4-.3-2.5-1-3.3-.6-.8-1.5-1.2-2.7-1.2zM82.6 154l-5.7-15h2.4l3.2 8.9c.7 2.1 1.2 3.4 1.3 4h.1c.1-.5.4-1.5 1-3s1.7-4.8 3.6-9.9h2.4l-5.7 15h-2.6zm10.5-19c0-.5.1-.9.4-1.1.3-.2.6-.4 1-.4s.7.1.9.4c.3.2.4.6.4 1.1s-.1.9-.4 1.1c-.3.3-.6.4-.9.4-.4 0-.7-.1-1-.4-.2-.2-.4-.6-.4-1.1zm2.5 19h-2.3v-15h2.3v15zm11.1.3c-2.2 0-4-.7-5.2-2-1.3-1.3-1.9-3.2-1.9-5.6 0-2.4.6-4.3 1.8-5.8s2.8-2.1 4.8-2.1c1.9 0 3.4.6 4.5 1.9s1.6 2.9 1.6 4.9v1.4H102c0 1.8.5 3.1 1.3 4 .8.9 2 1.4 3.6 1.4s3.2-.3 4.8-1v2c-.8.3-1.6.6-2.3.7-.8.1-1.7.2-2.7.2zm-.6-13.7c-1.2 0-2.2.4-2.9 1.2-.7.8-1.1 1.9-1.3 3.3h7.8c0-1.4-.3-2.5-1-3.3-.5-.8-1.4-1.2-2.6-1.2zm1.6-3.6h-1.5c-.6-.5-1.3-1.1-2.1-2-.8-.9-1.4-1.6-1.8-2.2v-.3h2.8c.3.6.7 1.4 1.2 2.2s1 1.5 1.4 2v.3zm11.7 17l-5.7-15h2.4l3.2 8.9c.7 2.1 1.2 3.4 1.3 4h.1c.1-.5.4-1.5 1-3s1.7-4.8 3.6-9.9h2.4l-5.7 15h-2.6zm17.1.3c-2.2 0-4-.7-5.2-2s-1.9-3.2-1.9-5.6c0-2.4.6-4.3 1.8-5.8s2.8-2.1 4.8-2.1c1.9 0 3.4.6 4.5 1.9s1.6 2.9 1.6 4.9v1.4h-10.3c0 1.8.5 3.1 1.3 4s2 1.4 3.6 1.4 3.2-.3 4.8-1v2c-.8.3-1.6.6-2.3.7s-1.7.2-2.7.2zm-.6-13.7c-1.2 0-2.2.4-2.9 1.2s-1.1 1.9-1.3 3.3h7.8c0-1.4-.3-2.5-1-3.3s-1.5-1.2-2.6-1.2zm17.6 13.4v-20h2.3v17.9h8.8v2.1h-11.1zm20.5.3c-2.2 0-4-.7-5.2-2s-1.9-3.2-1.9-5.6c0-2.4.6-4.3 1.8-5.8s2.8-2.1 4.8-2.1c1.9 0 3.4.6 4.5 1.9s1.6 2.9 1.6 4.9v1.4h-10.3c0 1.8.5 3.1 1.3 4s2 1.4 3.6 1.4 3.2-.3 4.8-1v2c-.8.3-1.6.6-2.3.7s-1.7.2-2.7.2zm-.6-13.7c-1.2 0-2.2.4-2.9 1.2s-1.1 1.9-1.3 3.3h7.8c0-1.4-.3-2.5-1-3.3s-1.4-1.2-2.6-1.2zm-1.7-3.9c.4-.6.9-1.2 1.4-2.1s.9-1.5 1.2-2.1h2.8v.3c-.4.6-1 1.3-1.8 2.2s-1.5 1.5-2.1 2h-1.5v-.3zm18.6 17.6c-1 0-1.9-.2-2.7-.5s-1.5-.9-2-1.7h-.2c.1.9.2 1.7.2 2.5v6.2h-2.3V139h1.8l.3 2.1h.1c.6-.8 1.3-1.4 2-1.8s1.7-.5 2.7-.5c2 0 3.5.7 4.6 2s1.6 3.3 1.6 5.7c0 2.5-.5 4.4-1.6 5.7s-2.5 2.1-4.5 2.1zm-.3-13.6c-1.5 0-2.6.4-3.3 1.3s-1 2.2-1.1 4v.5c0 2.1.4 3.6 1.1 4.5s1.8 1.4 3.4 1.4c1.3 0 2.3-.5 3-1.6s1.1-2.5 1.1-4.3c0-1.9-.4-3.3-1.1-4.3s-1.8-1.5-3.1-1.5zm10.3-5.7c0-.5.1-.9.4-1.1s.6-.4 1-.4.7.1.9.4.4.6.4 1.1-.1.9-.4 1.1-.6.4-.9.4c-.4 0-.7-.1-1-.4s-.4-.6-.4-1.1zm2.5 19h-2.3v-15h2.3v15zm15.1 0v-9.7c0-1.2-.3-2.1-.8-2.7s-1.4-.9-2.6-.9c-1.6 0-2.7.4-3.4 1.3s-1.1 2.2-1.1 4.2v7.9h-2.3v-15h1.8l.4 2.1h.1c.5-.7 1.1-1.3 2-1.7s1.8-.6 2.8-.6c1.8 0 3.2.4 4.1 1.3s1.4 2.3 1.4 4.2v9.8h-2.4zm13.2.3c-2.2 0-4-.7-5.2-2s-1.9-3.2-1.9-5.6c0-2.4.6-4.3 1.8-5.8s2.8-2.1 4.8-2.1c1.9 0 3.4.6 4.5 1.9s1.6 2.9 1.6 4.9v1.4h-10.3c0 1.8.5 3.1 1.3 4s2 1.4 3.6 1.4 3.2-.3 4.8-1v2c-.8.3-1.6.6-2.3.7s-1.7.2-2.7.2zm-.6-13.7c-1.2 0-2.2.4-2.9 1.2s-1.1 1.9-1.3 3.3h7.8c0-1.4-.3-2.5-1-3.3s-1.4-1.2-2.6-1.2z" class="st0"/></svg>