<svg id="Layer_1" data-name="Layer 1" xmlns="http://www.w3.org/2000/svg" width="244.3" height="161.9" viewBox="0 0 244.3 161.9"><title>genevieve-lepine-logo</title><path d="M143.3,39.7h-.4L122.5,28a1,1,0,0,1-.5-.8V3.3a.6.6,0,0,1,.5-.8.7.7,0,0,1,.9,0l41,23.6c.3.1.4.5.4.8s-.1.7-.4.8L143.8,39.6Zm-19.4-13,19.4,11,18.8-10.8-38.2-22Z" fill="#f5b65f"/><path d="M102.4,63.8h-.5l-20.5-12c-.3-.1-.4-.4-.4-.8V27a.7.7,0,0,1,.4-.8L122.5,2.5a.7.7,0,0,1,.9,0,.8.8,0,0,1,.5.8V27.2a1,1,0,0,1-.5.8L103.3,39.3V62.9a.8.8,0,0,1-.5.8ZM82.8,50.5l18.6,10.8V38.8a.9.9,0,0,1,.5-.8L122,26.7V4.9L82.8,27.6Z" fill="#f5b65f"/><path d="M123,122.9h-.5l-41.1-24a.7.7,0,0,1-.4-.8V51a.7.7,0,0,1,.4-.8,1.4,1.4,0,0,1,.9,0l20.5,11.9a.7.7,0,0,1,.5.8V85.6l20.1,11.6a1.1,1.1,0,0,1,.5.9V122a1,1,0,0,1-.5.8ZM82.8,97.5,122,120.3V98.6L101.9,86.9a.8.8,0,0,1-.5-.8V63.4L82.8,52.6Zm60.6-10.3h-.5L122.5,75.3a.9.9,0,0,1-.4-1.3c.1-.1.2-.3.4-.3l20.4-11.6a.7.7,0,0,1,.9,0l20.6,11.6a1.1,1.1,0,0,1,.2,1.4l-.2.2L143.8,87.1ZM124.8,74.5l18.6,10.7,18.7-10.7L143.4,63.9Z" fill="#f5b65f"/><path d="M123,122.9h-.5c-.4-.2-.6-.5-.5-.8v-24a.8.8,0,0,1,.5-.9l41-23.5a1.4,1.4,0,0,1,.9,0c.3.1.4.4.4.8V98.1a.9.9,0,0,1-.4.8l-41,23.9Zm.9-24.3v21.7L163,97.5V76.1Z" fill="#f5b65f"/><path d="M13.1,142.4h7.7v10l-3.5.9-3.4.2c-2.9,0-5.1-.8-6.6-2.5S5,146.8,5,143.6a10.2,10.2,0,0,1,2.6-7.3,10.4,10.4,0,0,1,7.4-2.6,13.9,13.9,0,0,1,5.7,1.2l-1.3,3.3a9.9,9.9,0,0,0-4.4-1.1,5.2,5.2,0,0,0-4.2,1.8,6.8,6.8,0,0,0-1.6,4.8,8.1,8.1,0,0,0,1.2,4.8,4.5,4.5,0,0,0,3.8,1.6l2.6-.2v-4.1H13.1Z" fill="#f5b65f"/><path d="M31.7,153.5a7.6,7.6,0,0,1-5.6-1.9,7.8,7.8,0,0,1-2-5.6c0-2.5.6-4.4,1.9-5.7a6.3,6.3,0,0,1,5.1-2,6.5,6.5,0,0,1,4.8,1.7,6.7,6.7,0,0,1,1.8,4.9v2H28.2a4.1,4.1,0,0,0,1,2.7,3.7,3.7,0,0,0,2.7.9,10.7,10.7,0,0,0,2.5-.3,7.5,7.5,0,0,0,2.4-.8v3.1l-2.2.8Zm-.6-12.4a2.8,2.8,0,0,0-2,.8,3.4,3.4,0,0,0-.8,2.3h5.6a3.4,3.4,0,0,0-.8-2.3A2.6,2.6,0,0,0,31.1,141.1Z" fill="#f5b65f"/><path d="M54.5,153.2h-4v-8.5a3.8,3.8,0,0,0-.6-2.4,1.9,1.9,0,0,0-1.8-.8,2.8,2.8,0,0,0-2.4,1.1,7,7,0,0,0-.8,3.7v6.9h-4V138.5H44l.5,1.9h.3a4,4,0,0,1,1.8-1.6,5.9,5.9,0,0,1,2.7-.5,4.9,4.9,0,0,1,3.9,1.4,5.4,5.4,0,0,1,1.3,4Z" fill="#f5b65f"/><path d="M65.3,153.5a7.8,7.8,0,0,1-5.6-1.9,7.8,7.8,0,0,1-2-5.6,8.1,8.1,0,0,1,1.9-5.7,6.3,6.3,0,0,1,5.1-2,6.5,6.5,0,0,1,4.8,1.7,6.7,6.7,0,0,1,1.8,4.9v2H61.8a4.1,4.1,0,0,0,1,2.7,3.7,3.7,0,0,0,2.7.9,10.1,10.1,0,0,0,2.5-.3,9,9,0,0,0,2.5-.8v3.1l-2.3.8Zm-.6-12.4a2.8,2.8,0,0,0-2,.8,4,4,0,0,0-.8,2.3h5.6a3.4,3.4,0,0,0-.8-2.3A2.6,2.6,0,0,0,64.7,141.1Z" fill="#f5b65f"/><path d="M78,153.2l-5.6-14.7h4.2l2.9,8.4a19.8,19.8,0,0,1,.6,3h0a26.2,26.2,0,0,1,.6-3l2.9-8.4h4.2l-5.6,14.7Z" fill="#f5b65f"/><path d="M89.7,134.7c0-1.3.7-1.9,2.2-1.9s2.2.6,2.2,1.9a1.9,1.9,0,0,1-.6,1.5,2.3,2.3,0,0,1-1.6.5C90.4,136.7,89.7,136.1,89.7,134.7Zm4.2,18.5h-4V138.5h4Z" fill="#f5b65f"/><path d="M104.7,153.5a7.5,7.5,0,0,1-5.5-1.9,7.8,7.8,0,0,1-2-5.6,8.1,8.1,0,0,1,1.8-5.7,6.6,6.6,0,0,1,5.2-2A6.9,6.9,0,0,1,109,140a6.7,6.7,0,0,1,1.7,4.9v2h-9.4a3.6,3.6,0,0,0,1,2.7,3.6,3.6,0,0,0,2.6.9,10.1,10.1,0,0,0,2.5-.3,8.1,8.1,0,0,0,2.5-.8v3.1l-2.2.8Zm-.6-16.6-2.4-1.9a20.8,20.8,0,0,1-2.5-2.1v-.3h4.5c.6.9,1.6,2.2,3.1,4v.3Zm.1,4.2a2.6,2.6,0,0,0-2,.8,4,4,0,0,0-.9,2.3H107a3.4,3.4,0,0,0-.8-2.3A2.8,2.8,0,0,0,104.2,141.1Z" fill="#f5b65f"/><path d="M117.5,153.2l-5.6-14.7h4.2l2.8,8.4a19.8,19.8,0,0,1,.6,3h.1a9.9,9.9,0,0,1,.6-3l2.8-8.4h4.2l-5.6,14.7Z" fill="#f5b65f"/><path d="M136,153.5a6.8,6.8,0,0,1-7.6-7.5c0-2.5.6-4.4,1.9-5.7a6.3,6.3,0,0,1,5.1-2,6.5,6.5,0,0,1,4.8,1.7,6.7,6.7,0,0,1,1.8,4.9v2h-9.5a4.1,4.1,0,0,0,1,2.7,3.7,3.7,0,0,0,2.7.9,10.7,10.7,0,0,0,2.5-.3,7.5,7.5,0,0,0,2.4-.8v3.1l-2.2.8Zm-.6-12.4a2.8,2.8,0,0,0-2,.8,4,4,0,0,0-.8,2.3h5.6a3.4,3.4,0,0,0-.8-2.3A2.6,2.6,0,0,0,135.4,141.1Z" fill="#f5b65f"/><path d="M152.6,153.2V134h4v15.9h7.8v3.3Z" fill="#f5b65f"/><path d="M174.1,153.5a6.8,6.8,0,0,1-7.5-7.5,8.1,8.1,0,0,1,1.8-5.7,6.3,6.3,0,0,1,5.1-2,6.9,6.9,0,0,1,4.9,1.7,7.1,7.1,0,0,1,1.7,4.9v2h-9.5a4.6,4.6,0,0,0,1,2.7,4,4,0,0,0,2.7.9,10.1,10.1,0,0,0,2.5-.3,9,9,0,0,0,2.5-.8v3.1l-2.3.8Zm-.6-12.4a2.8,2.8,0,0,0-2,.8,4.8,4.8,0,0,0-.8,2.3h5.6a3.3,3.3,0,0,0-.7-2.3A2.9,2.9,0,0,0,173.5,141.1Zm-2.3-4.2v-.3a34.4,34.4,0,0,0,3.1-4h4.5v.3l-2.3,2-2.6,2Z" fill="#f5b65f"/><path d="M191.4,153.5a4.7,4.7,0,0,1-4-1.9h-.2c.1,1.3.2,2,.2,2.2v5.9h-4V138.5h3.2l.6,1.9h.2a5.1,5.1,0,0,1,8.2-.1,9.1,9.1,0,0,1,1.5,5.6,10.7,10.7,0,0,1-.7,4.1,5.9,5.9,0,0,1-2,2.6A4.9,4.9,0,0,1,191.4,153.5Zm-1.1-12a2.5,2.5,0,0,0-2.2.9,4.7,4.7,0,0,0-.7,3v.4a5.7,5.7,0,0,0,.7,3.4,2.5,2.5,0,0,0,2.2,1.1q2.7,0,2.7-4.5a5.6,5.6,0,0,0-.7-3.2A2,2,0,0,0,190.3,141.5Z" fill="#f5b65f"/><path d="M200.2,134.7c0-1.3.8-1.9,2.2-1.9s2.2.6,2.2,1.9a2.3,2.3,0,0,1-.5,1.5,2.6,2.6,0,0,1-1.7.5C201,136.7,200.2,136.1,200.2,134.7Zm4.2,18.5h-4V138.5h4Z" fill="#f5b65f"/><path d="M222.2,153.2h-4v-8.5a3.8,3.8,0,0,0-.6-2.4c-.3-.6-.9-.8-1.8-.8a2.8,2.8,0,0,0-2.4,1.1,7,7,0,0,0-.8,3.7v6.9h-4V138.5h3.1l.5,1.9h.3a4,4,0,0,1,1.8-1.6,5.9,5.9,0,0,1,2.7-.5,4.9,4.9,0,0,1,3.9,1.4,5.4,5.4,0,0,1,1.3,4Z" fill="#f5b65f"/><path d="M233,153.5a6.8,6.8,0,0,1-7.6-7.5,8.1,8.1,0,0,1,1.9-5.7,6.3,6.3,0,0,1,5.1-2,6.9,6.9,0,0,1,4.9,1.7,7.1,7.1,0,0,1,1.7,4.9v2h-9.5a4.6,4.6,0,0,0,1,2.7,3.8,3.8,0,0,0,2.7.9,10.1,10.1,0,0,0,2.5-.3,9,9,0,0,0,2.5-.8v3.1l-2.3.8Zm-.6-12.4a2.8,2.8,0,0,0-2,.8,4,4,0,0,0-.8,2.3h5.6a3.3,3.3,0,0,0-.7-2.3A2.9,2.9,0,0,0,232.4,141.1Z" fill="#f5b65f"/></svg>