<svg xmlns="http://www.w3.org/2000/svg"><symbol id="facebook-icon" viewBox="0 0 102 102"><defs><clipPath id="a"><path fill="none" d="M0 0h102v102H0z"/></clipPath></defs><g clip-path="url(#a)"><path fill="#231f20" d="M51 1a50 50 0 1 0 50 50A50 50 0 0 0 51 1m13.2 49.8h-8.6v30.9H42.7V50.8h-6.1V39.9h6.1v-7.1c0-5 2.4-12.9 13-12.9h9.5v10.6h-6.9c-1.1 0-2.7.6-2.7 3v6.4h9.8z"/></g></symbol><symbol id="instragram-icon" viewBox="0 0 102 102"><defs><clipPath id="a"><path fill="none" d="M0 0h102v102H0z"/></clipPath></defs><g fill="#231f20" clip-path="url(#a)"><path d="M50.6 42.5a9 9 0 1 0 8.9 8.9 8.9 8.9 0 0 0-8.9-8.9"/><path d="M61.8 29.6H39.4c-3.3 0-6.1 1-7.9 2.9a10.5 10.5 0 0 0-3 7.9v22.3a10.3 10.3 0 0 0 11 10.9h22.1a11.3 11.3 0 0 0 8-2.8 10.7 10.7 0 0 0 3-8V40.4a11 11 0 0 0-2.9-7.9 11 11 0 0 0-7.9-2.9M50.6 65.3a13.9 13.9 0 1 1 13.8-13.9 13.9 13.9 0 0 1-13.8 13.9M65 40.4a3.2 3.2 0 1 1 0-6.3 3.2 3.2 0 0 1 0 6.3"/><path d="M51 1a50 50 0 1 0 50 50A50 50 0 0 0 51 1m26.5 61.8c0 4.7-1.5 8.7-4.4 11.5a16 16 0 0 1-11.5 4.3H39.5a16 16 0 0 1-11.4-4.3 15.6 15.6 0 0 1-4.5-11.6V40.4c0-9.4 6.3-15.8 15.8-15.8h22.4A15.6 15.6 0 0 1 73.2 29a16 16 0 0 1 4.3 11.4z"/></g></symbol><symbol id="linkedin-icon" viewBox="0 0 102 102"><defs><clipPath id="a"><path fill="none" d="M-8.8-9h120v120h-120z"/></clipPath></defs><g fill="#231f20" clip-path="url(#a)"><path d="M51.2 1a50 50 0 1 0 50 50 50 50 0 0 0-50-50M79 75.3a4 4 0 0 1-4.1 4H27.3a4.1 4.1 0 0 1-4.1-4V27.2a4.1 4.1 0 0 1 4.1-4h47.6a4 4 0 0 1 4.1 4z"/><path d="M60.8 44.2a8.4 8.4 0 0 0-7.6 4.2v-3.6h-8.4c.1 2.4 0 25.4 0 25.4h8.4V56a5.6 5.6 0 0 1 .3-2 4.5 4.5 0 0 1 4.3-3.1c3.1 0 4.3 2.3 4.3 5.7v13.6h8.4V55.6c0-7.8-4.2-11.4-9.7-11.4M36 32.6c-2.9 0-4.8 1.9-4.8 4.4a4.4 4.4 0 0 0 4.6 4.4h.1a4.4 4.4 0 1 0 .1-8.8m-4.3 12.2h8.4v25.35h-8.4z"/></g></symbol><symbol id="pinterest-icon" viewBox="0 0 102 102"><defs><clipPath id="a"><path fill="none" d="M0 0h102v102H0z"/></clipPath></defs><g clip-path="url(#a)"><path fill="#231f20" d="M51 1a50 50 0 0 0-20.1 95.8 45.7 45.7 0 0 1 .9-11.5c1-4 6.4-27.2 6.4-27.2a19.2 19.2 0 0 1-1.6-7.9c0-7.5 4.3-13 9.7-13s6.7 3.4 6.7 7.5-2.9 11.4-4.4 17.8 2.7 9.6 7.9 9.6c9.5 0 15.9-12.2 15.9-26.6 0-10.9-7.4-19.1-20.9-19.1-15.1 0-24.6 11.3-24.6 23.9a14.4 14.4 0 0 0 3.3 9.8c1 1.1 1.1 1.5.7 2.8s-.7 3.1-1 4a1.7 1.7 0 0 1-2.5 1.3c-7-2.9-10.2-10.5-10.2-19.1 0-14.3 12-31.3 35.7-31.3 19.1 0 31.7 13.8 31.7 28.7 0 19.6-10.9 34.2-27 34.2-5.4 0-10.5-2.9-12.2-6.2 0 0-2.9 11.5-3.5 13.7a42.4 42.4 0 0 1-5.1 10.7A47.8 47.8 0 0 0 51 101 50 50 0 0 0 51 1"/></g></symbol></svg>