<svg xmlns="http://www.w3.org/2000/svg"><symbol id="logo" viewBox="0 0 247.1 355.9"><path fill="#f5b65f" d="M178.4 116.7a2.8 2.8 0 0 1-1.3-.4l-54.7-31a2.6 2.6 0 0 1-1.2-2.2v-64a2.5 2.5 0 0 1 1.2-2.2 2.8 2.8 0 0 1 2.5 0l109.7 63.4a2.2 2.2 0 0 1 1.2 2.1 2.5 2.5 0 0 1-1.2 2.2l-55 31.7a2.8 2.8 0 0 1-1.2.4zm-52.2-35l52.2 29.6 49.9-28.9-102.1-59z"/><path fill="#f5b65f" d="M68.7 181.2a3.3 3.3 0 0 1-1.3-.4l-54.9-31.7a2.6 2.6 0 0 1-1.3-2.2V82.7a2.5 2.5 0 0 1 1.3-2.2l109.9-63.6a2.8 2.8 0 0 1 2.5 0 2.6 2.6 0 0 1 1.3 2.2v64a2.5 2.5 0 0 1-1.3 2.2l-53.7 30.3v63.1a2.8 2.8 0 0 1-2.5 2.5zm-52.5-35.7l50 28.8v-60.1a2.5 2.5 0 0 1 1.3-2.2l53.7-30.3V23.4l-105 60.7z"/><path fill="#f5b65f" d="M123.7 339.3a2.8 2.8 0 0 1-1.3-.3L12.5 274.9a2.5 2.5 0 0 1-1.3-2.2V146.9a2.3 2.3 0 0 1 1.3-2.1 2.3 2.3 0 0 1 2.5 0l54.9 31.7a2.5 2.5 0 0 1 1.3 2.2v60.8l53.7 31.1a2.4 2.4 0 0 1 1.3 2.1v64.1a2.6 2.6 0 0 1-1.3 2.2 2.7 2.7 0 0 1-1.2.3zm-107.5-68l105 61.2v-58.3l-53.8-31.1a2.7 2.7 0 0 1-1.2-2.2v-60.8l-50-28.9zm162.3-27.4a1.7 1.7 0 0 1-1.2-.4l-54.9-31.6a2.5 2.5 0 0 1-1.2-2.2 2.7 2.7 0 0 1 1.2-2.2l54.9-31a2.1 2.1 0 0 1 2.4 0l54.9 31a2.7 2.7 0 0 1 1.2 2.2 2.5 2.5 0 0 1-1.2 2.2l-54.8 31.6a2.2 2.2 0 0 1-1.3.4zm-49.8-34.2l49.8 28.8 49.8-28.8-49.8-28.2z"/><path fill="#f5b65f" d="M123.7 339.3a2.4 2.4 0 0 1-2.5-2.5v-64.1a2.6 2.6 0 0 1 1.2-2.1l109.7-63.1a2.8 2.8 0 0 1 2.5 0 2.5 2.5 0 0 1 1.2 2.2v63a2.4 2.4 0 0 1-1.2 2.2L124.9 339a2.7 2.7 0 0 1-1.2.3zm2.5-65.1v58.3l104.6-61.2V214z"/></symbol><symbol id="logo" viewBox="0 0 247.1 355.9"><path fill="#f5b65f" d="M178.4 116.7a2.8 2.8 0 0 1-1.3-.4l-54.7-31a2.6 2.6 0 0 1-1.2-2.2v-64a2.5 2.5 0 0 1 1.2-2.2 2.8 2.8 0 0 1 2.5 0l109.7 63.4a2.2 2.2 0 0 1 1.2 2.1 2.5 2.5 0 0 1-1.2 2.2l-55 31.7a2.8 2.8 0 0 1-1.2.4zm-52.2-35l52.2 29.6 49.9-28.9-102.1-59z"/><path fill="#f5b65f" d="M68.7 181.2a3.3 3.3 0 0 1-1.3-.4l-54.9-31.7a2.6 2.6 0 0 1-1.3-2.2V82.7a2.5 2.5 0 0 1 1.3-2.2l109.9-63.6a2.8 2.8 0 0 1 2.5 0 2.6 2.6 0 0 1 1.3 2.2v64a2.5 2.5 0 0 1-1.3 2.2l-53.7 30.3v63.1a2.8 2.8 0 0 1-2.5 2.5zm-52.5-35.7l50 28.8v-60.1a2.5 2.5 0 0 1 1.3-2.2l53.7-30.3V23.4l-105 60.7z"/><path fill="#f5b65f" d="M123.7 339.3a2.8 2.8 0 0 1-1.3-.3L12.5 274.9a2.5 2.5 0 0 1-1.3-2.2V146.9a2.3 2.3 0 0 1 1.3-2.1 2.3 2.3 0 0 1 2.5 0l54.9 31.7a2.5 2.5 0 0 1 1.3 2.2v60.8l53.7 31.1a2.4 2.4 0 0 1 1.3 2.1v64.1a2.6 2.6 0 0 1-1.3 2.2 2.7 2.7 0 0 1-1.2.3zm-107.5-68l105 61.2v-58.3l-53.8-31.1a2.7 2.7 0 0 1-1.2-2.2v-60.8l-50-28.9zm162.3-27.4a1.7 1.7 0 0 1-1.2-.4l-54.9-31.6a2.5 2.5 0 0 1-1.2-2.2 2.7 2.7 0 0 1 1.2-2.2l54.9-31a2.1 2.1 0 0 1 2.4 0l54.9 31a2.7 2.7 0 0 1 1.2 2.2 2.5 2.5 0 0 1-1.2 2.2l-54.8 31.6a2.2 2.2 0 0 1-1.3.4zm-49.8-34.2l49.8 28.8 49.8-28.8-49.8-28.2z"/><path fill="#f5b65f" d="M123.7 339.3a2.4 2.4 0 0 1-2.5-2.5v-64.1a2.6 2.6 0 0 1 1.2-2.1l109.7-63.1a2.8 2.8 0 0 1 2.5 0 2.5 2.5 0 0 1 1.2 2.2v63a2.4 2.4 0 0 1-1.2 2.2L124.9 339a2.7 2.7 0 0 1-1.2.3zm2.5-65.1v58.3l104.6-61.2V214z"/></symbol></svg>