<svg xmlns="http://www.w3.org/2000/svg" width="102" height="102" viewBox="0 0 102 102"><path fill="#231f20" d="M50.6 42.5a9 9 0 1 0 8.9 8.9 8.9 8.9 0 0 0-8.9-8.9z"/><path fill="#231f20" d="M61.8 29.6H39.4c-3.3 0-6.1 1-7.9 2.9a10.5 10.5 0 0 0-3 7.9v22.3a10.3 10.3 0 0 0 11 10.9h22.1a11.3 11.3 0 0 0 8-2.8 10.7 10.7 0 0 0 3-8V40.4a11 11 0 0 0-2.9-7.9 11 11 0 0 0-7.9-2.9zM50.6 65.3a13.9 13.9 0 1 1 13.8-13.9 13.9 13.9 0 0 1-13.8 13.9zM65 40.4a3.2 3.2 0 1 1 0-6.3 3.2 3.2 0 0 1 0 6.3z"/><path fill="#231f20" d="M51 1a50 50 0 1 0 50 50A50 50 0 0 0 51 1zm26.5 61.8c0 4.7-1.5 8.7-4.4 11.5a16 16 0 0 1-11.5 4.3H39.5a16 16 0 0 1-11.4-4.3 15.6 15.6 0 0 1-4.5-11.6V40.4c0-9.4 6.3-15.8 15.8-15.8h22.4A15.6 15.6 0 0 1 73.2 29a16 16 0 0 1 4.3 11.4z"/></svg>