<svg xmlns="http://www.w3.org/2000/svg" width="2.6in" height="2.3in" viewBox="0 0 186.3 165.9"><circle cx="93.2" cy="82.7" r="18.3" fill="#fff" transform="rotate(-13.3 92.96 82.562)"/><path fill="#fff" d="M135.8 50.4a17.6 17.6 0 0 0-4.1-6.3 17.2 17.2 0 0 0-6.2-4.1 34.3 34.3 0 0 0-10.2-1.9c-5.8-.2-7.5-.3-22.1-.3s-16.4.1-22.2.3A32.7 32.7 0 0 0 60.9 40a16.8 16.8 0 0 0-6.3 4.1 17.6 17.6 0 0 0-4.1 6.3c-.8 1.9-1.7 4.8-1.9 10.2s-.3 7.5-.3 22.1 0 16.4.3 22.1 1.1 8.3 1.9 10.2a18.2 18.2 0 0 0 10.4 10.4 32.7 32.7 0 0 0 10.1 1.9c5.8.3 7.5.3 22.2.3s16.3-.1 22.1-.3a34.3 34.3 0 0 0 10.2-1.9 17.2 17.2 0 0 0 6.2-4.1 16.8 16.8 0 0 0 4.1-6.3c.8-1.9 1.7-4.8 1.9-10.2s.3-7.5.3-22.1 0-16.3-.3-22.1-1.1-8.3-1.9-10.2zm-42.6 60.4a28.1 28.1 0 1 1 28.1-28.1 28.1 28.1 0 0 1-28.1 28.1zm29.2-50.7a6.6 6.6 0 1 1 6.6-6.6 6.7 6.7 0 0 1-6.6 6.6z"/><path fill="#fff" d="M93.2 2.5a80.2 80.2 0 1 0 80.2 80.2A80.3 80.3 0 0 0 93.2 2.5zm54.4 102.8a40 40 0 0 1-2.6 13.3 26.6 26.6 0 0 1-6.3 9.7 27 27 0 0 1-9.7 6.3 37.4 37.4 0 0 1-13.3 2.5c-5.8.3-7.7.4-22.5.4s-16.8-.1-22.6-.4a40.3 40.3 0 0 1-13.3-2.5 27 27 0 0 1-9.7-6.3 27.9 27.9 0 0 1-6.3-9.7 40 40 0 0 1-2.6-13.3c-.2-5.8-.3-7.7-.3-22.6s.1-16.7.3-22.5a39 39 0 0 1 2.6-13.3 26.2 26.2 0 0 1 6.3-9.7 26 26 0 0 1 9.7-6.4 43.1 43.1 0 0 1 13.3-2.5c5.8-.3 7.7-.3 22.6-.3s16.7 0 22.5.3a42.5 42.5 0 0 1 13.3 2.5 26 26 0 0 1 9.7 6.4 25.4 25.4 0 0 1 6.3 9.6 40 40 0 0 1 2.6 13.3c.3 5.9.3 7.7.3 22.6s0 16.7-.3 22.6z"/></svg>