<svg xmlns="http://www.w3.org/2000/svg" width="102" height="102" viewBox="0 0 102 102"><path fill="#231f20" d="M51 1a50 50 0 1 0 50 50A50 50 0 0 0 51 1zm27.8 74.3a4 4 0 0 1-4.1 4H27.2a4 4 0 0 1-4.1-4V27.2a4 4 0 0 1 4.1-4h47.5a4 4 0 0 1 4.1 4z"/><path fill="#231f20" d="M60.7 44.2a8.4 8.4 0 0 0-7.6 4.2H53a.1.1 0 0 1 .1-.1v-3.5h-8.5c.1 2.4 0 25.4 0 25.4h8.5V56a5.9 5.9 0 0 1 .2-2 4.5 4.5 0 0 1 4.4-3.1c3 0 4.2 2.3 4.2 5.7v13.6h8.5V55.6c0-7.8-4.2-11.4-9.7-11.4zM35.8 32.6c-2.9 0-4.8 1.9-4.8 4.4a4.5 4.5 0 0 0 4.7 4.4h.1a4.4 4.4 0 0 0 4.7-4.4 4.3 4.3 0 0 0-4.7-4.4zm-4.3 12.2h8.4v25.35h-8.4z"/></svg>