<svg xmlns="http://www.w3.org/2000/svg" id="Layer_1" width="16" height="16" viewBox="0 0 16 16"><defs><style>.cls-1{fill:#704142}</style></defs><path d="M7.35 4.24a10.86 10.86 0 0 1-2.45-1.5L3.5 5 2.09 7.16a10.54 10.54 0 0 1 2.4 1.58A8.54 8.54 0 0 1 7 12.1a7.44 7.44 0 0 1 3.39-.57 7.75 7.75 0 0 1 4.34 1.38l.33-.52-5-3.17-1 .14h-.19a.71.71 0 0 1-.74-.47.47.47 0 0 1 .4-.63h.19l-.06-.19a.47.47 0 0 1 .4-.62.69.69 0 0 1 .74.47l.05.18.31 1 5 3.17.32-.51a7.75 7.75 0 0 1-3.08-3.35 7.17 7.17 0 0 1-.92-3.31 8.31 8.31 0 0 1-4.13-.86z" class="cls-1"/><path d="M-.26 4.03h6.28v1.06H-.26z" class="cls-1" transform="rotate(-57.54 2.88 4.556)"/></svg>