<svg id="Layer_2" data-name="Layer 2" xmlns="http://www.w3.org/2000/svg" width="0.2in" height="0.2in" viewBox="0 0 16 16"><title>logo-16</title><path d="M10.5,5.2h0L7.9,3.7h0V.7h.2l5,2.9a.1.1,0,0,1,0,.2L10.6,5.2ZM8.1,3.6l2.4,1.3,2.3-1.3L8.1.9Z" fill="#f5b65f"/><path d="M5.5,8.1H5.4L2.9,6.7H2.8v-3a.1.1,0,0,1,.1-.1L7.9.6h.2V3.6h0L5.6,5.1V8ZM3.1,6.5,5.4,7.8V5.1h0L7.9,3.6V.9L3.1,3.7Z" fill="#f5b65f"/><path d="M8,15.4H7.9l-5-2.9H2.8V6.6H3L5.5,7.9h.1v2.8l2.5,1.5h0v2.9H8ZM3.1,12.3l4.8,2.8V12.4L5.4,11h0V8.1L3.1,6.8Z" fill="#f5b65f"/><path d="M10.5,11h0L7.9,9.6h0l2.6-1.5h.1l2.5,1.5h0L10.6,11ZM8.2,9.5l2.3,1.3,2.3-1.3L10.5,8.2Z" fill="#f5b65f"/><path d="M8,15.4H7.9V12.4h0L13,9.4h.2v2.9h-.1l-5,2.9Zm.1-3v2.7l4.8-2.8V9.7Z" fill="#f5b65f"/></svg>