<svg id="Layer_2" data-name="Layer 2" xmlns="http://www.w3.org/2000/svg" width="0.9in" height="0.9in" viewBox="0 0 64 64"><title>logo-64</title><path d="M42.1,21h-.2L31.8,15.2c-.1,0-.2-.2-.2-.4V3a.8.8,0,0,1,.2-.4.4.4,0,0,1,.5,0L52.5,14.3a.5.5,0,0,1,0,.8L42.3,21Zm-9.6-6.4L42.1,20l9.2-5.3L32.5,3.8Z" fill="#f5b65f"/><path d="M21.9,32.9h-.2L11.5,27a.5.5,0,0,1-.2-.4V14.7l.2-.4L31.8,2.6a.4.4,0,0,1,.5,0,.8.8,0,0,1,.2.4V14.8c0,.2-.1.4-.2.4l-10,5.6V32.5a.4.4,0,0,1-.2.4Zm-9.7-6.6,9.2,5.4V20.6c0-.2.1-.4.3-.4l9.9-5.6V3.8L12.2,15Z" fill="#f5b65f"/><path d="M32,62.1h-.2L11.5,50.2a.5.5,0,0,1-.2-.4V26.6a.5.5,0,0,1,.2-.4H12l10.1,5.9c.2,0,.2.2.2.4V43.7l10,5.7.2.4V61.6c0,.2-.1.4-.2.4ZM12.2,49.6,31.6,60.8V50.1l-9.9-5.8c-.2,0-.3-.2-.3-.4V32.7l-9.2-5.3Z" fill="#f5b65f"/><path d="M42.1,44.5h-.2L31.8,38.6a.5.5,0,0,1,0-.8l10.1-5.7a.5.5,0,0,1,.5,0l10.1,5.7a.5.5,0,0,1,0,.8L42.4,44.4ZM33,38.2l9.1,5.3,9.2-5.3L42.1,33Z" fill="#f5b65f"/><path d="M32,62.1h-.2c-.1,0-.2-.2-.2-.4V49.8a.8.8,0,0,1,.2-.4L52,37.8h.5a.5.5,0,0,1,.2.4V49.8a.5.5,0,0,1-.2.4L32.3,62Zm.5-12V60.8L51.8,49.6V39Z" fill="#f5b65f"/></svg>