<svg xmlns="http://www.w3.org/2000/svg" id="Layer_2" viewBox="0 0 224.61 322.71" width="224.61" height="322.71"><defs><style>.cls-1{fill:#f5b65f}</style></defs><path d="M178.36 116.66a2.47 2.47 0 0 1-1.23-.33l-54.69-31a2.53 2.53 0 0 1-1.27-2.18v-64a2.5 2.5 0 0 1 3.75-2.17l109.66 63.28a2.47 2.47 0 0 1 1.25 2.16 2.5 2.5 0 0 1-1.25 2.17l-55 31.73a2.42 2.42 0 0 1-1.22.34zm-52.19-35l52.18 29.59 50-28.86-102.16-59z" class="cls-1" transform="translate(-11.22 -16.61)"/><path d="M68.7 181.16a2.52 2.52 0 0 1-1.25-.34l-55-31.74a2.51 2.51 0 0 1-1.25-2.16V82.66a2.51 2.51 0 0 1 1.25-2.17l110-63.55a2.53 2.53 0 0 1 2.5 0 2.49 2.49 0 0 1 1.25 2.17v64a2.49 2.49 0 0 1-1.27 2.18l-53.7 30.3v63a2.51 2.51 0 0 1-1.23 2.23 2.55 2.55 0 0 1-1.3.34zm-52.48-35.69l50 28.86v-60.17a2.49 2.49 0 0 1 1.25-2.16l53.7-30.3V23.44L16.22 84.1z" class="cls-1" transform="translate(-11.22 -16.61)"/><path d="M123.67 339.32a2.59 2.59 0 0 1-1.26-.34L12.46 274.91a2.5 2.5 0 0 1-1.24-2.16V146.92a2.51 2.51 0 0 1 1.25-2.17 2.48 2.48 0 0 1 2.5 0l55 31.74a2.51 2.51 0 0 1 1.25 2.17v60.81l53.72 31.11a2.49 2.49 0 0 1 1.25 2.17v64.07a2.5 2.5 0 0 1-1.25 2.16 2.45 2.45 0 0 1-1.27.34zm-107.45-68l105 61.16v-58.29l-53.78-31.12a2.49 2.49 0 0 1-1.24-2.16V180.1l-50-28.85zm162.28-27.46a2.54 2.54 0 0 1-1.25-.33l-54.83-31.66a2.5 2.5 0 0 1 0-4.34l54.83-31.05a2.53 2.53 0 0 1 2.47 0l54.83 31.05a2.5 2.5 0 0 1 0 4.34l-54.83 31.66a2.51 2.51 0 0 1-1.22.33zm-49.79-34.13l49.79 28.75 49.8-28.75-49.8-28.2z" class="cls-1" transform="translate(-11.22 -16.61)"/><path d="M123.67 339.32a2.39 2.39 0 0 1-1.24-.34 2.48 2.48 0 0 1-1.26-2.16v-64.07a2.49 2.49 0 0 1 1.26-2.17l109.66-63a2.53 2.53 0 0 1 2.5 0 2.5 2.5 0 0 1 1.24 2.17v63a2.48 2.48 0 0 1-1.24 2.15L124.93 339a2.47 2.47 0 0 1-1.26.32zm2.5-65.13v58.27l104.66-61.15V214z" class="cls-1" transform="translate(-11.22 -16.61)"/></svg>