<svg xmlns="http://www.w3.org/2000/svg" width="38.4" height="38.4" viewBox="0 0 32 32"><path fill="#4f3b49" d="M26.3 18.9l-.3.2-4.3 2.5-4.6-2.7 4.6-2.6 4.6 2.6zm.3.4v5.3l-9.7 5.7v-5.4l4.9-2.8h.1zm-10.2 5.6v5.4l-9.6-5.7V13.5l4.6 2.7v5.6c0 .1 0 .2.1.2zm9.9-17.7l-4.6 2.6-4.8-2.7V1.7l9.4 5.5zm-9.9-5.5v5.4l-4.9 2.8v5.8L6.8 13V7.3z"/><path fill="#fff" d="M26.6 19.3l.3-.2c.1 0 .1-.1.1-.2v5.8c0 .1 0 .2-.1.2l-10.1 6a.3.3 0 0 0 .1-.2v-.4l9.7-5.7z"/><path fill="#4f3b49" d="M26 19.1l-4.3 2.5 4.3-2.5zM21.9 22z"/><path fill="#fff" d="M26.9 19.1l-.3.2-4.7 2.7h-.2a.1.1 0 0 1-.1-.1l-.4-.2.5-.2 4.3-2.4.3-.2.4-.2h.2v.2c.1.1.1.2 0 .2z"/><path fill="#fff" d="M21.2 21.8l-4.7-2.7a.3.3 0 0 1-.1-.2l.2-.2 5-2.8h.2l5.1 2.8h-.2l-.4.2-4.6-2.6-4.6 2.6 4.6 2.7zm.4-11.5l-4.9-2.8h.1a.3.3 0 0 0 .1-.2v-.2l4.8 2.7 4.6-2.6-9.4-5.5v-.4a.3.3 0 0 0-.1-.2L26.9 7c.1 0 .1.1.1.2v.2l-5.1 2.9h-.2zm.1 11.8h.1l-4.9 2.8v-.4h-.1l4.5-2.7.4.2a.1.1 0 0 0 0 .1z"/><path fill="#fff" d="M16.7 24.5h.1v6.2a.3.3 0 0 1-.1.2h-.3v-6.2a.3.3 0 0 0 .1-.2zm.1-17h-.2l-.2-.2V1.1h.3a.3.3 0 0 1 .1.2v6a.3.3 0 0 1 0 .2z"/><path fill="#fff" d="M16.4 24.7v.2L11.5 22c-.1 0-.1-.1-.1-.2v-5.6h.3v5.4l4.9 2.8h-.2a.3.3 0 0 1 0 .3zm0-17.4l.2.2h.1l-4.9 2.7v5.9c0-.1 0-.2-.1-.2l-.3-.2V9.9l4.9-2.8zm-9.6 0V13h-.4V7.2c0-.1 0-.2.1-.2l10-5.9v.6z"/><path fill="#fff" d="M6.8 13l4.6 2.7.3.2c.1 0 .1.1.1.2v.2h-.3l-4.7-2.8-.4-.2c-.1 0-.1-.1-.1-.2v-.2h.4z"/><path fill="#fff" d="M6.8 24.6l9.6 5.7v.6l-10.1-6c-.1 0-.1-.1-.1-.2V13.1c0 .1 0 .2.1.2l.4.2z"/></svg>