<svg xmlns="http://www.w3.org/2000/svg" id="Layer_2" width="86.4" height="86.4" viewBox="0 0 64 64"><path fill="#f5b65f" d="M42.1 21h-.2l-10.1-5.8c-.1 0-.2-.2-.2-.4V3a.8.8 0 0 1 .2-.4.4.4 0 0 1 .5 0l20.2 11.7a.5.5 0 0 1 0 .8L42.3 21zm-9.6-6.4l9.6 5.4 9.2-5.3L32.5 3.8z"/><path fill="#f5b65f" d="M21.9 32.9h-.2L11.5 27a.5.5 0 0 1-.2-.4V14.7l.2-.4L31.8 2.6a.4.4 0 0 1 .5 0 .8.8 0 0 1 .2.4v11.8c0 .2-.1.4-.2.4l-10 5.6v11.7a.4.4 0 0 1-.2.4zm-9.7-6.6l9.2 5.4V20.6c0-.2.1-.4.3-.4l9.9-5.6V3.8L12.2 15z"/><path fill="#f5b65f" d="M32 62.1h-.2L11.5 50.2a.5.5 0 0 1-.2-.4V26.6a.5.5 0 0 1 .2-.4h.5l10.1 5.9c.2 0 .2.2.2.4v11.2l10 5.7.2.4v11.8c0 .2-.1.4-.2.4zM12.2 49.6l19.4 11.2V50.1l-9.9-5.8c-.2 0-.3-.2-.3-.4V32.7l-9.2-5.3zm29.9-5.1h-.2l-10.1-5.9a.5.5 0 0 1 0-.8l10.1-5.7a.5.5 0 0 1 .5 0l10.1 5.7a.5.5 0 0 1 0 .8l-10.1 5.8zM33 38.2l9.1 5.3 9.2-5.3-9.2-5.2z"/><path fill="#f5b65f" d="M32 62.1h-.2c-.1 0-.2-.2-.2-.4V49.8a.8.8 0 0 1 .2-.4L52 37.8h.5a.5.5 0 0 1 .2.4v11.6a.5.5 0 0 1-.2.4L32.3 62zm.5-12v10.7l19.3-11.2V39z"/></svg>