<svg id="Layer_2" data-name="Layer 2" xmlns="http://www.w3.org/2000/svg" width="0.4in" height="0.4in" viewBox="0 0 32 32"><title>logo-32</title><path d="M21.7,10.3h-.1l-5-2.8-.2-.2v-6l.2-.2h.2L26.9,7c.1,0,.1.1.1.2v.2l-5.1,2.9ZM16.9,7.1l4.8,2.7,4.6-2.6L16.9,1.7Z" fill="#f5b65f"/><path d="M11.6,16.3h-.1l-5.1-3c-.1,0-.1-.1-.1-.2V7.2c0-.1,0-.2.1-.2L16.6,1.1h.2a.3.3,0,0,1,.1.2v6a.3.3,0,0,1-.1.2l-5,2.7v6.1ZM6.8,13l4.6,2.7V9.9l4.9-2.8V1.7L6.8,7.3Z" fill="#f5b65f"/><path d="M16.7,30.9h-.2l-10.1-6c-.1,0-.1-.1-.1-.2V12.9h.2l5.1,3c.1,0,.1.1.1.2v5.6l5,2.8v6.2a.3.3,0,0,1-.1.2ZM6.8,24.6l9.6,5.7V24.9L11.5,22c-.1,0-.1-.1-.1-.2V16.2L6.8,13.5Z" fill="#f5b65f"/><path d="M21.7,22.1a.1.1,0,0,1-.1-.1l-5-2.9a.2.2,0,0,1-.2-.2l.2-.2,5-2.8h.2l5.1,2.8v.2c0,.1,0,.2-.1.2L21.8,22C21.8,22.1,21.8,22.1,21.7,22.1Zm-4.6-3.2,4.6,2.7,4.6-2.7-4.6-2.6Z" fill="#f5b65f"/><path d="M16.7,30.9h-.1l-.2-.2v-6l.2-.2,10.1-5.8h.2v6c0,.1,0,.2-.1.2l-10.1,6Zm.2-6v5.4l9.7-5.7V19.3Z" fill="#f5b65f"/></svg>