<svg xmlns="http://www.w3.org/2000/svg" id="Layer_2" width="1.8in" height="1.8in" viewBox="0 0 128 128"><path fill="#f5b65f" d="M84.2 41.4h-.4L63.6 29.8a1 1 0 0 1-.5-.8V5.4a.8.8 0 0 1 .5-.8.7.7 0 0 1 .9 0L105 27.9a.9.9 0 0 1 .4.8c0 .4-.1.7-.4.8L84.7 41.3zM65 28.5l19.2 10.9 18.5-10.7L65 7z"/><path fill="#f5b65f" d="M43.8 65.2h-.5L23 53.3c-.3-.1-.4-.4-.4-.8V28.8a.9.9 0 0 1 .4-.8L63.6 4.6a.7.7 0 0 1 .9 0 .8.8 0 0 1 .5.8V29a1 1 0 0 1-.5.8L44.7 41v23.3a1 1 0 0 1-.5.8zM24.4 52l18.4 10.7V40.5a.8.8 0 0 1 .5-.8l19.8-11.2V7L24.4 29.4z"/><path fill="#f5b65f" d="M64.1 123.5h-.5L23 99.8a.9.9 0 0 1-.4-.8V52.5a.9.9 0 0 1 .4-.8 1.4 1.4 0 0 1 .9 0l20.3 11.8a.8.8 0 0 1 .5.8v22.4l19.8 11.5a.8.8 0 0 1 .5.8v23.6a.8.8 0 0 1-.5.8zM24.4 98.4L63.1 121V99.5L43.3 88a.8.8 0 0 1-.5-.8V64.8L24.4 54.1zm59.9-10.1h-.5L63.6 76.5a.9.9 0 0 1 0-1.6l20.2-11.4a.7.7 0 0 1 .9 0L105 74.9a1 1 0 0 1 0 1.6L84.7 88.2zM65.9 75.7l18.4 10.6 18.4-10.6-18.4-10.4z"/><path fill="#f5b65f" d="M64.1 123.5h-.5a.8.8 0 0 1-.5-.8V99a.8.8 0 0 1 .5-.8l40.5-23.3a1.4 1.4 0 0 1 .9 0 .9.9 0 0 1 .4.8V99a.9.9 0 0 1-.4.8l-40.5 23.6zm.9-24V121l38.6-22.6V77.3z"/></svg>