<svg xmlns="http://www.w3.org/2000/svg" id="Layer_2" width="38.4" height="38.4" viewBox="0 0 32 32"><path fill="#f5b65f" d="M21.7 10.3h-.1l-5-2.8-.2-.2v-6l.2-.2h.2L26.9 7c.1 0 .1.1.1.2v.2l-5.1 2.9zm-4.8-3.2l4.8 2.7 4.6-2.6-9.4-5.5z"/><path fill="#f5b65f" d="M11.6 16.3h-.1l-5.1-3c-.1 0-.1-.1-.1-.2V7.2c0-.1 0-.2.1-.2l10.2-5.9h.2a.3.3 0 0 1 .1.2v6a.3.3 0 0 1-.1.2l-5 2.7v6.1zM6.8 13l4.6 2.7V9.9l4.9-2.8V1.7L6.8 7.3z"/><path fill="#f5b65f" d="M16.7 30.9h-.2l-10.1-6c-.1 0-.1-.1-.1-.2V12.9h.2l5.1 3c.1 0 .1.1.1.2v5.6l5 2.8v6.2a.3.3 0 0 1-.1.2zm-9.9-6.3l9.6 5.7v-5.4L11.5 22c-.1 0-.1-.1-.1-.2v-5.6l-4.6-2.7zm14.9-2.5a.1.1 0 0 1-.1-.1l-5-2.9a.2.2 0 0 1-.2-.2l.2-.2 5-2.8h.2l5.1 2.8v.2c0 .1 0 .2-.1.2l-5 2.9c0 .1 0 .1-.1.1zm-4.6-3.2l4.6 2.7 4.6-2.7-4.6-2.6z"/><path fill="#f5b65f" d="M16.7 30.9h-.1l-.2-.2v-6l.2-.2 10.1-5.8h.2v6c0 .1 0 .2-.1.2l-10.1 6zm.2-6v5.4l9.7-5.7v-5.3z"/></svg>