<svg xmlns="http://www.w3.org/2000/svg" id="Layer_1" width="32" height="32" viewBox="0 0 32 32"><defs><style>.cls-1{fill:#704142}</style></defs><path d="M14.57 9.32A19.8 19.8 0 0 1 10 6.54l-2.61 4.1-2.61 4.1a20 20 0 0 1 4.44 2.94 15.51 15.51 0 0 1 4.68 6.22h.06a13.45 13.45 0 0 1 6.28-1.05 14.53 14.53 0 0 1 8.06 2.55l.6-1-9.25-5.8-1.89.25-.36.05A1.31 1.31 0 0 1 16 18a.88.88 0 0 1 .74-1.16l.36-.05-.1-.34a.88.88 0 0 1 .74-1.16 1.3 1.3 0 0 1 1.37.87l.11.35.56 1.81 9.26 5.89.61-1A14.34 14.34 0 0 1 24 17.06a13.64 13.64 0 0 1-1.71-6.14h-.06a15.56 15.56 0 0 1-7.66-1.6z" class="cls-1"/><path d="M.46 8.93H12.1v1.97H.46z" class="cls-1" transform="rotate(-57.54 6.276 9.917)"/></svg>