<svg id="Layer_2" data-name="Layer 2" xmlns="http://www.w3.org/2000/svg" width="1.8in" height="1.8in" viewBox="0 0 128 128"><title>logo</title><path d="M84.2,41.4h-.4L63.6,29.8a1,1,0,0,1-.5-.8V5.4a.8.8,0,0,1,.5-.8.7.7,0,0,1,.9,0L105,27.9a.9.9,0,0,1,.4.8c0,.4-.1.7-.4.8L84.7,41.3ZM65,28.5,84.2,39.4l18.5-10.7L65,7Z" fill="#f5b65f"/><path d="M43.8,65.2h-.5L23,53.3c-.3-.1-.4-.4-.4-.8V28.8A.9.9,0,0,1,23,28L63.6,4.6a.7.7,0,0,1,.9,0,.8.8,0,0,1,.5.8V29a1,1,0,0,1-.5.8L44.7,41V64.3a1,1,0,0,1-.5.8ZM24.4,52,42.8,62.7V40.5a.8.8,0,0,1,.5-.8L63.1,28.5V7L24.4,29.4Z" fill="#f5b65f"/><path d="M64.1,123.5h-.5L23,99.8a.9.9,0,0,1-.4-.8V52.5a.9.9,0,0,1,.4-.8,1.4,1.4,0,0,1,.9,0L44.2,63.5a.8.8,0,0,1,.5.8V86.7L64.5,98.2a.8.8,0,0,1,.5.8v23.6a.8.8,0,0,1-.5.8ZM24.4,98.4,63.1,121V99.5L43.3,88a.8.8,0,0,1-.5-.8V64.8L24.4,54.1Z" fill="#f5b65f"/><path d="M84.3,88.3h-.5L63.6,76.5a.9.9,0,0,1,0-1.6L83.8,63.5a.7.7,0,0,1,.9,0L105,74.9a1,1,0,0,1,0,1.6L84.7,88.2ZM65.9,75.7,84.3,86.3l18.4-10.6L84.3,65.3Z" fill="#f5b65f"/><path d="M64.1,123.5h-.5a.8.8,0,0,1-.5-.8V99a.8.8,0,0,1,.5-.8l40.5-23.3a1.4,1.4,0,0,1,.9,0,.9.9,0,0,1,.4.8V99a.9.9,0,0,1-.4.8L64.5,123.4Zm.9-24V121l38.6-22.6V77.3Z" fill="#f5b65f"/></svg>