<svg xmlns="http://www.w3.org/2000/svg" id="Layer_1" width="64" height="64" viewBox="0 0 64 64"><defs><style>.cls-1{fill:#704142}</style></defs><path d="M29.21 18.29a38.63 38.63 0 0 1-8.88-5.43l-5.1 8-5.1 8a38.65 38.65 0 0 1 8.69 5.74c4.63 4 7.86 8.49 9.07 12.16l.12.08a26.44 26.44 0 0 1 12.28-2c6.51.28 12.39 2.27 15.74 5l1.18-1.86-18.09-11.55-.07-.07-3.68.5-.7.1A2.57 2.57 0 0 1 32 35.25 1.7 1.7 0 0 1 33.43 33l.7-.09-.21-.68A1.7 1.7 0 0 1 35.36 30 2.55 2.55 0 0 1 38 31.66l.21.68 1.11 3.54h.09l18.12 11.55 1.19-1.87c-3.87-1.87-8.16-6.36-11.18-12.14a26.49 26.49 0 0 1-3.35-12l-.12-.08c-3.84.47-9.26-.55-14.86-3.05z" class="cls-1"/><path d="M1.63 17.54h22.75v3.84H1.63z" class="cls-1" transform="rotate(-57.3 13.087 19.536)"/></svg>