<svg xmlns="http://www.w3.org/2000/svg" width="19.2" height="19.2" viewBox="0 0 16 16"><path fill="#fff" d="M13.2 9.5v2.9h-.1l-5 2.9v-.2l4.8-2.8V9.7h.3zm0-5.9a.1.1 0 0 1-.1.1l-2.5 1.5h-.1L8 3.8h.1l2.4 1.3 2.3-1.3L8.1.9V.7l5 2.9a.1.1 0 0 1 .1 0z"/><path fill="#fff" d="M13.2 9.5h-.3L10.6 11h-.1l1.7-1 .6-.3h.4z"/><path fill="#fff" d="M13.1 9.4h-.3l-2.3-1.2-2.3 1.3 2.3 1.3h-.2L7.9 9.6l2.6-1.5h.1z"/><path fill="#4f3b49" d="M12.9 9.7v2.6l-4.8 2.8v-2.7l2.5-1.4 2.3-1.3zm-.1-.2l-.6.3-1.7 1-2.3-1.3 2.3-1.3 2.3 1.3zm0-5.9l-2.3 1.3-2.4-1.3V.9l4.7 2.7zm-.6 6.2l-1.7 1 1.7-1z"/><path fill="#fff" d="M10.6 11l-2.5 1.4H8l2.3-1.3h.3z"/><path fill="#fff" d="M8.1 15.1v.2h-.2v-2.9h.2zM8.1.9v2.7h-.2V.7h.2zM8 12.2h-.1L5.4 11V8.1h.2v2.8z"/><path fill="#fff" d="M8 3.8L5.6 5.1V8h-.2V5.1l2.5-1.5H8zm-5.1-.3l5-2.9v.3L3 3.7v2.8h-.2v-3a.1.1 0 0 1 .1 0zm5 11.9l-5-2.9h-.1V6.6H3v5.5l4.9 2.8v.2z"/><path fill="#4f3b49" d="M7.9 12.4v2.7L3 12.3V6.8h.3l2.1 1.3v2.8zM7.9.9v2.7L5.4 5v2.8L3 6.5V3.7z"/><path fill="#fff" d="M5.6 8h-.2L3.3 6.9H3l2.4.9h.2z"/><path fill="#4f3b49" d="M5.4 8.1L3.3 6.9l2.1 1.2z"/></svg>