<svg xmlns="http://www.w3.org/2000/svg" width="2.6in" height="2.3in" viewBox="0 0 186.3 165.9"><path fill="#fff" d="M87.6 2.5a80.2 80.2 0 1 0 80.2 80.2A80.2 80.2 0 0 0 87.6 2.5zm.1 136.4a53.4 53.4 0 0 1-16.6-2.5c2.3-3.7 5.7-9.8 7-14.7l3.5-13.3c1.8 3.5 7.1 6.4 12.8 6.4 17 0 29.2-15.6 29.2-34.9s-15.2-32.5-34.7-32.5c-24.2 0-37.1 16.3-37.1 34 0 8.2 4.4 18.5 11.4 21.8 1.1.5 1.7.2 1.9-.8s1.1-4.6 1.6-6.4a2 2 0 0 0-.4-1.6 21.7 21.7 0 0 1-4.2-12.8c0-12.4 9.4-24.3 25.3-24.3 13.8 0 23.5 9.4 23.5 22.8 0 15.2-7.7 25.7-17.6 25.7-5.5 0-9.7-4.5-8.4-10.1s4.7-13.9 4.7-18.7-2.3-7.9-7.1-7.9-10.2 5.8-10.2 13.6a20.4 20.4 0 0 0 1.7 8.4s-5.5 23.5-6.6 27.9-.6 11.6-.1 16.1a56.3 56.3 0 1 1 20.4 3.8z"/></svg>