<svg xmlns="http://www.w3.org/2000/svg" id="Layer_1" width="102" height="102" viewBox="0 0 102 102"><path fill="#231f20" d="M51 1a50 50 0 0 0-20.1 95.8 45.7 45.7 0 0 1 .9-11.5c1-4 6.4-27.2 6.4-27.2a19.2 19.2 0 0 1-1.6-7.9c0-7.5 4.3-13 9.7-13s6.7 3.4 6.7 7.5-2.9 11.4-4.4 17.8 2.7 9.6 7.9 9.6c9.5 0 15.9-12.2 15.9-26.6 0-10.9-7.4-19.2-20.9-19.2-15.1 0-24.6 11.4-24.6 24a14.4 14.4 0 0 0 3.3 9.8c1 1.1 1.1 1.5.7 2.8s-.7 3.1-1 4a1.7 1.7 0 0 1-2.5 1.3c-7-2.9-10.2-10.5-10.2-19.1 0-14.3 12-31.3 35.7-31.3 19.1 0 31.7 13.8 31.7 28.7 0 19.6-10.9 34.2-27 34.2-5.4 0-10.5-2.9-12.2-6.2 0 0-2.9 11.5-3.5 13.7A44.8 44.8 0 0 1 36.8 99a51.3 51.3 0 0 0 14.2 2A50 50 0 0 0 51 1z"/></svg>